SplineFontDB: 3.2
FontName: FlorentinSans-Hairline
FullName: Florentin Sans Hairline
FamilyName: Florentin Sans
Weight: Regular
Copyright: Copyright (c) 2023, LMNOP Type Foundry
UComments: "2023-11-2: Created with FontForge (http://fontforge.org)"
Version: 001.000
ItalicAngle: 0
UnderlinePosition: -100
UnderlineWidth: 50
Ascent: 800
Descent: 200
InvalidEm: 0
LayerCount: 2
Layer: 0 0 "Back" 1
Layer: 1 0 "Fore" 0
XUID: [1021 474 1118879153 16092]
StyleMap: 0x0000
FSType: 0
OS2Version: 0
OS2_WeightWidthSlopeOnly: 0
OS2_UseTypoMetrics: 1
CreationTime: 1698965926
ModificationTime: 1700493661
PfmFamily: 33
TTFWeight: 1
TTFWidth: 5
LineGap: 90
VLineGap: 90
OS2TypoAscent: 0
OS2TypoAOffset: 1
OS2TypoDescent: 0
OS2TypoDOffset: 1
OS2TypoLinegap: 90
OS2WinAscent: 0
OS2WinAOffset: 1
OS2WinDescent: 0
OS2WinDOffset: 1
HheadAscent: 0
HheadAOffset: 1
HheadDescent: 0
HheadDOffset: 1
OS2Vendor: 'PfEd'
Lookup: 1 0 0 "'ss10' Style Set 10 in Latin lookup 9" { "'ss10' Style Set 10 in Latin lookup 9-1"  } ['ss10' ('DFLT' <'dflt' > 'latn' <'dflt' > ) ]
Lookup: 1 0 0 "'ss11' Style Set 11 in Latin lookup 10" { "'ss11' Style Set 11 in Latin lookup 10-1"  } ['ss11' ('DFLT' <'dflt' > 'latn' <'dflt' > ) ]
Lookup: 1 0 0 "'ss12' Style Set 12 in Latin lookup 11" { "'ss12' Style Set 12 in Latin lookup 11-1"  } ['ss12' ('DFLT' <'dflt' > 'latn' <'dflt' > ) ]
Lookup: 1 0 0 "'ss13' Style Set 13 in Latin lookup 12" { "'ss13' Style Set 13 in Latin lookup 12-1"  } ['ss13' ('DFLT' <'dflt' > 'latn' <'dflt' > ) ]
Lookup: 1 0 0 "'ss01' Style Set 1 in Latin lookup 0" { "'ss01' Style Set 1 in Latin lookup 0-1" ("ss01") } ['ss01' ('DFLT' <'dflt' > 'latn' <'dflt' > ) ]
Lookup: 1 0 0 "'ss02' Style Set 2 in Latin lookup 1" { "'ss02' Style Set 2 in Latin lookup 1-1" ("ss02") } ['ss02' ('DFLT' <'dflt' > 'latn' <'dflt' > ) ]
Lookup: 1 0 0 "'ss03' Style Set 3 in Latin lookup 2" { "'ss03' Style Set 3 in Latin lookup 2-1" ("ss03") } ['ss03' ('DFLT' <'dflt' > 'latn' <'dflt' > ) ]

StartChar: I
Encoding: 73 73 0
Width: 108
Flags: W
HStem: 0 21G<50 58> 711.008 20G<50 58>
VStem: 50 8<0 731.008>
LayerCount: 2
Back
SplineSet
50 0 m 1
 50 731.0078125 l 1
 296 731.0078125 l 1
 296 0 l 1
 50 0 l 1
EndSplineSet
Fore
SplineSet
50 0 m 5
 50 731.0078125 l 5
 58 731.0078125 l 5
 58 0 l 5
 50 0 l 5
EndSplineSet
Validated: 524289
EndChar

StartChar: O
Encoding: 79 79 1
Width: 760
Flags: W
HStem: -10 7.45312<325.93 434.07> 731.547 7.45312<325.93 434.07>
VStem: 30 7.36328<307.528 414.662> 722.637 7.36328<307.528 414.662>
LayerCount: 2
Back
SplineSet
531 -179.994140625 m 1
 435 6 l 1
 601 119 l 1
 737 -64.994140625 l 1
 531 -179.994140625 l 1
258.98046875 392.849609375 m 0
 258.98046875 293.393554688 292.50390625 196.935546875 389.900390625 196.935546875 c 0
 468.393554688 196.935546875 501.01953125 252.82421875 501.01953125 337.950195312 c 0
 501.01953125 437.211914062 467.348632812 532.064453125 372.799804688 532.064453125 c 0
 300.689453125 532.064453125 258.98046875 478.766601562 258.98046875 392.849609375 c 0
10 361 m 0
 10 600 145.314285714 739 380 739 c 0
 604.685714286 739 750 600 750 361 c 0
 750 122 604.685714286 -10 380 -10 c 0
 145.314285714 -10 10 122 10 361 c 0
EndSplineSet
Fore
SplineSet
37.36328125 361.069335938 m 4
 37.36328125 126.825195312 184.959960938 -2.546875 380 -2.546875 c 4
 575.040039062 -2.546875 722.63671875 126.825195312 722.63671875 361.069335938 c 4
 722.63671875 595.313476562 575.040039062 731.546875 380 731.546875 c 4
 184.959960938 731.546875 37.36328125 595.313476562 37.36328125 361.069335938 c 4
30 361 m 4
 30 600 181 739 380 739 c 4
 579 739 730 600 730 361 c 4
 730 122 579 -10 380 -10 c 4
 181 -10 30 122 30 361 c 4
EndSplineSet
Validated: 524289
EndChar

StartChar: U
Encoding: 85 85 2
Width: 619
Flags: W
HStem: -10 9<244.551 375.02> 711.008 20G<50 58 561 569>
VStem: 50 8<157.34 731.008> 561 8<157.047 731.008>
LayerCount: 2
Fore
SplineSet
561 198 m 6
 561 731.0078125 l 5
 569 731.0078125 l 5
 569 196 l 6
 569 36.453125 442 -10 308 -10 c 4
 175 -10 50 37.7275390625 50 196 c 6
 50 731.0078125 l 5
 58 731.0078125 l 5
 58 198 l 6
 58 43.2685546875 178 -1 308 -1 c 4
 439 -1 561 42 561 198 c 6
EndSplineSet
Validated: 524801
Substitution2: "'ss09' Style Set 1 in Latin lookup 8-1" U.ss09
EndChar

StartChar: one
Encoding: 49 49 3
Width: 209
Flags: W
HStem: 0.00292969 21G<151 159> 472 9.01074<10.2231 27.8079> 522.011 20G<128.182 159>
VStem: 151 8<0.00292969 533.011>
LayerCount: 2
Fore
SplineSet
159 540.010742188 m 1
 159 0.0029296875 l 5
 151 0.0029296875 l 5
 151 533.010742188 l 5
 108.184570312 502.447265625 69 485 11 472 c 1
 10 481.010742188 l 1
 66 490.93359375 105.36328125 512.161132812 151 542.010742188 c 5
 159 540.010742188 l 1
EndSplineSet
Validated: 524289
EndChar

StartChar: Q
Encoding: 81 81 4
Width: 800
Flags: W
HStem: -10 7.45312<345.436 454.564> 731.547 7.45312<345.436 454.564>
VStem: 30 7.36328<307.528 414.662> 762.637 7.36328<307.528 414.662>
LayerCount: 2
Back
SplineSet
1237 -195.994140625 m 5
 982.431640625 -175.055664062 733.13307168 -117.644403824 505 6 c 1
 511 11 l 1
 735.219785934 -108.460316692 981.907226562 -167.884765625 1238 -187.994140625 c 5
 1237 -195.994140625 l 5
37.36328125 361.069335938 m 0
 37.36328125 126.825195312 204.959960938 -2.546875 400 -2.546875 c 0
 595.040039062 -2.546875 762.63671875 126.825195312 762.63671875 361.069335938 c 0
 762.63671875 595.313476562 595.040039062 731.546875 400 731.546875 c 0
 204.959960938 731.546875 37.36328125 595.313476562 37.36328125 361.069335938 c 0
30 361 m 0
 30 600 201 739 400 739 c 0
 599 739 770 600 770 361 c 0
 770 122 599 -10 400 -10 c 0
 201 -10 30 122 30 361 c 0
EndSplineSet
Fore
SplineSet
621 -179.994140625 m 5
 505 6 l 5
 511 8 l 5
 627 -175.994140625 l 5
 621 -179.994140625 l 5
37.36328125 361.069335938 m 0
 37.36328125 126.825195312 204.959960938 -2.546875 400 -2.546875 c 0
 595.040039062 -2.546875 762.63671875 126.825195312 762.63671875 361.069335938 c 0
 762.63671875 595.313476562 595.040039062 731.546875 400 731.546875 c 0
 204.959960938 731.546875 37.36328125 595.313476562 37.36328125 361.069335938 c 0
30 361 m 0
 30 600 201 739 400 739 c 0
 599 739 770 600 770 361 c 0
 770 122 599 -10 400 -10 c 0
 201 -10 30 122 30 361 c 0
EndSplineSet
Validated: 524805
Substitution2: "'ss07' Style Set 7 in Latin lookup 6-1" Q.ss07
EndChar

StartChar: H
Encoding: 72 72 5
Width: 619
Flags: W
HStem: 0 21G<50 58 561 569> 371.504 8<56.4961 564.504> 711.008 20G<50 58 561 569>
VStem: 50 8<0 371.504 379.504 731.008> 561 8<0 731.008> 561 3.50391<371.504 379.504>
LayerCount: 2
Fore
SplineSet
564.50390625 371.50390625 m 5xf4
 56.49609375 371.50390625 l 5
 56.49609375 379.50390625 l 5
 564.50390625 379.50390625 l 5
 564.50390625 371.50390625 l 5xf4
561 0 m 1xf8
 561 731.0078125 l 1
 569 731.0078125 l 1
 569 0 l 1
 561 0 l 1xf8
50 0 m 1
 50 731.0078125 l 1
 58 731.0078125 l 1
 58 0 l 1
 50 0 l 1
EndSplineSet
Validated: 524293
EndChar

StartChar: J
Encoding: 74 74 6
Width: 237
Flags: W
HStem: 723.008 8<26.9922 184>
VStem: 179 8<-11.3377 731.008>
LayerCount: 2
Fore
SplineSet
184 723.0078125 m 1
 26.9921875 723.0078125 l 1
 26.9921875 731.0078125 l 1
 187 731.0078125 l 1
 184 723.0078125 l 1
179 29 m 6
 179 731.0078125 l 1
 187 731.0078125 l 1
 187 28 l 6
 187 -165 11 -179.994140625 11 -179.994140625 c 5
 10 -171.994140625 l 5
 10 -171.994140625 179 -156 179 29 c 6
EndSplineSet
Validated: 524805
Substitution2: "'ss05' Style Set 5 in Latin lookup 4-1" J.ss05
EndChar

StartChar: grave
Encoding: 96 96 7
Width: 98
Flags: W
HStem: 594 141.008
VStem: 5 88
LayerCount: 2
Fore
SplineSet
93 594 m 5
 88 591 l 5
 5 731.0078125 l 5
 13 735.0078125 l 5
 93 594 l 5
EndSplineSet
Validated: 524289
EndChar

StartChar: K
Encoding: 75 75 8
Width: 493
Flags: W
HStem: 0 21G<50 58 406.52 488> 716.008 15G<50 58 424.151 452>
VStem: 50 8<0 372.004 379.004 731.008>
LayerCount: 2
Fore
SplineSet
446 736.0078125 m 1
 452 729.0078125 l 1
 65 376 l 1
 213.658203125 304.018554688 346.026367188 204.291992188 488 0 c 1
 477 0 l 1
 336.0390625 201.639648438 200.982421875 302.01953125 55.99609375 372.00390625 c 1
 55.99609375 379.00390625 l 1
 446 736.0078125 l 1
50 0 m 1
 50 731.0078125 l 1
 58 731.0078125 l 1
 58 0 l 1
 50 0 l 1
EndSplineSet
Validated: 524805
Substitution2: "'ss05' Style Set 5 in Latin lookup 4-1" K.ss05
EndChar

StartChar: L
Encoding: 76 76 9
Width: 454
Flags: W
HStem: 0 8<58 439> 711.008 20G<50 58>
VStem: 50 8<8 731.008>
LayerCount: 2
Fore
SplineSet
58 8 m 5
 439 8 l 1
 439 0 l 1
 50 0 l 5
 50 731.0078125 l 1
 58 731.0078125 l 1
 58 8 l 5
EndSplineSet
Validated: 524289
EndChar

StartChar: N
Encoding: 78 78 10
Width: 619
Flags: W
HStem: 0 21G<50 58 546.962 569> 711.008 20G<50 72.0383 561 569>
VStem: 50 8<0 716.61> 561 8<14.3974 731.008>
LayerCount: 2
Back
SplineSet
58 731.0078125 m 5
 561 14.3973825832 l 5
 561 397 l 6
 561 591.303013724 552 731.0078125 552 731.0078125 c 5
 560 731.0078125 l 5
 560 731.0078125 569 584.76072365 569 400 c 6
 569 0 l 5
 561 0 l 5
 58 716.610429917 l 5
 58 298 l 6
 58 156.085082574 74 0 74 0 c 5
 66 0 l 5
 66 0 50 156.255180302 50 300 c 6
 50 729.0078125 l 5
 58 731.0078125 l 5
EndSplineSet
Fore
SplineSet
58 731.0078125 m 1
 561 14.3973825832 l 1
 561 731.0078125 l 1
 569 731.0078125 l 1
 569 0 l 1
 561 0 l 1
 58 716.610429917 l 1
 58 0 l 1
 50 0 l 1
 50 729.0078125 l 1
 58 731.0078125 l 1
EndSplineSet
Validated: 524801
Substitution2: "'ss06' Style Set 6 in Latin lookup 5-1" N.ss06
Substitution2: "'ss01' Style Set 1 in Latin lookup 0-1" N.ss01
EndChar

StartChar: E
Encoding: 69 69 11
Width: 464
Flags: W
HStem: 0 8<58 439> 371.504 8<56.4961 414.504> 723.008 8<58 439>
VStem: 50 8<8 371.504 379.504 723.008>
LayerCount: 2
Fore
SplineSet
414.50390625 371.50390625 m 5
 56.49609375 371.50390625 l 5
 56.49609375 379.50390625 l 5
 414.50390625 379.50390625 l 5
 414.50390625 371.50390625 l 5
58 723.0078125 m 5
 58 8 l 5
 439 8 l 5
 439 0 l 5
 50 0 l 5
 50 731.0078125 l 5
 439 731.0078125 l 5
 439 723.0078125 l 5
 58 723.0078125 l 5
EndSplineSet
Validated: 524805
Substitution2: "'ss04' Style Set 4 in Latin lookup 3-1" E.ss04
EndChar

StartChar: l
Encoding: 108 108 12
Width: 108
Flags: W
HStem: 0 21G<87 97> 741.002 20G<50 58>
VStem: 50 8<67.1492 761.002>
LayerCount: 2
Fore
SplineSet
87 0 m 5
 87 0 50 31 50 101 c 6
 50 761.001953125 l 5
 58 761.001953125 l 5
 58 102 l 6
 58 33 97 2 97 2 c 5
 87 0 l 5
EndSplineSet
Validated: 524801
Substitution2: "'ss05' Style Set 5 in Latin lookup 4-1" l.ss05
EndChar

StartChar: F
Encoding: 70 70 13
Width: 464
Flags: W
HStem: 0 21G<50 58> 371.504 8<56.4961 414.504> 723.008 8<58 439>
VStem: 50 8<0 371.504 379.504 723.008>
LayerCount: 2
Fore
SplineSet
414.50390625 371.50390625 m 1
 56.49609375 371.50390625 l 1
 56.49609375 379.50390625 l 1
 414.50390625 379.50390625 l 1
 414.50390625 371.50390625 l 1
58 0 m 1
 50 0 l 1
 50 731.0078125 l 1
 439 731.0078125 l 1
 439 723.0078125 l 1
 58 723.0078125 l 1
 58 0 l 1
EndSplineSet
Validated: 524805
Substitution2: "'ss04' Style Set 4 in Latin lookup 3-1" F.ss04
EndChar

StartChar: M
Encoding: 77 77 14
Width: 726
Flags: W
HStem: 0 21G<5 16.7633 709.237 721> 711.008 20G<106 124.023 602.048 620>
LayerCount: 2
Fore
SplineSet
721 0 m 5
 712 0 l 5
 613.129315672 715.596462087 l 5
 369 168 l 5
 359 168 l 5
 112.883558521 715.68964165 l 5
 14 0 l 5
 5 0 l 5
 106 730.0078125 l 5
 115 731.0078125 l 5
 363.980237154 179.126636611 l 5
 611 731.0078125 l 5
 620 730.0078125 l 5
 721 0 l 5
EndSplineSet
Validated: 524801
Substitution2: "'ss06' Style Set 6 in Latin lookup 5-1" M.ss06
Substitution2: "'ss01' Style Set 1 in Latin lookup 0-1" M.ss01
EndChar

StartChar: slash
Encoding: 47 47 15
Width: 350
Flags: W
LayerCount: 2
Fore
SplineSet
5 -184 m 1
 337 810 l 1
 345 807.0078125 l 1
 14 -184 l 1
 5 -184 l 1
EndSplineSet
Validated: 524289
EndChar

StartChar: D
Encoding: 68 68 16
Width: 675
Flags: W
HStem: -10 7.45312<137.867 319.052> 731.547 7.45312<126.131 313.118>
VStem: 50 8<7.34512 723.334> 637.637 7.36328<300.45 422.234>
LayerCount: 2
Fore
SplineSet
58 7.34511736896 m 5
 58 7.34511736896 147.018554688 -2.546875 255 -2.546875 c 4
 513.057617188 -2.546875 637.63671875 140.272460938 637.63671875 361.069335938 c 4
 637.63671875 583.766601562 510.961914062 731.546875 255 731.546875 c 4
 153.80078125 731.546875 58 723.333825662 58 723.333825662 c 5
 58 7.34511736896 l 5
50 731.0078125 m 5
 50 731.0078125 156.200195312 739 255 739 c 4
 515.275390625 739 645 588.096679688 645 361 c 4
 645 135.83984375 517.415039062 -10 255 -10 c 4
 146.200195312 -10 50 0 50 0 c 5
 50 731.0078125 l 5
EndSplineSet
Validated: 524289
EndChar

StartChar: P
Encoding: 80 80 17
Width: 525
Flags: W
HStem: 0 21G<50 58> 320 7.45312<104.023 251.186> 731.547 7.45312<116.534 295.093>
VStem: 50 8<0 723.614> 487.637 7.36328<502.255 581.782>
LayerCount: 2
Fore
SplineSet
104 315 m 5
 103 322.859375 l 5
 103 322.859375 134.924804688 323.250976562 215 327.453125 c 4
 416 338 487.63671875 430.272460938 487.63671875 541.069335938 c 4
 487.63671875 643.766601562 430.961914062 731.546875 235 731.546875 c 4
 133.80078125 731.546875 58 723.333825662 58 723.224609375 c 6
 58 0 l 5
 50 0 l 5
 50 731.0078125 l 5
 50 731.0078125 136.200195312 739 235 739 c 4
 435.275390625 739 495 648.096679688 495 541 c 4
 495 425.83984375 417.162109375 330.108398438 215 320 c 4
 135 316 104 315 104 315 c 5
EndSplineSet
Validated: 524289
EndChar

StartChar: A
Encoding: 65 65 18
Width: 589
Flags: W
HStem: 0 21G<5 21.3996 566.764 584> 265.504 8<110.496 468.504> 711.008 20G<268.586 291.235>
LayerCount: 2
Fore
SplineSet
468.50390625 265.50390625 m 1
 110.49609375 265.50390625 l 1
 110.49609375 273.50390625 l 1
 468.50390625 273.50390625 l 1
 468.50390625 265.50390625 l 1
584 0 m 5
 575 0 l 5
 279.490234375 717.583007812 l 5
 14 0 l 5
 5 0 l 5
 276 731.0078125 l 5
 283 731.0078125 l 5
 584 0 l 5
EndSplineSet
Validated: 524805
Substitution2: "'ss02' Style Set 2 in Latin lookup 1-1" A.ss02
Substitution2: "'ss01' Style Set 1 in Latin lookup 0-1" A.ss01
EndChar

StartChar: R
Encoding: 82 82 19
Width: 558
Flags: W
HStem: -10 8<480.655 534.135> 0 21G<50 58> 347 6<112.016 262.777> 731.547 7.45312<116.534 292.711>
VStem: 50 8<0 723.614> 467.637 7.36328<512.494 591.298>
LayerCount: 2
Fore
SplineSet
508 -10 m 4
 450.708984375 -10 411.873142637 26.0231313132 352.936523438 127.3125 c 4
 235 330 102 351 102 351 c 5
 103 358 l 5
 103 358 132 353 215 353 c 4
 390.848632812 353 467.63671875 440.272460938 467.63671875 551.069335938 c 4
 467.63671875 653.766601562 410.961914062 731.546875 235 731.546875 c 4
 133.80078125 731.546875 58 723.333825662 58 723.224609375 c 6
 58 0 l 5
 50 0 l 5
 50 731.0078125 l 5
 50 731.0078125 136.200195312 739 235 739 c 4
 415.275390625 739 475 658.096679688 475 551 c 4
 475 435.83984375 397.963867188 347 215 347 c 4
 135 347 121 351 121 351 c 5
 121 351 245.916311955 325.89277786 359.314453125 130.76953125 c 4
 419.41004116 27.3635483703 458.034179688 -2 509 -2 c 4
 540 -2 544 10 553 10 c 4
 556 10 558 8 558 5 c 4
 558 -5 536 -10 508 -10 c 4
EndSplineSet
Validated: 524805
Substitution2: "'ss05' Style Set 5 in Latin lookup 4-1" R.ss05
EndChar

StartChar: question
Encoding: 63 63 20
Width: 440
Flags: W
HStem: -9.99805 72.1904<143.869 208.69> 763.539 7.45312<153.38 244.335>
VStem: 140 8<247.477 295.447> 141 70.5586<-7.58487 59.6759> 403.53 7.45605<547.965 622.29>
LayerCount: 2
Fore
SplineSet
141 25.7666015625 m 0xd8
 141 48.3447265625 157.48046875 62.1923828125 176.279296875 62.1923828125 c 0
 195.078125 62.1923828125 211.55859375 48.3447265625 211.55859375 25.7666015625 c 0
 211.55859375 3.1884765625 195.078125 -9.998046875 176.279296875 -9.998046875 c 0
 157.48046875 -9.998046875 141 3.1884765625 141 25.7666015625 c 0xd8
148 272.274048319 m 4xe8
 148 218 192.5 206 192.5 193.599609375 c 0
 192.5 191.200195312 190.900390625 190.400390625 188.5 190.400390625 c 0
 181 190.400390625 140 217 140 273.739110787 c 0
 140 318 169.208984375 348.875976562 278.211914062 405.763671875 c 0
 325.875 430.638671875 403.530273438 480.994140625 403.530273438 584.240234375 c 0
 403.530273438 674.994140625 342.530273438 763.5390625 201.502011667 763.5390625 c 0
 112.67578125 763.5390625 38.5302734375 724.994140625 38.5302734375 724.994140625 c 1
 35 732.456054688 l 1
 35 732.456054688 107.233398438 770.9921875 198.297953939 770.9921875 c 0
 345.706054688 770.9921875 410.986328125 688.0703125 410.986328125 584.759765625 c 0
 410.986328125 480.078125 337.802734375 429.66015625 281.614716866 399.057864725 c 0
 196.396484375 352.64453125 148 325 148 272.274048319 c 4xe8
EndSplineSet
Validated: 524289
EndChar

StartChar: B
Encoding: 66 66 21
Width: 525
Flags: W
HStem: -10 7.45312<116.534 295.093> 376.141 7.85938<54 284.379> 731.547 7.45312<100.794 267.153>
VStem: 50 8<5.38639 723.806> 457.637 7.36328<521.864 596.338> 487.637 7.36328<148.744 219.814>
LayerCount: 2
Fore
SplineSet
283.430070343 379.888472163 m 5
 283.430070343 379.888472163 494.999999994 367.972368946 495 188 c 4
 495.000000003 80.9033203125 435.275390625 -10 235 -10 c 4
 136.200195312 -10 50 -2.0078125 50 -2.0078125 c 5
 50 731.0078125 l 5
 50 731.0078125 106.200195312 739 205 739 c 4
 385.275390625 739 465 668.096679688 465 561 c 4
 465 381.37952355 283.430070343 379.888472163 283.430070343 379.888472163 c 5
58 5.775390625 m 6
 58 5.666015625 133.80078125 -2.546875 235 -2.546875 c 4
 430.961914062 -2.546875 487.63671875 85.2333984375 487.63671875 187.930664062 c 4
 487.63671875 298.727539062 400 376.140625 214 376.140625 c 6
 54 376.140625 l 5
 54 384 l 5
 228 384 l 6
 390 384 457.63671875 450.272460938 457.63671875 561.069335938 c 4
 457.63671875 663.766601562 380.961914062 731.546875 205 731.546875 c 4
 103.80078125 731.546875 58 723.330503439 58 723.224609375 c 6
 58 5.775390625 l 6
EndSplineSet
Validated: 524293
EndChar

StartChar: S
Encoding: 83 83 22
Width: 490
Flags: W
HStem: -9.99805 7.45312<196.115 293.59> 731.547 7.44531<204.443 319.152>
VStem: 37.4033 7<552.341 609.846> 452.53 7.45605<127.243 196.766>
LayerCount: 2
Fore
SplineSet
434.530273438 695 m 5
 434.530273438 695 373.369140625 731.546875 261.717058665 731.546875 c 4
 94.9365234375 731.546875 44.4033203125 650 44.4033203125 580.730537132 c 4
 44.4033203125 500 113.041992188 443.569335938 338.14056919 333.127727803 c 4
 373.782226562 315.640625 459.986328125 273.916015625 459.986328125 164.495371179 c 4
 459.986328125 62.923828125 385.706054688 -9.998046875 244.739851897 -9.998046875 c 4
 126.233398438 -9.998046875 35 41.5380859375 35 41.5380859375 c 5
 38.5302734375 49 l 5
 38.5302734375 49 131.67578125 -2.544921875 248.419026657 -2.544921875 c 4
 392.530273438 -2.544921875 452.530273438 76 452.530273438 162.458966723 c 4
 452.530273438 270 359.702148438 313.536132812 311.11703975 337.204183273 c 4
 88.2451171875 445.775390625 37.4033203125 506 37.4033203125 580.692581612 c 4
 37.4033203125 656.5390625 89.828125 738.9921875 264.200477931 738.9921875 c 4
 381.141601562 738.9921875 437.853515625 701.908203125 437.853515625 701.908203125 c 5
 434.530273438 695 l 5
EndSplineSet
Validated: 524801
Substitution2: "'ss08' Style Set 8 in Latin lookup 7-1" S.ss08
EndChar

StartChar: T
Encoding: 84 84 23
Width: 558
Flags: W
HStem: 0 21G<275 283> 723.008 8<25 533.008> 723.008 5<275 283>
VStem: 275 8<0 728.008>
LayerCount: 2
Fore
SplineSet
275 0 m 5xb0
 275 728.0078125 l 5
 283 728.0078125 l 5
 283 0 l 5
 275 0 l 5xb0
533.0078125 723.0078125 m 5xd0
 25 723.0078125 l 5
 25 731.0078125 l 5
 533.0078125 731.0078125 l 5
 533.0078125 723.0078125 l 5xd0
EndSplineSet
Validated: 524293
EndChar

StartChar: V
Encoding: 86 86 24
Width: 589
Flags: W
HStem: 0 21G<297.798 320.384> 717.008 20G<5 20.2232 569.607 584>
LayerCount: 2
Fore
SplineSet
5 734.0078125 m 1
 12 737.0078125 l 1
 309.509765625 13.4248046875 l 1
 577 737.0078125 l 5
 584 734.0078125 l 1
 313 0 l 1
 306 0 l 1
 5 734.0078125 l 1
EndSplineSet
Validated: 524289
EndChar

StartChar: C
Encoding: 67 67 25
Width: 674
Flags: W
HStem: -10 7.45312<325.93 451.509> 731.547 7.45312<325.93 429.852>
VStem: 30 7.36328<307.528 414.662>
LayerCount: 2
Fore
SplineSet
37.36328125 361.069335938 m 4
 37.36328125 126.825195312 184.959960938 -2.546875 380 -2.546875 c 4
 545.497137897 -2.546875 629 47.1279296875 629 47.1279296875 c 5
 632 38.7158203125 l 5
 632 38.7158203125 544.568525885 -10 380 -10 c 4
 181 -10 30 122 30 361 c 4
 30 600 181 739 380 739 c 4
 572.568525885 739 638 600.517578125 638 600.517578125 c 5
 632 597.021484375 l 5
 632 597.021484375 564.497137897 731.546875 380 731.546875 c 4
 184.959960938 731.546875 37.36328125 595.313476562 37.36328125 361.069335938 c 4
EndSplineSet
Validated: 524801
Substitution2: "'ss04' Style Set 4 in Latin lookup 3-1" C.ss04
EndChar

StartChar: W
Encoding: 87 87 26
Width: 808
Flags: W
HStem: 0 21G<200.523 225.681 582.248 607.477> 716.008 20G<5 17.5139 790.486 803>
LayerCount: 2
Fore
SplineSet
5 734.0078125 m 1
 12 736.0078125 l 1
 212.87109375 7.4111328125 l 1
 398 560.0078125 l 1
 408 560.0078125 l 1
 595.116210938 7.318359375 l 5
 796 736.0078125 l 1
 803 734.0078125 l 1
 602 0 l 5
 589 0 l 5
 403.01953125 550.880859375 l 1
 219 0 l 1
 206 0 l 1
 5 734.0078125 l 1
EndSplineSet
Validated: 524801
Substitution2: "'ss01' Style Set 1 in Latin lookup 0-1" W.ss01
EndChar

StartChar: G
Encoding: 71 71 27
Width: 759
Flags: W
HStem: -10 7.45312<325.93 426.112> 0 21G<624 632> 320 8<445.992 734> 320 2.72363<624 632> 731.547 7.45312<325.93 437.554>
VStem: 30 7.36328<307.528 414.662> 624 8<0 322.724>
LayerCount: 2
Fore
SplineSet
734 320 m 1xee
 445.9921875 320 l 1
 445.9921875 328 l 1
 734 328 l 1
 734 320 l 1xee
624 0 m 1
 624 322.723632812 l 1
 632 322.723632812 l 1xde
 632 0 l 1
 624 0 l 1
37.36328125 361.069335938 m 0
 37.36328125 126.825195312 184.959960938 -2.546875 380 -2.546875 c 0
 550.72262277 -2.546875 625 119 625 119 c 5
 630 113 l 5
 630 113 555.568525885 -10 380 -10 c 0
 181 -10 30 122 30 361 c 0
 30 600 181 739 380 739 c 0
 572.568525885 739 638 641.517578125 638 641.517578125 c 1
 632 637.021484375 l 1
 632 637.021484375 564.497137897 731.546875 380 731.546875 c 0
 184.959960938 731.546875 37.36328125 595.313476562 37.36328125 361.069335938 c 0
EndSplineSet
Validated: 524293
EndChar

StartChar: X
Encoding: 88 88 28
Width: 564
Flags: W
HStem: 0 21G<5 32.1175 531.883 559> 716.008 20G<30 52.1575 511.843 534>
LayerCount: 2
Fore
SplineSet
559 0 m 1
 546 0 l 1
 279.179322211 378 l 1
 30 731.0078125 l 1
 38 736.0078125 l 1
 285.053179633 387 l 5
 559 0 l 1
5 0 m 1
 278.946820367 387 l 1
 526 736.0078125 l 1
 534 731.0078125 l 1
 284.820677789 378 l 1
 18 0 l 1
 5 0 l 1
EndSplineSet
Validated: 524293
EndChar

StartChar: period
Encoding: 46 46 29
Width: 130
Flags: W
HStem: -9.99805 72.1904<32.8688 97.6898>
VStem: 30 70.5586<-7.58487 59.6759>
LayerCount: 2
Fore
SplineSet
30 25.7666015625 m 4
 30 48.3447265625 46.48046875 62.1923828125 65.2802734375 62.1923828125 c 4
 84.078125 62.1923828125 100.55859375 48.3447265625 100.55859375 25.7666015625 c 4
 100.55859375 3.1884765625 84.078125 -9.998046875 65.2802734375 -9.998046875 c 4
 46.48046875 -9.998046875 30 3.1884765625 30 25.7666015625 c 4
EndSplineSet
Validated: 524289
EndChar

StartChar: w
Encoding: 119 119 30
Width: 639
Flags: W
HStem: 0 21G<164.141 185.069 463.522 484.446> 467.008 20G<5 18.8485 620.574 634>
LayerCount: 2
Fore
SplineSet
5 484.0078125 m 1
 12 487.0078125 l 1
 174.509765625 12.4248046875 l 1
 316.17578125 411.344726562 l 1
 324.37890625 411.48046875 l 1
 474.509765625 12.4248046875 l 5
 627 487.0078125 l 1
 634 484.0078125 l 1
 478 0 l 5
 471 0 l 5
 320.379882812 402.8125 l 1
 178 0 l 1
 171 0 l 1
 5 484.0078125 l 1
EndSplineSet
Validated: 524801
Substitution2: "'ss01' Style Set 1 in Latin lookup 0-1" w.ss01
EndChar

StartChar: i
Encoding: 105 105 31
Width: 169
Flags: W
HStem: 0.00292969 21G<111 119> 473.011 8<10 111> 585.077 72.1904<72.5885 137.41>
VStem: 69.7197 70.5586<587.49 654.751> 111 8<0.00292969 473.011>
LayerCount: 2
Fore
SplineSet
69.7197265625 620.841796875 m 4xf0
 69.7197265625 643.419921875 86.2001953125 657.267578125 105 657.267578125 c 4
 123.797851562 657.267578125 140.278320312 643.419921875 140.278320312 620.841796875 c 4
 140.278320312 598.263671875 123.797851562 585.077148438 105 585.077148438 c 4
 86.2001953125 585.077148438 69.7197265625 598.263671875 69.7197265625 620.841796875 c 4xf0
119 481.010742188 m 1xe8
 119 0.0029296875 l 1
 111 0.0029296875 l 1
 111 473.010742188 l 1
 10 473.010742188 l 1
 10 481.010742188 l 1
 119 481.010742188 l 1xe8
EndSplineSet
Validated: 524801
Substitution2: "'ss05' Style Set 5 in Latin lookup 4-1" i.ss05
EndChar

StartChar: Y
Encoding: 89 89 32
Width: 534
Flags: W
HStem: 0 21G<263 271> 291.671 7.33691<264.882 269.118> 716.008 20G<5 22.7784 511.222 529>
VStem: 263 8<0 299.008>
LayerCount: 2
Fore
SplineSet
263 0 m 1
 263 299.0078125 l 1
 271 299.0078125 l 1
 271 0 l 1
 263 0 l 1
269.118164062 291.670898438 m 1
 264.881835938 291.670898438 l 1
 5 731.0078125 l 1
 11 736.0078125 l 1
 267 301.313476562 l 1
 523 736.0078125 l 5
 529 731.0078125 l 1
 269.118164062 291.670898438 l 1
EndSplineSet
Validated: 524805
Substitution2: "'ss01' Style Set 1 in Latin lookup 0-1" Y.ss01
EndChar

StartChar: Z
Encoding: 90 90 33
Width: 510
Flags: W
HStem: 0 8<24 494> 723.008 8<26 486>
LayerCount: 2
Fore
SplineSet
486 723.0078125 m 5
 26 723.0078125 l 5
 26 731.0078125 l 5
 493 731.0078125 l 5
 495 723.0078125 l 5
 24 8 l 5
 494 8 l 5
 494 0 l 5
 17 0 l 5
 15 8 l 5
 486 723.0078125 l 5
EndSplineSet
Validated: 524289
EndChar

StartChar: o
Encoding: 111 111 34
Width: 560
Flags: W
HStem: -10 7.45312<235.333 324.667> 483.48 7.45312<235.333 324.667>
VStem: 30 7.36328<192.343 283.907> 522.637 7.36328<192.343 283.907>
LayerCount: 2
Fore
SplineSet
37.36328125 238.069335938 m 4
 37.36328125 83.0626672134 141.883235178 -2.546875 280 -2.546875 c 4
 418.116764822 -2.546875 522.63671875 83.0626672134 522.63671875 238.069335938 c 4
 522.63671875 393.236961081 418.116764822 483.48046875 280 483.48046875 c 4
 141.883235178 483.48046875 37.36328125 393.236961081 37.36328125 238.069335938 c 4
30 238 m 4
 30 397.923621445 137.857142857 490.93359375 280 490.93359375 c 4
 422.142857143 490.93359375 530 397.923621445 530 238 c 4
 530 78.2371967655 422.142857143 -10 280 -10 c 4
 137.857142857 -10 30 78.2371967655 30 238 c 4
EndSplineSet
Validated: 524289
EndChar

StartChar: j
Encoding: 106 106 35
Width: 169
Flags: W
HStem: 473.011 8<10 111> 585.077 72.1904<72.5885 137.41>
VStem: 69.7197 70.5586<587.49 654.751> 111 8<-24.468 473.011>
LayerCount: 2
Fore
SplineSet
119 14.0029296875 m 6xd0
 119 -134.997070312 -7 -149.991210938 -7 -149.991210938 c 5
 -8 -141.991210938 l 5
 -8 -141.991210938 111 -125.997070312 111 16.0029296875 c 6
 111 473.010742188 l 1
 10 473.010742188 l 1
 10 481.010742188 l 1
 119 481.010742188 l 1
 119 14.0029296875 l 6xd0
69.7197265625 620.841796875 m 0xe0
 69.7197265625 643.419921875 86.2001953125 657.267578125 105 657.267578125 c 0
 123.797851562 657.267578125 140.278320312 643.419921875 140.278320312 620.841796875 c 0
 140.278320312 598.263671875 123.797851562 585.077148438 105 585.077148438 c 0
 86.2001953125 585.077148438 69.7197265625 598.263671875 69.7197265625 620.841796875 c 0xe0
EndSplineSet
Validated: 524801
Substitution2: "'ss05' Style Set 5 in Latin lookup 4-1" j.ss05
EndChar

StartChar: n
Encoding: 110 110 36
Width: 470
Flags: W
HStem: 0 21G<64 72 412 420> 483.48 7.45312<266.833 328.029>
VStem: 64 8<0 424.327> 412 8<0 374.931>
LayerCount: 2
Fore
SplineSet
420 325 m 6
 420 0 l 5
 412 0 l 5
 412 322 l 6
 412 437 373.1171875 483.48046875 295 483.48046875 c 4
 173.8828125 483.48046875 69 318 69 318 c 5
 67 329 l 5
 67 329 172.857421875 490.93359375 295 490.93359375 c 4
 377.142578125 490.93359375 420 442 420 325 c 6
64 0 m 5
 64 387 l 6
 64 451 35 483.0078125 35 483.0078125 c 5
 42 488.0078125 l 5
 42 488.0078125 72 451.60546875 72 390 c 6
 72 0 l 5
 64 0 l 5
EndSplineSet
Validated: 524805
Substitution2: "'ss01' Style Set 1 in Latin lookup 0-1" n.ss01
EndChar

StartChar: m
Encoding: 109 109 37
Width: 740
Flags: W
HStem: 0 21G<64 72 372 380 682 690> 483.48 7.45312<231.511 288.029 541.511 598.029>
VStem: 64 8<0 424.327> 372 8<0 374.931> 682 8<0 374.931>
LayerCount: 2
Back
SplineSet
730 325 m 6
 730 0 l 5
 622 0 l 5
 622 302 l 6
 622 357 613.1171875 393.48046875 575 393.48046875 c 4
 473.8828125 393.48046875 419 278 419 278 c 5
 407 369 l 5
 407 369 472.857421875 490.93359375 605 490.93359375 c 4
 687.142578125 490.93359375 730 442 730 325 c 6
420 325 m 6
 420 0 l 5
 312 0 l 5
 312 302 l 6
 312 357 303.1171875 393.48046875 265 393.48046875 c 4
 163.8828125 393.48046875 109 278 109 278 c 5
 97 369 l 5
 97 369 172.857421875 490.93359375 295 490.93359375 c 4
 377.142578125 490.93359375 420 442 420 325 c 6
4 0 m 5
 4 357 l 6
 4 421 -25 453.0078125 -25 453.0078125 c 5
 82 488.0078125 l 5
 82 488.0078125 112 451.60546875 112 390 c 6
 112 0 l 5
 4 0 l 5
EndSplineSet
Fore
SplineSet
690 325 m 6
 690 0 l 5
 682 0 l 5
 682 322 l 6
 682 437 643.1171875 483.48046875 565 483.48046875 c 4
 463.8828125 483.48046875 379 318 379 318 c 5
 377 329 l 5
 377 329 462.857421875 490.93359375 565 490.93359375 c 4
 647.142578125 490.93359375 690 442 690 325 c 6
380 325 m 6
 380 0 l 5
 372 0 l 5
 372 322 l 6
 372 437 333.1171875 483.48046875 255 483.48046875 c 4
 153.8828125 483.48046875 69 318 69 318 c 5
 67 329 l 5
 67 329 152.857421875 490.93359375 255 490.93359375 c 4
 337.142578125 490.93359375 380 442 380 325 c 6
64 0 m 5
 64 387 l 6
 64 451 35 483.0078125 35 483.0078125 c 5
 42 488.0078125 l 5
 42 488.0078125 72 451.60546875 72 390 c 6
 72 0 l 5
 64 0 l 5
EndSplineSet
Validated: 524805
Substitution2: "'ss01' Style Set 1 in Latin lookup 0-1" m.ss01
EndChar

StartChar: p
Encoding: 112 112 38
Width: 545
Flags: W
HStem: -9.99805 7.45312<243.52 326.389> 483.48 7.45312<278.519 347.582>
VStem: 64 8<-179.994 418.887> 507 8<185.023 284.246>
LayerCount: 2
Fore
SplineSet
507 230.935546875 m 0
 507 400 413.1171875 483.48046875 315 483.48046875 c 0
 153.8828125 483.48046875 69 318 69 318 c 1
 67 329 l 1
 67 329 152.857421875 490.93359375 315 490.93359375 c 0
 417.142578125 490.93359375 515 406 515 230.935546875 c 0
 515 84.1591796875 417.142578125 -9.998046875 285 -9.998046875 c 0
 152.857421875 -9.998046875 67 81.935546875 67 81.935546875 c 1
 69 92.935546875 l 1
 69 92.935546875 153.8828125 -2.544921875 285 -2.544921875 c 0
 413.1171875 -2.544921875 507 85.5537109375 507 230.935546875 c 0
64 -179.994140625 m 5
 64 387 l 2
 64 437.218394442 35 483.0078125 35 483.0078125 c 1
 42 488.0078125 l 1
 42 488.0078125 72 438.492977012 72 390 c 2
 72 -179.994140625 l 5
 64 -179.994140625 l 5
EndSplineSet
Validated: 524293
EndChar

StartChar: q
Encoding: 113 113 39
Width: 532
Flags: W
HStem: -9.99805 7.45312<197.418 266.481> 483.48 7.45312<218.611 320.212>
VStem: 30 8<196.69 295.913> 474 8<-179.994 430.871>
LayerCount: 2
Fore
SplineSet
38 250 m 4
 38 80.935546875 131.8828125 -2.544921875 230 -2.544921875 c 4
 391.1171875 -2.544921875 476 162.935546875 476 162.935546875 c 5
 478 151.935546875 l 5
 478 151.935546875 392.142578125 -9.998046875 230 -9.998046875 c 4
 127.857421875 -9.998046875 30 74.935546875 30 250 c 4
 30 396.776367188 127.857421875 490.93359375 260 490.93359375 c 4
 410.142578125 490.93359375 482 434.935546875 482 434.935546875 c 5
 482 -179.994140625 l 5
 474 -179.994140625 l 5
 474 430.87109375 l 5
 474 430.87109375 402.84375 483.48046875 260 483.48046875 c 4
 131.8828125 483.48046875 38 395.381835938 38 250 c 4
EndSplineSet
Validated: 524805
Substitution2: "'ss07' Style Set 7 in Latin lookup 6-1" q.ss07
Substitution2: "'ss03' Style Set 3 in Latin lookup 2-1" q.ss03
EndChar

StartChar: r
Encoding: 114 114 40
Width: 355
Flags: W
HStem: 0 21G<64 72> 483.48 7.45312<247.18 303.392>
VStem: 64 8<0 424.327>
LayerCount: 2
Fore
SplineSet
355 446 m 0
 355 443.600585938 353.19921875 441.80078125 350.19921875 441.80078125 c 0
 337.599609375 441.80078125 347 483.48046875 275 483.48046875 c 0
 153.8828125 483.48046875 69 318 69 318 c 1
 67 329 l 1
 67 329 152.857421875 490.93359375 275 490.93359375 c 0
 332.142578125 490.93359375 355 455.600585938 355 446 c 0
64 0 m 1
 64 387 l 2
 64 451 35 483.0078125 35 483.0078125 c 1
 42 488.0078125 l 1
 42 488.0078125 72 451.60546875 72 390 c 2
 72 0 l 1
 64 0 l 1
EndSplineSet
Validated: 524293
EndChar

StartChar: a
Encoding: 97 97 41
Width: 495
Flags: W
HStem: -9.99805 7.45312<162.045 242.946> 283.48 7.45312<176.362 276.257> 483.488 7.44531<199.182 299.701>
VStem: 30 8<113.989 181.423> 423 8<59.3986 386.288>
LayerCount: 2
Fore
SplineSet
431 352 m 26
 431 96.0078125 l 2
 431 34 460 0 460 0 c 1
 453 -5 l 1
 453 -5 423 32 423 93.0078125 c 2
 423 350 l 26
 423 423 380.966796875 483.48828125 251.873046875 483.48828125 c 0
 152.021484375 483.48828125 73.873046875 446.94140625 73.873046875 446.94140625 c 1
 70.5498046875 453.849609375 l 1
 70.5498046875 453.849609375 145.405273438 490.93359375 251.873046875 490.93359375 c 0
 386.095703125 490.93359375 431 428 431 352 c 26
38 149 m 0
 38 59.935546875 101.8828125 -2.544921875 200 -2.544921875 c 0
 361.1171875 -2.544921875 426 132.935546875 426 132.935546875 c 1
 428 121.935546875 l 1
 428 121.935546875 362.142578125 -9.998046875 200 -9.998046875 c 0
 97.857421875 -9.998046875 30 53.935546875 30 149 c 0
 30 235.776367188 97.857421875 290.93359375 230 290.93359375 c 0
 362.142578125 290.93359375 428 219 428 219 c 1
 426 211 l 1
 426 211 361.1171875 283.48046875 230 283.48046875 c 0
 101.8828125 283.48046875 38 234.381835938 38 149 c 0
EndSplineSet
Validated: 524805
Substitution2: "'ss03' Style Set 3 in Latin lookup 2-1" a.ss03
EndChar

StartChar: h
Encoding: 104 104 42
Width: 456
Flags: W
HStem: 0 21G<50 58 398 406> 483.48 7.45312<252.833 314.029> 741.002 20G<50 58>
VStem: 50 8<0 761> 398 8<0 374.931>
LayerCount: 2
Fore
SplineSet
406 325 m 2
 406 0 l 1
 398 0 l 1
 398 322 l 2
 398 437 359.1171875 483.48046875 281 483.48046875 c 0
 159.8828125 483.48046875 55 318 55 318 c 1
 53 329 l 1
 53 329 158.857421875 490.93359375 281 490.93359375 c 0
 363.142578125 490.93359375 406 442 406 325 c 2
50 761 m 5
 58 761.001953125 l 1
 58 0 l 1
 50 0 l 1
 50 761 l 5
EndSplineSet
Validated: 524293
EndChar

StartChar: e
Encoding: 101 101 43
Width: 505
Flags: W
HStem: -10 7.45312<227.146 331.737> 227 8<33 144.948> 483.48 7.45312<221.346 299.303>
LayerCount: 2
Fore
SplineSet
37.36328125 231.069335938 m 4
 37.36328125 87.0146484375 137.575562602 -2.546875 270 -2.546875 c 4
 388.971838086 -2.546875 459 37.1279296875 459 37.1279296875 c 5
 462 28.7158203125 l 5
 462 28.7158203125 388.855046473 -10 270 -10 c 4
 133.542857143 -10 30 82.1884765625 30 231 c 4
 30 401.671875 127.54296875 490.93359375 264 490.93359375 c 4
 467.321289062 490.93359375 480 267.451171875 480 267.451171875 c 5
 479 258.451171875 l 5
 479 258.451171875 257 231 33 227 c 13
 32 235 l 21
 254 239 470.982421875 266.081054688 470.982421875 266.081054688 c 5
 470.982421875 266.081054688 460.298828125 483.48046875 264 483.48046875 c 4
 131.575195312 483.48046875 37.36328125 396.985351562 37.36328125 231.069335938 c 4
EndSplineSet
Validated: 524805
Substitution2: "'ss04' Style Set 4 in Latin lookup 3-1" e.ss04
EndChar

StartChar: hyphen
Encoding: 45 45 44
Width: 299
Flags: W
HStem: 193 38.0078
VStem: 16 268.008
LayerCount: 2
Fore
SplineSet
284.0078125 223 m 1
 16 193 l 1
 15 201.0078125 l 1
 283.0078125 231.0078125 l 1
 284.0078125 223 l 1
EndSplineSet
Validated: 524289
EndChar

StartChar: d
Encoding: 100 100 45
Width: 545
Flags: W
HStem: -9.99805 7.45312<197.418 266.481> 483.48 7.45312<218.611 301.48> 741.008 20G<473 481>
VStem: 30 8<196.69 295.913> 473 8<60.0776 761.008>
LayerCount: 2
Fore
SplineSet
481 761.0078125 m 5
 481 96.0078125 l 6
 481 35.6953125 510 0 510 0 c 5
 503 -5 l 5
 503 -5 473 34.91015625 473 93.0078125 c 6
 473 761.0078125 l 5
 481 761.0078125 l 5
38 250 m 4
 38 80.935546875 131.8828125 -2.544921875 230 -2.544921875 c 4
 391.1171875 -2.544921875 476 162.935546875 476 162.935546875 c 5
 478 151.935546875 l 5
 478 151.935546875 392.142578125 -9.998046875 230 -9.998046875 c 4
 127.857421875 -9.998046875 30 74.935546875 30 250 c 4
 30 396.776367188 127.857421875 490.93359375 260 490.93359375 c 4
 392.142578125 490.93359375 478 399 478 399 c 5
 476 388 l 5
 476 388 391.1171875 483.48046875 260 483.48046875 c 4
 131.8828125 483.48046875 38 395.381835938 38 250 c 4
EndSplineSet
Validated: 524293
EndChar

StartChar: b
Encoding: 98 98 46
Width: 532
Flags: W
HStem: -9.99805 7.45312<211.788 313.389> 483.48 7.45312<265.519 334.582> 741.002 20G<50 58>
VStem: 50 8<50.0642 761.002> 494 8<185.023 284.246>
LayerCount: 2
Fore
SplineSet
494 230.935546875 m 4
 494 400 400.1171875 483.48046875 302 483.48046875 c 4
 140.8828125 483.48046875 56 318 56 318 c 5
 54 329 l 5
 54 329 139.857421875 490.93359375 302 490.93359375 c 4
 404.142578125 490.93359375 502 406 502 230.935546875 c 4
 502 84.1591796875 404.142578125 -9.998046875 272 -9.998046875 c 4
 121.857421875 -9.998046875 50 46 50 46 c 5
 50 761.001953125 l 5
 58 761.001953125 l 5
 58 50.06415465 l 5
 58 50.06415465 129.156175356 -2.544921875 272 -2.544921875 c 4
 400.1171875 -2.544921875 494 85.5537109375 494 230.935546875 c 4
EndSplineSet
Validated: 524293
EndChar

StartChar: u
Encoding: 117 117 47
Width: 470
Flags: W
HStem: -10 7.45312<141.971 203.167> 460.934 20G<50 58 398 406>
VStem: 50 8<106.002 480.934> 398 8<56.6062 480.934>
LayerCount: 2
Fore
SplineSet
50 155.93359375 m 6
 50 480.93359375 l 5
 58 480.93359375 l 5
 58 158.93359375 l 6
 58 43.93359375 96.8828125 -2.546875 175 -2.546875 c 4
 296.1171875 -2.546875 401 162.93359375 401 162.93359375 c 5
 403 151.93359375 l 5
 403 151.93359375 297.142578125 -10 175 -10 c 4
 92.857421875 -10 50 38.93359375 50 155.93359375 c 6
406 480.93359375 m 5
 406 93.93359375 l 6
 406 29.93359375 435 -2.07421875 435 -2.07421875 c 5
 428 -7.07421875 l 5
 428 -7.07421875 398 29.328125 398 90.93359375 c 6
 398 480.93359375 l 5
 406 480.93359375 l 5
EndSplineSet
Validated: 524805
Substitution2: "'ss01' Style Set 1 in Latin lookup 0-1" u.ss01
EndChar

StartChar: s
Encoding: 115 115 48
Width: 424
Flags: W
HStem: -9.99805 7.45312<174.515 274.316> 483.488 7.44531<165.149 265.674>
VStem: 35.873 7<349.174 397.391> 387.53 7.45605<82.3843 136.649>
LayerCount: 2
Fore
SplineSet
363 446.94140625 m 1
 363 446.94140625 314.851874169 483.48828125 215.211025833 483.48828125 c 0
 85.9060325856 483.48828125 42.873046875 425.94140625 42.873046875 372.575195312 c 4
 42.873046875 326.107421875 75.5 290.099609375 201.969123641 257.579156251 c 0
 352 219 394.986328125 174.708007812 394.986328125 109.799123259 c 0
 394.986328125 29.923828125 329.89142136 -9.998046875 225.270243612 -9.998046875 c 0
 113.534477263 -9.998046875 35 35.5380859375 35 35.5380859375 c 1
 38.5302734375 43 l 1
 38.5302734375 43 118.494813163 -2.544921875 226.45313736 -2.544921875 c 0
 334.411461556 -2.544921875 387.530273438 43 387.530273438 109.961656198 c 0
 387.530273438 171.431640625 342.766964212 211.760188879 202.335207149 249.195831639 c 0
 61.2060546875 286.817382812 35.873046875 326.249023438 35.873046875 371.815429688 c 4
 35.873046875 432.48046875 80.7773281813 490.93359375 216.71649309 490.93359375 c 0
 321.468102747 490.93359375 366.323242188 453.849609375 366.323242188 453.849609375 c 1
 363 446.94140625 l 1
EndSplineSet
Validated: 524801
Substitution2: "'ss08' Style Set 8 in Latin lookup 7-1" s.ss08
EndChar

StartChar: zero
Encoding: 48 48 49
Width: 560
Flags: W
HStem: -10 7.45312<235.333 324.667> 543.48 7.45312<238.483 321.517>
VStem: 30 7.36328<216.726 319.436> 522.637 7.36328<216.726 319.436>
LayerCount: 2
Fore
SplineSet
37.36328125 268.069335938 m 4
 37.36328125 93.7364545547 141.883235178 -2.546875 280 -2.546875 c 0
 418.116764822 -2.546875 522.63671875 93.7364545547 522.63671875 268.069335938 c 4
 522.63671875 442.205247894 418.116764822 543.48046875 280 543.48046875 c 0
 141.883235178 543.48046875 37.36328125 442.205247894 37.36328125 268.069335938 c 4
30 268 m 4
 30 446.891875413 137.857142857 550.93359375 280 550.93359375 c 0
 422.142857143 550.93359375 530 446.891875413 530 268 c 4
 530 88.9110512129 422.142857143 -10 280 -10 c 0
 137.857142857 -10 30 88.9110512129 30 268 c 4
EndSplineSet
Validated: 524289
EndChar

StartChar: two
Encoding: 50 50 50
Width: 423
Flags: W
HStem: 0 8.45312<42.9863 393.986> 543.488 7.44531<158.323 251.742>
VStem: 30 7.98633<4.2356 95.551> 377.113 8<389.668 447.831>
LayerCount: 2
Fore
SplineSet
37.986328125 497.94140625 m 1
 33.6630859375 504.849609375 l 1
 33.6630859375 504.849609375 99.5185546875 550.93359375 205.986328125 550.93359375 c 0
 340.208984375 550.93359375 385.11328125 480.48046875 385.11328125 419 c 0
 385.11328125 364.249023438 356.362990681 299.627895351 205.094726562 235.58203125 c 4
 69.2177734375 178.052734375 37.986328125 128.431640625 37.986328125 60 c 0
 37.986328125 20 42.986328125 8.453125 42.986328125 8.453125 c 1
 393.986328125 8.453125 l 1
 393.986328125 0 l 1
 35.986328125 0 l 1
 35.986328125 0 30 12.923828125 30 60 c 0
 30 137.708007812 68.986328125 186 201.749023438 243.138671875 c 0
 338.073242188 301.809570312 377.11328125 362.107421875 377.11328125 419 c 0
 377.11328125 471.94140625 338.080078125 543.48828125 205.986328125 543.48828125 c 0
 106.134765625 543.48828125 37.986328125 497.94140625 37.986328125 497.94140625 c 1
EndSplineSet
Validated: 524289
EndChar

StartChar: seven
Encoding: 55 55 51
Width: 469
Flags: W
HStem: 533.011 8<52.4111 435>
VStem: 161 8<-179.991 -133.335> 435 7.33496<486.233 533.011>
LayerCount: 2
Fore
SplineSet
437 541.010742188 m 1
 442.334960938 535 l 1
 442.334960938 271 169 72 169 -179.991210938 c 1
 161 -179.994140625 l 1
 161 79 435 279 435 533.010742188 c 5
 52.4111328125 533.010742188 l 1
 23 390.002929688 l 1
 15 390.002929688 l 1
 45 541.010742188 l 1
 437 541.010742188 l 1
EndSplineSet
Validated: 524289
EndChar

StartChar: eight
Encoding: 56 56 52
Width: 490
Flags: W
HStem: -9.99805 7.45312<202.478 293.679> 763.547 7.44531<198.668 295.234>
VStem: 17 8<140.959 206.106> 42.4033 7<580 641.59> 454 6<562.615 623.394> 459.53 7.45605<133.366 199.413>
LayerCount: 2
Fore
SplineSet
282 378 m 5xf8
 282 378 454 460 454 591 c 0xf8
 454 695 376 763.546875 248.530273438 763.546875 c 0
 96.9365234375 763.546875 49.4033203125 682 49.4033203125 610 c 0
 49.4033203125 532 110.233398438 463.641601562 237.331054688 405.465820312 c 4
 377.8515625 341.146484375 466.986328125 287.916015625 466.986328125 159.651367188 c 0
 466.986328125 76.923828125 385.706054688 -9.998046875 250.530273438 -9.998046875 c 0
 94.8207187387 -9.998046875 17 75.2939453125 17 173 c 0
 17 319 200.575195312 418.719726562 200.575195312 418.719726562 c 5
 206 414 l 5
 206 414 25 317 25 173 c 0
 25 85.8564453125 95.6744441659 -2.544921875 250.530273438 -2.544921875 c 0
 392.530273438 -2.544921875 459.530273438 90 459.530273438 162 c 0xf4
 459.530273438 284 366.052734375 337.397460938 232.959960938 398.056640625 c 4
 92.6787109375 461.9921875 42.4033203125 538 42.4033203125 609 c 0
 42.4033203125 688.5390625 91.828125 770.9921875 248.530273438 770.9921875 c 0
 384 770.9921875 460 699 460 588 c 0
 460 457 289 375 289 375 c 5
 282 378 l 5xf8
EndSplineSet
Validated: 524293
EndChar

StartChar: c
Encoding: 99 99 53
Width: 493
Flags: W
HStem: -10 7.45312<227.146 321.526> 483.48 7.45312<227.146 306.169>
VStem: 30 7.36328<188.236 279.75>
LayerCount: 2
Fore
SplineSet
37.36328125 231.069335938 m 4
 37.36328125 87.0146484375 137.575562602 -2.546875 270 -2.546875 c 4
 388.971838086 -2.546875 449 47.1279296875 449 47.1279296875 c 5
 452 38.7158203125 l 5
 452 38.7158203125 388.855046473 -10 270 -10 c 4
 133.542857143 -10 30 82.1884765625 30 231 c 4
 30 401.671875 133.542857143 490.93359375 270 490.93359375 c 4
 410.32125142 490.93359375 458 372.451171875 458 372.451171875 c 5
 452 368.955078125 l 5
 452 368.955078125 403.247932925 483.48046875 270 483.48046875 c 4
 137.575562602 483.48046875 37.36328125 396.985351562 37.36328125 231.069335938 c 4
EndSplineSet
Validated: 524801
Substitution2: "'ss04' Style Set 4 in Latin lookup 3-1" c.ss04
EndChar

StartChar: g
Encoding: 103 103 54
Width: 532
Flags: W
HStem: -189.994 7.45312<211.237 321.745> -9.99805 7.45312<197.418 266.481> 483.48 7.45312<218.611 320.212>
VStem: 30 8<196.69 295.913> 474 8<-24.2324 430.871>
LayerCount: 2
Fore
SplineSet
474 20 m 6
 474 430.87109375 l 1
 474 430.87109375 402.84375 483.48046875 260 483.48046875 c 0
 131.8828125 483.48046875 38 395.381835938 38 250 c 0
 38 80.935546875 131.8828125 -2.544921875 230 -2.544921875 c 0
 391.1171875 -2.544921875 476 162.935546875 476 162.935546875 c 1
 478 151.935546875 l 1
 478 151.935546875 392.142578125 -9.998046875 230 -9.998046875 c 0
 127.857421875 -9.998046875 30 74.935546875 30 250 c 0
 30 396.776367188 127.857421875 490.93359375 260 490.93359375 c 0
 410.142578125 490.93359375 482 434.935546875 482 434.935546875 c 1
 482 18 l 6
 482 -130.811523438 387.45703125 -189.994140625 281 -189.994140625 c 4
 162.14453125 -189.994140625 99 -161.278320312 99 -161.278320312 c 5
 102 -152.866210938 l 5
 102 -152.866210938 162.028320312 -182.541015625 281 -182.541015625 c 4
 383.424804688 -182.541015625 474 -124.0546875 474 20 c 6
EndSplineSet
Validated: 524293
EndChar

StartChar: y
Encoding: 121 121 56
Width: 409
Flags: W
HStem: 467.008 20G<5 20.195 389.117 404>
LayerCount: 2
Fore
SplineSet
208.509765625 7.4248046875 m 1
 206 -4 l 1
 5 484.0078125 l 1
 12 487.0078125 l 1
 208.509765625 7.4248046875 l 1
113 -174 m 1
 113 -174 149.285570162 -140.924856274 191.80859375 -33.56640625 c 2
 397 487.0078125 l 1
 404 484.0078125 l 1
 196.103515625 -40.8740234375 l 2
 151.320571316 -153.938725318 117 -179.994140625 117 -179.994140625 c 1
 113 -174 l 1
EndSplineSet
Validated: 524293
EndChar

StartChar: k
Encoding: 107 107 57
Width: 395
Flags: W
HStem: 0 21G<50 58 323 390> 467.011 20G<324.845 358> 741.002 20G<50 58>
VStem: 50 8<0 262.004 269.004 761.002>
LayerCount: 2
Fore
SplineSet
352 487.010742188 m 5
 358 480.010742188 l 5
 65 266 l 5
 175 199 278 130 390 0 c 5
 377 0 l 5
 269 125 171 193 55.99609375 262.00390625 c 5
 55.99609375 269.00390625 l 5
 352 487.010742188 l 5
50 761.001953125 m 5
 58 761.001953125 l 5
 58 0 l 5
 50 0 l 5
 50 761.001953125 l 5
EndSplineSet
Validated: 524805
Substitution2: "'ss05' Style Set 5 in Latin lookup 4-1" k.ss05
EndChar

StartChar: t
Encoding: 116 116 58
Width: 297
Flags: W
HStem: -10 8<149.487 205.081> 473.011 8<15 282>
VStem: 117.493 8<26.6949 607>
LayerCount: 2
Fore
SplineSet
282 473.010742188 m 1
 15 473.010742188 l 1
 15 481.010742188 l 1
 282 481.010742188 l 1
 282 473.010742188 l 1
170 -10 m 0
 131 -10 117.493164062 12 117.493164062 63 c 2
 117.493164062 607 l 1
 121.493164062 607 125.461914062 608 125.461914062 608 c 1
 125.493164062 63 l 2
 125.49597364 14.0009764996 138 -2 173 -2 c 0
 222 -2 289 30 289 30 c 1
 292 22 l 1
 292 22 222 -10 170 -10 c 0
EndSplineSet
Validated: 524293
EndChar

StartChar: f
Encoding: 102 102 59
Width: 308
Flags: W
HStem: 0 21G<116 124> 473.011 8<15 282> 739.002 21G<288 293> 763.002 8<182.451 244.626>
VStem: 116 8<0 698.962>
LayerCount: 2
Fore
SplineSet
282 473.010742188 m 5
 15 473.010742188 l 5
 15 481.010742188 l 5
 282 481.010742188 l 5
 282 473.010742188 l 5
212 771.001953125 m 4
 263 771.001953125 293 746.001953125 293 746.001953125 c 5
 288 739.001953125 l 5
 288 739.001953125 262 763.001953125 212 763.001953125 c 4
 155 763.001953125 124 731.001953125 124 662.001953125 c 6
 124 0 l 5
 116 0 l 5
 116 663.001953125 l 6
 116 733.001953125 149 771.001953125 212 771.001953125 c 4
EndSplineSet
Validated: 524293
EndChar

StartChar: v
Encoding: 118 118 60
Width: 409
Flags: W
HStem: 0 21G<197.694 220.892> 467.008 20G<5 20.3411 389.082 404>
LayerCount: 2
Fore
SplineSet
5 484.0078125 m 5
 12 487.0078125 l 5
 209.509765625 13.4248046875 l 5
 397 487.0078125 l 5
 404 484.0078125 l 5
 213 0 l 5
 206 0 l 5
 5 484.0078125 l 5
EndSplineSet
Validated: 524289
EndChar

StartChar: x
Encoding: 120 120 61
Width: 404
Flags: W
HStem: 0 21G<5 32.8023 371.198 399> 466.008 20G<30 52.8557 351.144 374>
LayerCount: 2
Fore
SplineSet
399 0 m 1
 386 0 l 1
 198.751482077 253 l 1
 30 481.0078125 l 1
 38 486.0078125 l 1
 205.132746066 261 l 1
 399 0 l 1
5 0 m 1
 198.867253934 261 l 1
 366 486.0078125 l 1
 374 481.0078125 l 1
 205.248517923 253 l 5
 18 0 l 1
 5 0 l 1
EndSplineSet
Validated: 524293
EndChar

StartChar: z
Encoding: 122 122 62
Width: 400
Flags: W
HStem: 0 8<24 384> 473.011 8<26 376>
LayerCount: 2
Fore
SplineSet
376 473.010742188 m 5
 26 473.010742188 l 5
 26 481.010742188 l 5
 383 481.010742188 l 5
 385 473.010742188 l 5
 24 8 l 5
 384 8 l 5
 384 0 l 5
 17 0 l 5
 15 8 l 5
 376 473.010742188 l 5
EndSplineSet
Validated: 524289
EndChar

StartChar: colon
Encoding: 58 58 63
Width: 130
Flags: W
HStem: -9.99805 72.1904<32.8688 97.6898> 298.743 72.1904<32.8688 97.6898>
VStem: 30 70.5586<-7.58487 59.6759 301.156 368.417>
LayerCount: 2
Fore
SplineSet
30 334.5078125 m 4
 30 357.0859375 46.48046875 370.93359375 65.2802734375 370.93359375 c 4
 84.078125 370.93359375 100.55859375 357.0859375 100.55859375 334.5078125 c 4
 100.55859375 311.9296875 84.078125 298.743164062 65.2802734375 298.743164062 c 4
 46.48046875 298.743164062 30 311.9296875 30 334.5078125 c 4
30 25.7666015625 m 0
 30 48.3447265625 46.48046875 62.1923828125 65.2802734375 62.1923828125 c 0
 84.078125 62.1923828125 100.55859375 48.3447265625 100.55859375 25.7666015625 c 0
 100.55859375 3.1884765625 84.078125 -9.998046875 65.2802734375 -9.998046875 c 0
 46.48046875 -9.998046875 30 3.1884765625 30 25.7666015625 c 0
EndSplineSet
Validated: 524289
EndChar

StartChar: acute
Encoding: 180 180 64
Width: 98
Flags: W
HStem: 594 141.008
VStem: 5 88
LayerCount: 2
Fore
SplineSet
5 594 m 1
 85 735.0078125 l 1
 93 731.0078125 l 1
 10 591 l 5
 5 594 l 1
EndSplineSet
Validated: 524289
EndChar

StartChar: quotesingle
Encoding: 39 39 65
Width: 90
Flags: W
HStem: 570 201.002<42 49>
VStem: 22 47<574.363 770.917> 42 7<570 633.48>
LayerCount: 2
Fore
SplineSet
42 570 m 5xa0
 42 664 22 698 22 740 c 4
 22 758 27 771 45 771.001953125 c 28
 63 771 69 758 69 740 c 4xc0
 69 698 49 664 49 570 c 5
 42 570 l 5xa0
EndSplineSet
Validated: 1
EndChar

StartChar: macron
Encoding: 175 175 66
Width: 270
Flags: W
HStem: 723.008 8<25 245.008>
VStem: 25 220.008<723.008 731.008>
LayerCount: 2
Fore
SplineSet
245.0078125 723.0078125 m 5
 25 723.0078125 l 5
 25 731.0078125 l 5
 245.0078125 731.0078125 l 5
 245.0078125 723.0078125 l 5
EndSplineSet
Validated: 524289
EndChar

StartChar: comma
Encoding: 44 44 67
Width: 130
Flags: W
HStem: -70 132.192
VStem: 54 46<-31.6371 42.7213>
LayerCount: 2
Fore
SplineSet
30 25.7666015625 m 0
 30 48.3447265625 46.48046875 62.1923828125 65.2802734375 62.1923828125 c 0
 84.078125 62.1923828125 100 48.3447265625 100 25.7666015625 c 0
 100 -41 26 -70 26 -70 c 1
 21 -63 l 0
 21 -63 54 -47 54 -24 c 4
 54 -3 30 -3 30 25.7666015625 c 0
EndSplineSet
Validated: 524289
EndChar

StartChar: semicolon
Encoding: 59 59 68
Width: 130
Flags: W
HStem: 298.743 72.1904<32.8688 97.6898>
VStem: 30 70<-12.7192 59.6759 301.156 368.417> 54 46<-31.6371 42.7213>
LayerCount: 2
Fore
SplineSet
30 25.7666015625 m 4xc0
 30 48.3447265625 46.48046875 62.1923828125 65.2802734375 62.1923828125 c 4
 84.078125 62.1923828125 100 48.3447265625 100 25.7666015625 c 4xc0
 100 -41 26 -70 26 -70 c 5
 21 -63 l 4
 21 -63 54 -47 54 -24 c 4xa0
 54 -3 30 -3 30 25.7666015625 c 4xc0
30 334.5078125 m 0
 30 357.0859375 46.48046875 370.93359375 65.2802734375 370.93359375 c 0
 84.078125 370.93359375 100.55859375 357.0859375 100.55859375 334.5078125 c 0
 100.55859375 311.9296875 84.078125 298.743164062 65.2802734375 298.743164062 c 0
 46.48046875 298.743164062 30 311.9296875 30 334.5078125 c 0
EndSplineSet
Validated: 524289
EndChar

StartChar: exclam
Encoding: 33 33 69
Width: 130
Flags: W
HStem: -9.99805 72.1904<32.8688 97.6898>
VStem: 30 70.5586<-7.58487 59.6759> 42 47<532.151 770.917> 62 7<190 358.88>
LayerCount: 2
Fore
SplineSet
30 25.7666015625 m 0xc0
 30 48.3447265625 46.48046875 62.1923828125 65.2802734375 62.1923828125 c 0
 84.078125 62.1923828125 100.55859375 48.3447265625 100.55859375 25.7666015625 c 0
 100.55859375 3.1884765625 84.078125 -9.998046875 65.2802734375 -9.998046875 c 0
 46.48046875 -9.998046875 30 3.1884765625 30 25.7666015625 c 0xc0
62 190 m 5x90
 62 644 42 698 42 740 c 0
 42 758 47 771 65 771.001953125 c 24
 83 771 89 758 89 740 c 0xa0
 89 698 69 644 69 190 c 5
 62 190 l 5x90
EndSplineSet
Validated: 524289
EndChar

StartChar: plus
Encoding: 43 43 70
Width: 300
Flags: W
HStem: 273.008 8<25 275.008>
VStem: 146.004 8<152.004 402.012>
LayerCount: 2
Fore
SplineSet
154.00390625 402.01171875 m 1
 154.00390625 152.00390625 l 1
 146.00390625 152.00390625 l 1
 146.00390625 402.01171875 l 1
 154.00390625 402.01171875 l 1
275.0078125 273.0078125 m 5
 25 273.0078125 l 5
 25 281.0078125 l 5
 275.0078125 281.0078125 l 5
 275.0078125 273.0078125 l 5
EndSplineSet
Validated: 524293
EndChar

StartChar: underscore
Encoding: 95 95 71
Width: 500
Flags: W
HStem: -8 8<25 475.008>
LayerCount: 2
Fore
SplineSet
475.0078125 -8 m 5
 25 -8 l 5
 25 0 l 5
 475.0078125 0 l 5
 475.0078125 -8 l 5
EndSplineSet
Validated: 524289
EndChar

StartChar: three
Encoding: 51 51 72
Width: 439
Flags: W
HStem: 543.488 7.44531<139.66 233.101>
VStem: 359.45 7<382.328 437.519> 402.337 7.45605<-9.9379 52.8202>
LayerCount: 2
Fore
SplineSet
210.336914062 228 m 5
 324.991210938 190.443359375 409.79296875 125 409.79296875 20.6494140625 c 4
 409.79296875 -79 320.747865358 -142.572582433 206.336914062 -164 c 4
 108.829101562 -182.26171875 32.3369140625 -184 32.3369140625 -184 c 5
 31.3369140625 -176 l 5
 31.3369140625 -176 106.077148438 -175.497070312 206.336914062 -156.546875 c 4
 320.336914062 -135 402.336914062 -72 402.336914062 20 c 4
 402.336914062 122 318.991210938 186.443359375 201.991210938 222.443359375 c 5
 210.336914062 228 l 5
99.3369140625 167 m 1
 95.9912109375 174.556640625 l 1
 252.315429688 243.227539062 359.450195312 304.107421875 359.450195312 411 c 0
 359.450195312 463.94140625 319.416992188 543.48828125 187.323242188 543.48828125 c 0
 87.4716796875 543.48828125 19.3232421875 497.94140625 19.3232421875 497.94140625 c 1
 15 504.849609375 l 1
 15 504.849609375 80.85546875 550.93359375 187.323242188 550.93359375 c 0
 321.545898438 550.93359375 366.450195312 472.48046875 366.450195312 411 c 0
 366.450195312 306.249023438 270.440429688 241.43359375 99.3369140625 167 c 1
EndSplineSet
Validated: 524293
EndChar

StartChar: four
Encoding: 52 52 73
Width: 540
Flags: W
HStem: 0 8<32.8963 515.008> 522.002 20G<221 229>
VStem: 221 8<468.378 542.002> 375 8<-179.994 320.227> 379 4<234.39 322.011>
LayerCount: 2
Fore
SplineSet
375 -179.994140625 m 1xf0
 375 206 l 1xf0
 378.29296875 242.999023438 379 284 379 322.010742188 c 1
 383 322.010742188 l 1xe8
 383 -179.994140625 l 1
 375 -179.994140625 l 1xf0
221 542.001953125 m 5
 229 542.001953125 l 5
 229 315.991210938 144 166 32.8962585741 8 c 1
 515.0078125 8 l 1
 515.0078125 0 l 1
 29 0 l 1
 25 8 l 1
 134 166 221 307.991210938 221 542.001953125 c 5
EndSplineSet
Validated: 524293
EndChar

StartChar: five
Encoding: 53 53 74
Width: 424
Flags: W
HStem: 240 8<70.0239 196.971> 533.011 8<77.665 331.424>
VStem: 387.337 7.45605<20.6819 85.5327>
LayerCount: 2
Fore
SplineSet
267 541.010742188 m 2
 338 541.010742188 372 553.010742188 372 553.010742188 c 1
 374 545.010742188 l 1
 374 545.010742188 341 533.010742188 268 533.010742188 c 2
 77.6650390625 533.010742188 l 1
 36.3115234375 239.4609375 l 1
 36.3115234375 239.4609375 84 248 138 248 c 0
 337.551757812 248 394.79296875 139.958984375 394.79296875 51.6494140625 c 0
 394.79296875 -48 305.466916815 -122.641708088 191.336914062 -154 c 0
 95.443359375 -180.34765625 17.3369140625 -184 17.3369140625 -184 c 1
 16.3369140625 -176 l 1
 16.3369140625 -176 92.998046875 -173.759765625 191.336914062 -146.546875 c 0
 305.336914062 -115 387.336914062 -41 387.336914062 51 c 0
 387.336914062 143.311523438 326.897460938 240 138 240 c 4
 66.1044921875 240 34 230 34 230 c 5
 28 233 l 1
 70 541.010742188 l 1
 267 541.010742188 l 2
EndSplineSet
Validated: 524289
EndChar

StartChar: six
Encoding: 54 54 75
Width: 525
Flags: W
HStem: -10 7.45312<224.323 320.872> 411.547 7.45312<178.063 296.695> 741.002 20G<290 296>
VStem: 30 8<182.23 286.349> 487.637 7.36328<162.172 243.856>
LayerCount: 2
Fore
SplineSet
120 403.859375 m 1
 120 403.859375 161 419 244 419 c 0
 416.415039062 419 495 320.16015625 495 205 c 0
 495 105.903320312 442.275390625 -10 275 -10 c 0
 113.200195312 -10 30 84 30 229 c 0
 30 542 290 761.001953125 290 761.001953125 c 5
 296 755.001953125 l 5
 296 755.001953125 38 539.904296875 38 229 c 0
 38 97 109 -2.546875 275 -2.546875 c 0
 430.961914063 -2.546875 487.63671875 102.233398438 487.63671875 204.930664062 c 0
 487.63671875 315.727539062 413.276367188 411.546875 244 411.546875 c 0
 164 411.546875 122 397 122 397 c 1
 120 403.859375 l 1
EndSplineSet
Validated: 524289
EndChar

StartChar: nine
Encoding: 57 57 76
Width: 525
Flags: W
HStem: 121.934 7.45312<228.305 346.937> 543.48 7.45312<204.128 300.677>
VStem: 30 7.36328<297.077 378.761> 487 8<255.147 358.703>
LayerCount: 2
Fore
SplineSet
405 137.07421875 m 1
 405 137.07421875 364 121.93359375 281 121.93359375 c 0
 108.584960938 121.93359375 30 220.7734375 30 335.93359375 c 0
 30 435.030273438 82.724609375 550.93359375 250 550.93359375 c 0
 411.799804688 550.93359375 495 456.93359375 495 311.93359375 c 0
 495 -1.06640625 175 -170 175 -170 c 5
 169 -164 l 5
 169 -164 487 1.029296875 487 311.93359375 c 0
 487 443.93359375 416 543.48046875 250 543.48046875 c 0
 94.0380859375 543.48046875 37.36328125 438.700195312 37.36328125 336.002929688 c 0
 37.36328125 225.206054688 111.723632812 129.38671875 281 129.38671875 c 0
 361 129.38671875 403 143.93359375 403 143.93359375 c 1
 405 137.07421875 l 1
EndSplineSet
Validated: 524289
EndChar

StartChar: quotedbl
Encoding: 34 34 77
Width: 190
Flags: W
HStem: 570 201.002<42 49 142 149>
VStem: 22 47<574.363 770.917> 42 7<570 633.48> 122 47<574.363 770.917> 142 7<570 633.48>
LayerCount: 2
Fore
SplineSet
142 570 m 5x88
 142 664 122 698 122 740 c 4
 122 758 127 771 145 771.001953125 c 28
 163 771 169 758 169 740 c 4x90
 169 698 149 664 149 570 c 5
 142 570 l 5x88
42 570 m 1xa0
 42 664 22 698 22 740 c 0
 22 758 27 771 45 771.001953125 c 24
 63 771 69 758 69 740 c 0xc0
 69 698 49 664 49 570 c 1
 42 570 l 1xa0
EndSplineSet
Validated: 1
EndChar

StartChar: equal
Encoding: 61 61 78
Width: 300
Flags: W
HStem: 193.008 8<25 275.008> 353.008 8<25 275.008>
VStem: 25 250.008<193.008 201.008 353.008 361.008>
LayerCount: 2
Fore
SplineSet
275.0078125 193.0078125 m 1
 25 193.0078125 l 1
 25 201.0078125 l 1
 275.0078125 201.0078125 l 1
 275.0078125 193.0078125 l 1
275.0078125 353.0078125 m 5
 25 353.0078125 l 5
 25 361.0078125 l 5
 275.0078125 361.0078125 l 5
 275.0078125 353.0078125 l 5
EndSplineSet
Validated: 524289
EndChar

StartChar: less
Encoding: 60 60 79
Width: 260
Flags: W
HStem: 173.008 208
VStem: 5 250.008
LayerCount: 2
Fore
SplineSet
17.5 277.0078125 m 5
 255.0078125 181.0078125 l 5
 252.0078125 173.0078125 l 5
 5 273.0078125 l 5
 5 281.0078125 l 5
 252.0078125 381.0078125 l 5
 255.0078125 373.0078125 l 5
 17.5 277.0078125 l 5
EndSplineSet
Validated: 524289
EndChar

StartChar: greater
Encoding: 62 62 80
Width: 260
Flags: W
HStem: 173.008 208
VStem: 5 250.008
LayerCount: 2
Fore
SplineSet
242.5078125 277.0078125 m 5
 5 373.0078125 l 5
 8 381.0078125 l 5
 255.0078125 281.0078125 l 5
 255.0078125 273.0078125 l 5
 8 173.0078125 l 5
 5 181.0078125 l 5
 242.5078125 277.0078125 l 5
EndSplineSet
Validated: 524289
EndChar

StartChar: dieresis
Encoding: 168 168 81
Width: 300
Flags: W
HStem: 673.81 72.1904<32.8688 97.6898 202.869 267.69>
VStem: 30 70.5586<676.223 743.484> 200 70.5586<676.223 743.484>
LayerCount: 2
Fore
SplineSet
200 709.57421875 m 4
 200 732.15234375 216.48046875 746 235.280273438 746 c 4
 254.078125 746 270.55859375 732.15234375 270.55859375 709.57421875 c 4
 270.55859375 686.99609375 254.078125 673.809570312 235.280273438 673.809570312 c 4
 216.48046875 673.809570312 200 686.99609375 200 709.57421875 c 4
30 709.57421875 m 0
 30 732.15234375 46.48046875 746 65.2802734375 746 c 0
 84.078125 746 100.55859375 732.15234375 100.55859375 709.57421875 c 0
 100.55859375 686.99609375 84.078125 673.809570312 65.2802734375 673.809570312 c 0
 46.48046875 673.809570312 30 686.99609375 30 709.57421875 c 0
EndSplineSet
Validated: 524289
EndChar

StartChar: periodcentered
Encoding: 183 183 82
Width: 130
Flags: W
HStem: 418.743 72.1904<32.8688 97.6898>
VStem: 30 70.5586<421.156 488.417>
LayerCount: 2
Fore
SplineSet
30 454.5078125 m 4
 30 477.0859375 46.48046875 490.93359375 65.2802734375 490.93359375 c 4
 84.078125 490.93359375 100.55859375 477.0859375 100.55859375 454.5078125 c 4
 100.55859375 431.9296875 84.078125 418.743164062 65.2802734375 418.743164062 c 4
 46.48046875 418.743164062 30 431.9296875 30 454.5078125 c 4
EndSplineSet
Validated: 524289
EndChar

StartChar: dotlessi
Encoding: 305 305 83
Width: 169
Flags: W
HStem: 0.00292969 21G<111 119> 473.011 8<10 111>
VStem: 111 8<0.00292969 473.011>
LayerCount: 2
Fore
SplineSet
119 481.010742188 m 1
 119 0.0029296875 l 1
 111 0.0029296875 l 1
 111 473.010742188 l 1
 10 473.010742188 l 1
 10 481.010742188 l 1
 119 481.010742188 l 1
EndSplineSet
Validated: 524289
EndChar

StartChar: uni0237
Encoding: 567 567 84
Width: 169
Flags: W
HStem: 473.011 8<10 111>
VStem: 111 8<-24.468 473.011>
LayerCount: 2
Fore
SplineSet
119 14.0029296875 m 6
 119 -134.997070312 -7 -149.991210938 -7 -149.991210938 c 5
 -8 -141.991210938 l 5
 -8 -141.991210938 111 -125.997070312 111 16.0029296875 c 6
 111 473.010742188 l 5
 10 473.010742188 l 5
 10 481.010742188 l 5
 119 481.010742188 l 5
 119 14.0029296875 l 6
EndSplineSet
Validated: 524289
EndChar

StartChar: dotaccent
Encoding: 729 729 85
Width: 128
Flags: W
HStem: 673.81 72.1904<32.8688 97.6898>
VStem: 30 70.5586<676.223 743.484>
LayerCount: 2
Fore
SplineSet
30 709.57421875 m 0
 30 732.15234375 46.48046875 746 65.2802734375 746 c 0
 84.078125 746 100.55859375 732.15234375 100.55859375 709.57421875 c 0
 100.55859375 686.99609375 84.078125 673.809570312 65.2802734375 673.809570312 c 0
 46.48046875 673.809570312 30 686.99609375 30 709.57421875 c 0
EndSplineSet
Validated: 524289
EndChar

StartChar: smileface
Encoding: 9786 9786 86
Width: 820
Flags: W
HStem: -10 7.45312<355.189 464.811> 192.309 7.89844<377.785 442.97> 238.477 5.24023<200.495 258.704 561.296 619.505> 254.831 107.196<153.669 247.287 504.152 597.769> 542.171 25.9893<172.96 257.857 523.444 608.34> 579.275 5.23926<200.495 258.704 561.296 619.505> 731.547 7.45312<355.189 464.811>
VStem: 30 7.36328<307.528 414.662> 60.6406 5.04785<380.612 439.274> 81.6348 25.7969<395.337 476.386> 291.18 96.7012<405.547 493.787> 393.512 5.04785<380.612 439.274> 421.44 5.04785<380.612 439.274> 432.119 25.7949<395.337 476.386> 641.663 96.7021<405.547 493.787> 754.312 5.04785<380.612 439.274> 782.637 7.36328<307.528 414.662>
LayerCount: 2
Back
SplineSet
115.431640625 417.825195312 m 0
 115.431640625 376.369140625 143.763671875 342.02734375 192.720703125 342.02734375 c 0
 256.26171875 342.02734375 299.1796875 396.565429688 299.1796875 448.119140625 c 0
 299.1796875 486.108398438 270.846679688 522.170898438 221.891601562 522.170898438 c 0
 158.349609375 522.170898438 115.431640625 465.912109375 115.431640625 417.825195312 c 0
89.634765625 390.061523438 m 0
 89.634765625 488.055664062 161.165039062 548.16015625 242.758789062 548.16015625 c 0
 324.350585938 548.16015625 395.880859375 488.055664062 395.880859375 390.061523438 c 0
 395.880859375 292.06640625 324.350585938 234.831054688 242.758789062 234.831054688 c 0
 161.165039062 234.831054688 89.634765625 292.06640625 89.634765625 390.061523438 c 0
73.6884765625 389.927734375 m 0
 73.6884765625 282.853515625 148.446289062 223.716796875 237.599609375 223.716796875 c 0
 326.75390625 223.716796875 401.51171875 282.853515625 401.51171875 389.927734375 c 0
 401.51171875 497.001953125 326.75390625 559.275390625 237.599609375 559.275390625 c 0
 148.446289062 559.275390625 73.6884765625 497.001953125 73.6884765625 389.927734375 c 0
68.640625 389.87890625 m 0
 68.640625 500.296875 145.662109375 564.514648438 237.599609375 564.514648438 c 0
 329.538085938 564.514648438 406.559570312 500.296875 406.559570312 389.87890625 c 0
 406.559570312 279.4609375 329.538085938 218.4765625 237.599609375 218.4765625 c 0
 145.662109375 218.4765625 68.640625 279.4609375 68.640625 389.87890625 c 0
440.098632812 382.256835938 m 1
 528.063476562 376.794921875 653.8515625 354.98046875 732.94921875 323.508789062 c 1
 729.83203125 316.073242188 l 1
 646.0859375 349.874023438 525.54296875 371.590820312 437.234375 376.8671875 c 0
 434.303710938 377.04296875 433.028320312 378.366210938 432.784179688 380.3515625 c 24
 432.540039062 382.3359375 433.817382812 383.71875 435.266601562 384.686523438 c 0
 511.368164062 435.484375 617.893554688 484.110351562 705.59765625 521.65234375 c 1
 708.557617188 513.955078125 l 1
 628.3046875 481.041992188 510.59375 429.23828125 440.098632812 382.256835938 c 1
445.280273438 191.436523438 m 4
 499 191.436523438 518.549804688 245.204101562 518.549804688 245.204101562 c 1
 524 243 l 1
 524 243 504 184.59765625 446.2421875 184.59765625 c 0
 418.999023438 184.59765625 404 193 404 193 c 1
 406.059570312 198.126953125 l 1
 406.059570312 198.126953125 421.0234375 191.436523438 445.280273438 191.436523438 c 4
37.36328125 361.069335938 m 0
 37.36328125 126.825195312 214.959960938 -2.546875 410 -2.546875 c 0
 605.040039062 -2.546875 782.63671875 126.825195312 782.63671875 361.069335938 c 0
 782.63671875 595.313476562 605.040039062 731.546875 410 731.546875 c 0
 214.959960938 731.546875 37.36328125 595.313476562 37.36328125 361.069335938 c 0
30 361 m 0
 30 600 211 739 410 739 c 0
 609 739 790 600 790 361 c 0
 790 122 609 -10 410 -10 c 0
 211 -10 30 122 30 361 c 0
EndSplineSet
Fore
SplineSet
457.9140625 437.825195312 m 4
 457.9140625 396.369140625 486.247070312 362.02734375 535.202148438 362.02734375 c 4
 598.743164062 362.02734375 641.663085938 416.565429688 641.663085938 468.119140625 c 4
 641.663085938 506.108398438 613.330078125 542.170898438 564.375 542.170898438 c 4
 500.833007812 542.170898438 457.9140625 485.912109375 457.9140625 437.825195312 c 4
107.431640625 437.825195312 m 4
 107.431640625 396.369140625 135.763671875 362.02734375 184.720703125 362.02734375 c 4
 248.26171875 362.02734375 291.1796875 416.565429688 291.1796875 468.119140625 c 4
 291.1796875 506.108398438 262.846679688 542.170898438 213.891601562 542.170898438 c 4
 150.349609375 542.170898438 107.431640625 485.912109375 107.431640625 437.825195312 c 4
410.516601562 200.20703125 m 4
 464.256835938 200.20703125 485.31640625 226.106445312 485.31640625 226.106445312 c 5
 489.099609375 220.3984375 l 5
 489.099609375 220.3984375 467.243164062 192.30859375 410.516601562 192.30859375 c 4
 353.2734375 192.30859375 331.416992188 220.3984375 331.416992188 220.3984375 c 5
 335.200195312 226.106445312 l 5
 335.200195312 226.106445312 356.259765625 200.20703125 410.516601562 200.20703125 c 4
738.365234375 410.061523438 m 4
 738.365234375 312.06640625 666.834960938 254.831054688 585.241210938 254.831054688 c 4
 503.649414062 254.831054688 432.119140625 312.06640625 432.119140625 410.061523438 c 4
 432.119140625 508.055664062 503.649414062 568.16015625 585.241210938 568.16015625 c 4
 666.834960938 568.16015625 738.365234375 508.055664062 738.365234375 410.061523438 c 4
81.634765625 410.061523438 m 4
 81.634765625 508.055664062 153.165039062 568.16015625 234.758789062 568.16015625 c 4
 316.350585938 568.16015625 387.880859375 508.055664062 387.880859375 410.061523438 c 4
 387.880859375 312.06640625 316.350585938 254.831054688 234.758789062 254.831054688 c 4
 153.165039062 254.831054688 81.634765625 312.06640625 81.634765625 410.061523438 c 4
754.311523438 409.927734375 m 4
 754.311523438 517.001953125 679.553710938 579.275390625 590.400390625 579.275390625 c 4
 501.24609375 579.275390625 426.48828125 517.001953125 426.48828125 409.927734375 c 4
 426.48828125 302.853515625 501.24609375 243.716796875 590.400390625 243.716796875 c 4
 679.553710938 243.716796875 754.311523438 302.853515625 754.311523438 409.927734375 c 4
759.359375 409.87890625 m 4
 759.359375 299.4609375 682.337890625 238.4765625 590.400390625 238.4765625 c 4
 498.461914062 238.4765625 421.440429688 299.4609375 421.440429688 409.87890625 c 4
 421.440429688 520.296875 498.461914062 584.514648438 590.400390625 584.514648438 c 4
 682.337890625 584.514648438 759.359375 520.296875 759.359375 409.87890625 c 4
65.6884765625 409.927734375 m 4
 65.6884765625 302.853515625 140.446289062 243.716796875 229.599609375 243.716796875 c 4
 318.75390625 243.716796875 393.51171875 302.853515625 393.51171875 409.927734375 c 4
 393.51171875 517.001953125 318.75390625 579.275390625 229.599609375 579.275390625 c 4
 140.446289062 579.275390625 65.6884765625 517.001953125 65.6884765625 409.927734375 c 4
60.640625 409.87890625 m 4
 60.640625 520.296875 137.662109375 584.514648438 229.599609375 584.514648438 c 4
 321.538085938 584.514648438 398.559570312 520.296875 398.559570312 409.87890625 c 4
 398.559570312 299.4609375 321.538085938 238.4765625 229.599609375 238.4765625 c 4
 137.662109375 238.4765625 60.640625 299.4609375 60.640625 409.87890625 c 4
37.36328125 361.069335938 m 4
 37.36328125 126.825195312 214.959960938 -2.546875 410 -2.546875 c 4
 605.040039062 -2.546875 782.63671875 126.825195312 782.63671875 361.069335938 c 4
 782.63671875 595.313476562 605.040039062 731.546875 410 731.546875 c 4
 214.959960938 731.546875 37.36328125 595.313476562 37.36328125 361.069335938 c 4
30 361 m 4
 30 600 211 739 410 739 c 4
 609 739 790 600 790 361 c 4
 790 122 609 -10 410 -10 c 4
 211 -10 30 122 30 361 c 4
EndSplineSet
Validated: 524289
EndChar

StartChar: invsmileface
Encoding: 9787 9787 87
Width: 820
Flags: W
HStem: -10 202.309<341.898 478.368> 243.717 11.1143<193.45 273.01 546.99 626.55> 362.027 180.144<150.218 248.393 500.701 598.876> 568.16 11.1152<193.45 273.01 546.99 626.55> 584.515 154.485<174.331 645.669>
VStem: 30 30.6406<335.739 475.347> 65.6885 15.9463<359.185 461.06> 107.432 183.748<405.597 498.211> 387.881 5.63086<380.239 439.837> 398.56 22.8809<344.634 475.52> 426.488 5.63086<380.239 439.837> 457.914 183.749<405.597 498.211> 738.365 15.9463<359.185 461.06> 759.359 30.6406<335.739 475.347>
LayerCount: 2
Back
SplineSet
486.686523438 179.234375 m 1
 486.686523438 179.234375 458.192382812 174.30859375 410.516601562 174.30859375 c 0
 362.477539062 174.30859375 333.83203125 179.249023438 333.83203125 179.249023438 c 1
 331.200195312 187.106445312 l 1
 331.200195312 187.106445312 356.259765625 180.20703125 410.516601562 180.20703125 c 0
 464.256835938 180.20703125 489.31640625 187.106445312 489.31640625 187.106445312 c 1
 486.686523438 179.234375 l 1
448 141 m 0
 467 141 474 129 474 129 c 1
 471 125 l 1
 471 125 465 134 447 134 c 0
 419 134 415 103 415 103 c 1
 409 105 l 25
 409 105 411 141 448 141 c 0
30 361 m 0
 30 600 211 739 410 739 c 0
 609 739 790 600 790 361 c 0
 790 122 609 -10 410 -10 c 0
 211 -10 30 122 30 361 c 0
37.36328125 361.069335938 m 0
 37.36328125 126.825195312 214.959960938 -2.546875 410 -2.546875 c 0
 605.040039062 -2.546875 782.63671875 126.825195312 782.63671875 361.069335938 c 0
 782.63671875 595.313476562 605.040039062 731.546875 410 731.546875 c 0
 214.959960938 731.546875 37.36328125 595.313476562 37.36328125 361.069335938 c 0
60.640625 409.87890625 m 0
 60.640625 520.296875 137.662109375 584.514648438 229.599609375 584.514648438 c 0
 321.538085938 584.514648438 398.559570312 520.296875 398.559570312 409.87890625 c 0
 398.559570312 299.4609375 321.538085938 238.4765625 229.599609375 238.4765625 c 0
 137.662109375 238.4765625 60.640625 299.4609375 60.640625 409.87890625 c 0
65.6884765625 409.927734375 m 0
 65.6884765625 302.853515625 140.446289062 243.716796875 229.599609375 243.716796875 c 0
 318.75390625 243.716796875 393.51171875 302.853515625 393.51171875 409.927734375 c 0
 393.51171875 517.001953125 318.75390625 579.275390625 229.599609375 579.275390625 c 0
 140.446289062 579.275390625 65.6884765625 517.001953125 65.6884765625 409.927734375 c 0
759.359375 409.87890625 m 0
 759.359375 299.4609375 682.337890625 238.4765625 590.400390625 238.4765625 c 0
 498.461914062 238.4765625 421.440429688 299.4609375 421.440429688 409.87890625 c 0
 421.440429688 520.296875 498.461914062 584.514648438 590.400390625 584.514648438 c 0
 682.337890625 584.514648438 759.359375 520.296875 759.359375 409.87890625 c 0
754.311523438 409.927734375 m 0
 754.311523438 517.001953125 679.553710938 579.275390625 590.400390625 579.275390625 c 0
 501.24609375 579.275390625 426.48828125 517.001953125 426.48828125 409.927734375 c 0
 426.48828125 302.853515625 501.24609375 243.716796875 590.400390625 243.716796875 c 0
 679.553710938 243.716796875 754.311523438 302.853515625 754.311523438 409.927734375 c 0
81.634765625 410.061523438 m 0
 81.634765625 508.055664062 153.165039062 568.16015625 234.758789062 568.16015625 c 0
 316.350585938 568.16015625 387.880859375 508.055664062 387.880859375 410.061523438 c 0
 387.880859375 312.06640625 316.350585938 254.831054688 234.758789062 254.831054688 c 0
 153.165039062 254.831054688 81.634765625 312.06640625 81.634765625 410.061523438 c 0
738.365234375 410.061523438 m 0
 738.365234375 312.06640625 666.834960938 254.831054688 585.241210938 254.831054688 c 0
 503.649414062 254.831054688 432.119140625 312.06640625 432.119140625 410.061523438 c 0
 432.119140625 508.055664062 503.649414062 568.16015625 585.241210938 568.16015625 c 0
 666.834960938 568.16015625 738.365234375 508.055664062 738.365234375 410.061523438 c 0
410.516601562 208.20703125 m 0
 464.256835938 208.20703125 484.31640625 226.106445312 484.31640625 226.106445312 c 1
 490.099609375 223.3984375 l 1
 490.099609375 223.3984375 517.243164062 98.30859375 410.516601562 98.30859375 c 0
 303.2734375 98.30859375 330.416992188 223.3984375 330.416992188 223.3984375 c 1
 336.200195312 226.106445312 l 1
 336.200195312 226.106445312 356.259765625 208.20703125 410.516601562 208.20703125 c 0
107.431640625 437.825195312 m 0
 107.431640625 396.369140625 135.763671875 362.02734375 184.720703125 362.02734375 c 0
 248.26171875 362.02734375 291.1796875 416.565429688 291.1796875 468.119140625 c 0
 291.1796875 506.108398438 262.846679688 542.170898438 213.891601562 542.170898438 c 0
 150.349609375 542.170898438 107.431640625 485.912109375 107.431640625 437.825195312 c 0
457.9140625 437.825195312 m 0
 457.9140625 396.369140625 486.247070312 362.02734375 535.202148438 362.02734375 c 0
 598.743164062 362.02734375 641.663085938 416.565429688 641.663085938 468.119140625 c 0
 641.663085938 506.108398438 613.330078125 542.170898438 564.375 542.170898438 c 0
 500.833007812 542.170898438 457.9140625 485.912109375 457.9140625 437.825195312 c 0
337.83203125 215.249023438 m 1
 337.83203125 215.249023438 316.407226562 107.20703125 410.516601562 107.20703125 c 0
 504.193359375 107.20703125 482.686523438 215.234375 482.686523438 215.234375 c 1
 482.686523438 215.234375 458.192382812 200.30859375 410.516601562 200.30859375 c 0
 362.477539062 200.30859375 337.83203125 215.249023438 337.83203125 215.249023438 c 1
EndSplineSet
Fore
SplineSet
457.9140625 437.825195312 m 0
 457.9140625 485.912109375 500.833007812 542.170898438 564.375 542.170898438 c 0
 613.330078125 542.170898438 641.663085938 506.108398438 641.663085938 468.119140625 c 0
 641.663085938 416.565429688 598.743164062 362.02734375 535.202148438 362.02734375 c 0
 486.247070312 362.02734375 457.9140625 396.369140625 457.9140625 437.825195312 c 0
107.431640625 437.825195312 m 0
 107.431640625 485.912109375 150.349609375 542.170898438 213.891601562 542.170898438 c 0
 262.846679688 542.170898438 291.1796875 506.108398438 291.1796875 468.119140625 c 0
 291.1796875 416.565429688 248.26171875 362.02734375 184.720703125 362.02734375 c 0
 135.763671875 362.02734375 107.431640625 396.369140625 107.431640625 437.825195312 c 0
410.516601562 200.20703125 m 0
 356.259765625 200.20703125 335.200195312 226.106445312 335.200195312 226.106445312 c 1
 331.416992188 220.3984375 l 1
 331.416992188 220.3984375 353.2734375 192.30859375 410.516601562 192.30859375 c 0
 467.243164062 192.30859375 489.099609375 220.3984375 489.099609375 220.3984375 c 1
 485.31640625 226.106445312 l 1
 485.31640625 226.106445312 464.256835938 200.20703125 410.516601562 200.20703125 c 0
738.365234375 410.061523438 m 4
 738.365234375 508.055664062 666.834960938 568.16015625 585.241210938 568.16015625 c 4
 503.649414062 568.16015625 432.119140625 508.055664062 432.119140625 410.061523438 c 4
 432.119140625 312.06640625 503.649414062 254.831054688 585.241210938 254.831054688 c 4
 666.834960938 254.831054688 738.365234375 312.06640625 738.365234375 410.061523438 c 4
81.634765625 410.061523438 m 4
 81.634765625 312.06640625 153.165039062 254.831054688 234.758789062 254.831054688 c 4
 316.350585938 254.831054688 387.880859375 312.06640625 387.880859375 410.061523438 c 4
 387.880859375 508.055664062 316.350585938 568.16015625 234.758789062 568.16015625 c 4
 153.165039062 568.16015625 81.634765625 508.055664062 81.634765625 410.061523438 c 4
754.311523438 409.927734375 m 4
 754.311523438 302.853515625 679.553710938 243.716796875 590.400390625 243.716796875 c 4
 501.24609375 243.716796875 426.48828125 302.853515625 426.48828125 409.927734375 c 4
 426.48828125 517.001953125 501.24609375 579.275390625 590.400390625 579.275390625 c 4
 679.553710938 579.275390625 754.311523438 517.001953125 754.311523438 409.927734375 c 4
759.359375 409.87890625 m 4
 759.359375 520.296875 682.337890625 584.514648438 590.400390625 584.514648438 c 4
 498.461914062 584.514648438 421.440429688 520.296875 421.440429688 409.87890625 c 4
 421.440429688 299.4609375 498.461914062 238.4765625 590.400390625 238.4765625 c 4
 682.337890625 238.4765625 759.359375 299.4609375 759.359375 409.87890625 c 4
65.6884765625 409.927734375 m 4
 65.6884765625 517.001953125 140.446289062 579.275390625 229.599609375 579.275390625 c 4
 318.75390625 579.275390625 393.51171875 517.001953125 393.51171875 409.927734375 c 4
 393.51171875 302.853515625 318.75390625 243.716796875 229.599609375 243.716796875 c 4
 140.446289062 243.716796875 65.6884765625 302.853515625 65.6884765625 409.927734375 c 4
60.640625 409.87890625 m 4
 60.640625 299.4609375 137.662109375 238.4765625 229.599609375 238.4765625 c 4
 321.538085938 238.4765625 398.559570312 299.4609375 398.559570312 409.87890625 c 4
 398.559570312 520.296875 321.538085938 584.514648438 229.599609375 584.514648438 c 4
 137.662109375 584.514648438 60.640625 520.296875 60.640625 409.87890625 c 4
30 361 m 0
 30 600 211 739 410 739 c 0
 609 739 790 600 790 361 c 0
 790 122 609 -10 410 -10 c 0
 211 -10 30 122 30 361 c 0
EndSplineSet
Validated: 524289
EndChar

StartChar: uni2639
Encoding: 9785 9785 88
Width: 820
Flags: W
HStem: -10 7.45312<355.189 464.811> 218.208 7.89844<378.269 442.557> 238.477 5.24023<200.495 258.704 561.296 619.505> 254.831 107.196<153.669 247.287 504.152 597.769> 542.171 25.9893<172.96 257.857 523.444 608.34> 579.275 5.23926<200.495 258.704 561.296 619.505> 731.547 7.45312<355.189 464.811>
VStem: 30 7.36328<307.528 414.662> 60.6406 5.04785<380.612 439.274> 81.6348 25.7969<395.337 476.386> 291.18 96.7012<405.547 493.787> 393.512 5.04785<380.612 439.274> 421.44 5.04785<380.612 439.274> 432.119 25.7949<395.337 476.386> 641.663 96.7021<405.547 493.787> 754.312 5.04785<380.612 439.274> 782.637 7.36328<307.528 414.662>
LayerCount: 2
Fore
SplineSet
457.9140625 437.825195312 m 0
 457.9140625 396.369140625 486.247070312 362.02734375 535.202148438 362.02734375 c 0
 598.743164062 362.02734375 641.663085938 416.565429688 641.663085938 468.119140625 c 0
 641.663085938 506.108398438 613.330078125 542.170898438 564.375 542.170898438 c 0
 500.833007812 542.170898438 457.9140625 485.912109375 457.9140625 437.825195312 c 0
107.431640625 437.825195312 m 0
 107.431640625 396.369140625 135.763671875 362.02734375 184.720703125 362.02734375 c 0
 248.26171875 362.02734375 291.1796875 416.565429688 291.1796875 468.119140625 c 0
 291.1796875 506.108398438 262.846679688 542.170898438 213.891601562 542.170898438 c 0
 150.349609375 542.170898438 107.431640625 485.912109375 107.431640625 437.825195312 c 0
410.516601562 218.208007812 m 0
 336.259765625 218.208007812 307.200195312 165.30859375 307.200195312 165.30859375 c 1
 301.416992188 168.016601562 l 1
 301.416992188 168.016601562 333.2734375 226.106445312 410.516601562 226.106445312 c 0
 487.243164062 226.106445312 519.099609375 168.016601562 519.099609375 168.016601562 c 1
 513.31640625 165.30859375 l 1
 513.31640625 165.30859375 484.256835938 218.208007812 410.516601562 218.208007812 c 0
738.365234375 410.061523438 m 0
 738.365234375 312.06640625 666.834960938 254.831054688 585.241210938 254.831054688 c 0
 503.649414062 254.831054688 432.119140625 312.06640625 432.119140625 410.061523438 c 0
 432.119140625 508.055664062 503.649414062 568.16015625 585.241210938 568.16015625 c 0
 666.834960938 568.16015625 738.365234375 508.055664062 738.365234375 410.061523438 c 0
81.634765625 410.061523438 m 0
 81.634765625 508.055664062 153.165039062 568.16015625 234.758789062 568.16015625 c 0
 316.350585938 568.16015625 387.880859375 508.055664062 387.880859375 410.061523438 c 0
 387.880859375 312.06640625 316.350585938 254.831054688 234.758789062 254.831054688 c 0
 153.165039062 254.831054688 81.634765625 312.06640625 81.634765625 410.061523438 c 0
754.311523438 409.927734375 m 0
 754.311523438 517.001953125 679.553710938 579.275390625 590.400390625 579.275390625 c 0
 501.24609375 579.275390625 426.48828125 517.001953125 426.48828125 409.927734375 c 0
 426.48828125 302.853515625 501.24609375 243.716796875 590.400390625 243.716796875 c 0
 679.553710938 243.716796875 754.311523438 302.853515625 754.311523438 409.927734375 c 0
759.359375 409.87890625 m 0
 759.359375 299.4609375 682.337890625 238.4765625 590.400390625 238.4765625 c 0
 498.461914062 238.4765625 421.440429688 299.4609375 421.440429688 409.87890625 c 0
 421.440429688 520.296875 498.461914062 584.514648438 590.400390625 584.514648438 c 0
 682.337890625 584.514648438 759.359375 520.296875 759.359375 409.87890625 c 0
65.6884765625 409.927734375 m 0
 65.6884765625 302.853515625 140.446289062 243.716796875 229.599609375 243.716796875 c 0
 318.75390625 243.716796875 393.51171875 302.853515625 393.51171875 409.927734375 c 0
 393.51171875 517.001953125 318.75390625 579.275390625 229.599609375 579.275390625 c 0
 140.446289062 579.275390625 65.6884765625 517.001953125 65.6884765625 409.927734375 c 0
60.640625 409.87890625 m 0
 60.640625 520.296875 137.662109375 584.514648438 229.599609375 584.514648438 c 0
 321.538085938 584.514648438 398.559570312 520.296875 398.559570312 409.87890625 c 0
 398.559570312 299.4609375 321.538085938 238.4765625 229.599609375 238.4765625 c 0
 137.662109375 238.4765625 60.640625 299.4609375 60.640625 409.87890625 c 0
37.36328125 361.069335938 m 0
 37.36328125 126.825195312 214.959960938 -2.546875 410 -2.546875 c 0
 605.040039062 -2.546875 782.63671875 126.825195312 782.63671875 361.069335938 c 0
 782.63671875 595.313476562 605.040039062 731.546875 410 731.546875 c 0
 214.959960938 731.546875 37.36328125 595.313476562 37.36328125 361.069335938 c 0
30 361 m 0
 30 600 211 739 410 739 c 0
 609 739 790 600 790 361 c 0
 790 122 609 -10 410 -10 c 0
 211 -10 30 122 30 361 c 0
EndSplineSet
Validated: 524289
EndChar

StartChar: multiply
Encoding: 215 215 89
Width: 300
Flags: W
HStem: 187.296 179.424
VStem: 57.3047 185.398
LayerCount: 2
Fore
SplineSet
62.8623046875 366.719726562 m 1
 242.703125 193.049804688 l 1
 237.145507812 187.295898438 l 1
 57.3046875 360.965820312 l 1
 62.8623046875 366.719726562 l 1
239.715820312 364.149414062 m 5
 66.0458984375 184.30859375 l 5
 60.2919921875 189.866210938 l 5
 233.961914062 369.70703125 l 5
 239.715820312 364.149414062 l 5
EndSplineSet
Validated: 524293
EndChar

StartChar: divide
Encoding: 247 247 90
Width: 300
Flags: W
HStem: 160.81 72.1904<117.59 182.411> 273.008 8<25 275.008> 320.81 72.1904<117.59 182.411>
VStem: 114.721 70.5586<163.223 230.484 323.223 390.484>
LayerCount: 2
Fore
SplineSet
114.720703125 356.57421875 m 0
 114.720703125 379.15234375 131.201171875 393 150.000976562 393 c 0
 168.798828125 393 185.279296875 379.15234375 185.279296875 356.57421875 c 0
 185.279296875 333.99609375 168.798828125 320.809570312 150.000976562 320.809570312 c 0
 131.201171875 320.809570312 114.720703125 333.99609375 114.720703125 356.57421875 c 0
275.0078125 273.0078125 m 5
 25 273.0078125 l 5
 25 281.0078125 l 5
 275.0078125 281.0078125 l 5
 275.0078125 273.0078125 l 5
114.720703125 196.57421875 m 0
 114.720703125 219.15234375 131.201171875 233 150.000976562 233 c 0
 168.798828125 233 185.279296875 219.15234375 185.279296875 196.57421875 c 0
 185.279296875 173.99609375 168.798828125 160.809570312 150.000976562 160.809570312 c 0
 131.201171875 160.809570312 114.720703125 173.99609375 114.720703125 196.57421875 c 0
EndSplineSet
Validated: 524289
EndChar

StartChar: minus
Encoding: 8722 8722 91
Width: 300
Flags: W
HStem: 273.008 8<25 275.008>
VStem: 25 250.008<273.008 281.008>
LayerCount: 2
Fore
SplineSet
275.0078125 273.0078125 m 5
 25 273.0078125 l 5
 25 281.0078125 l 5
 275.0078125 281.0078125 l 5
 275.0078125 273.0078125 l 5
EndSplineSet
Validated: 524289
EndChar

StartChar: fraction
Encoding: 8260 8260 92
Width: 64
Flags: W
HStem: 741.002 20G<210.981 228>
LayerCount: 2
Fore
SplineSet
-143 -44 m 1
 220 761.001953125 l 5
 228 758.009765625 l 5
 -134 -44 l 1
 -143 -44 l 1
EndSplineSet
Validated: 524289
EndChar

StartChar: quoteleft
Encoding: 8216 8216 93
Width: 130
Flags: W
HStem: 628.81 132.192
VStem: 28 46<648.281 722.639>
LayerCount: 2
Fore
SplineSet
98 665.235351562 m 4
 98 642.657226562 81.51953125 628.809570312 62.7197265625 628.809570312 c 4
 43.921875 628.809570312 28 642.657226562 28 665.235351562 c 4
 28 732.001953125 102 761.001953125 102 761.001953125 c 5
 107 754.001953125 l 4
 107 754.001953125 74 738.001953125 74 715.001953125 c 4
 74 694.001953125 98 694.001953125 98 665.235351562 c 4
EndSplineSet
Validated: 524289
EndChar

StartChar: quoteright
Encoding: 8217 8217 94
Width: 130
Flags: W
HStem: 628.81 132.192
VStem: 54 46<667.172 741.531>
LayerCount: 2
Fore
SplineSet
30 724.576171875 m 4
 30 747.154296875 46.48046875 761.001953125 65.2802734375 761.001953125 c 4
 84.078125 761.001953125 100 747.154296875 100 724.576171875 c 4
 100 657.809570312 26 628.809570312 26 628.809570312 c 5
 21 635.809570312 l 4
 21 635.809570312 54 651.809570312 54 674.809570312 c 4
 54 695.809570312 30 695.809570312 30 724.576171875 c 4
EndSplineSet
Validated: 524289
EndChar

StartChar: quotedblleft
Encoding: 8220 8220 95
Width: 250
Flags: W
HStem: 628.81 132.192
VStem: 28 46<648.281 722.639> 148 46<648.281 722.639>
LayerCount: 2
Fore
SplineSet
218 665.235351562 m 4
 218 642.657226562 201.51953125 628.809570312 182.719726562 628.809570312 c 4
 163.921875 628.809570312 148 642.657226562 148 665.235351562 c 4
 148 732.001953125 222 761.001953125 222 761.001953125 c 5
 227 754.001953125 l 4
 227 754.001953125 194 738.001953125 194 715.001953125 c 4
 194 694.001953125 218 694.001953125 218 665.235351562 c 4
98 665.235351562 m 0
 98 642.657226562 81.51953125 628.809570312 62.7197265625 628.809570312 c 0
 43.921875 628.809570312 28 642.657226562 28 665.235351562 c 0
 28 732.001953125 102 761.001953125 102 761.001953125 c 1
 107 754.001953125 l 0
 107 754.001953125 74 738.001953125 74 715.001953125 c 0
 74 694.001953125 98 694.001953125 98 665.235351562 c 0
EndSplineSet
Validated: 524289
EndChar

StartChar: quotedblright
Encoding: 8221 8221 96
Width: 240
Flags: W
HStem: 628.81 132.192
VStem: 54 46<667.172 741.531> 174 46<667.172 741.531>
LayerCount: 2
Fore
SplineSet
150 724.576171875 m 0
 150 747.154296875 166.48046875 761.001953125 185.280273438 761.001953125 c 0
 204.078125 761.001953125 220 747.154296875 220 724.576171875 c 0
 220 657.809570312 146 628.809570312 146 628.809570312 c 1
 141 635.809570312 l 0
 141 635.809570312 174 651.809570312 174 674.809570312 c 0
 174 695.809570312 150 695.809570312 150 724.576171875 c 0
30 724.576171875 m 0
 30 747.154296875 46.48046875 761.001953125 65.2802734375 761.001953125 c 0
 84.078125 761.001953125 100 747.154296875 100 724.576171875 c 0
 100 657.809570312 26 628.809570312 26 628.809570312 c 1
 21 635.809570312 l 0
 21 635.809570312 54 651.809570312 54 674.809570312 c 0
 54 695.809570312 30 695.809570312 30 724.576171875 c 0
EndSplineSet
Validated: 524289
EndChar

StartChar: quotesinglbase
Encoding: 8218 8218 97
Width: 130
Flags: W
HStem: -70 132.192
VStem: 54 46<-31.6371 42.7213>
LayerCount: 2
Fore
SplineSet
30 25.7666015625 m 4
 30 48.3447265625 46.48046875 62.1923828125 65.2802734375 62.1923828125 c 4
 84.078125 62.1923828125 100 48.3447265625 100 25.7666015625 c 4
 100 -41 26 -70 26 -70 c 5
 21 -63 l 4
 21 -63 54 -47 54 -24 c 4
 54 -3 30 -3 30 25.7666015625 c 4
EndSplineSet
Validated: 524289
EndChar

StartChar: quotedblbase
Encoding: 8222 8222 98
Width: 240
Flags: W
HStem: -70 132.192
VStem: 54 46<-31.6371 42.7213> 174 46<-31.6371 42.7213>
LayerCount: 2
Fore
SplineSet
150 25.7666015625 m 4
 150 48.3447265625 166.48046875 62.1923828125 185.280273438 62.1923828125 c 4
 204.078125 62.1923828125 220 48.3447265625 220 25.7666015625 c 4
 220 -41 146 -70 146 -70 c 5
 141 -63 l 4
 141 -63 174 -47 174 -24 c 4
 174 -3 150 -3 150 25.7666015625 c 4
30 25.7666015625 m 4
 30 48.3447265625 46.48046875 62.1923828125 65.2802734375 62.1923828125 c 4
 84.078125 62.1923828125 100 48.3447265625 100 25.7666015625 c 4
 100 -41 26 -70 26 -70 c 5
 21 -63 l 4
 21 -63 54 -47 54 -24 c 4
 54 -3 30 -3 30 25.7666015625 c 4
EndSplineSet
Validated: 524289
EndChar

StartChar: parenleft
Encoding: 40 40 100
Width: 311
Flags: W
VStem: 30 7.36328<246.787 375.25>
LayerCount: 2
Fore
SplineSet
302 -173.541015625 m 1
 300 -179.994140625 l 1
 300 -179.994140625 30 -48 30 311 c 0
 30 670 297.178710938 799.291015625 297.178710938 799.291015625 c 1
 300 792.546875 l 1
 300 792.546875 37.36328125 665.313476562 37.36328125 311.069335938 c 0
 37.36328125 -43.1748046875 302 -173.541015625 302 -173.541015625 c 1
EndSplineSet
Validated: 524289
EndChar

StartChar: parenright
Encoding: 41 41 101
Width: 311
Flags: W
VStem: 273.637 7.36328<246.787 375.25>
LayerCount: 2
Fore
SplineSet
9 -173.541015625 m 5
 9 -173.541015625 273.63671875 -43.1748046875 273.63671875 311.069335938 c 4
 273.63671875 665.313476562 11 792.546875 11 792.546875 c 5
 13.8212890625 799.291015625 l 5
 13.8212890625 799.291015625 281 670 281 311 c 4
 281 -48 11 -179.994140625 11 -179.994140625 c 5
 9 -173.541015625 l 5
EndSplineSet
Validated: 524289
EndChar

StartChar: asterisk
Encoding: 42 42 102
Width: 226
Flags: W
HStem: 490.994 270.008<109 117>
VStem: 109 8<490.994 618.341 633.655 761.002>
LayerCount: 2
Fore
SplineSet
107.342773438 625.998046875 m 1
 1.7802734375 711.560546875 l 1
 7.4375 717.217773438 l 1
 109 633.655273438 l 1
 109 761.001953125 l 1
 117 761.001953125 l 1
 117 633.655273438 l 1
 218.5625 717.217773438 l 1
 224.219726562 711.560546875 l 1
 118.657226562 625.998046875 l 1
 224.219726562 540.435546875 l 1
 218.5625 534.778320312 l 1
 117 618.340820312 l 1
 117 490.994140625 l 1
 109 490.994140625 l 1
 109 618.340820312 l 1
 7.4375 534.778320312 l 1
 1.7802734375 540.435546875 l 1
 107.342773438 625.998046875 l 1
EndSplineSet
Validated: 524289
EndChar

StartChar: backslash
Encoding: 92 92 103
Width: 350
Flags: W
LayerCount: 2
Fore
SplineSet
345 -184 m 1
 336 -184 l 1
 5 807.0078125 l 1
 13 810 l 1
 345 -184 l 1
EndSplineSet
Validated: 524289
EndChar

StartChar: bar
Encoding: 124 124 104
Width: 108
Flags: W
VStem: 50 8<-184 815.008>
LayerCount: 2
Fore
SplineSet
50 -184 m 5
 50 815.0078125 l 5
 58 815.0078125 l 5
 58 -184 l 5
 50 -184 l 5
EndSplineSet
Validated: 524289
EndChar

StartChar: percent
Encoding: 37 37 105
Width: 557
Flags: W
HStem: -9.99805 6.31445<376.891 432.109> 258.545 6.31445<376.891 432.109> 276.076 6.31445<124.891 180.109> 544.619 6.31445<124.891 180.109>
VStem: 30 5.97363<380.265 444.47> 269.026 5.97363<380.265 444.47> 282 5.97363<94.1903 158.396> 521.026 5.97363<94.1903 158.396>
LayerCount: 2
Fore
SplineSet
287.973632812 126.279296875 m 0
 287.973632812 42.556640625 338.169921875 -3.68359375 404.5 -3.68359375 c 0
 470.830078125 -3.68359375 521.026367188 42.556640625 521.026367188 126.279296875 c 0
 521.026367188 209.908203125 470.830078125 258.544921875 404.5 258.544921875 c 0
 338.169921875 258.544921875 287.973632812 209.908203125 287.973632812 126.279296875 c 0
282 126.221679688 m 0
 282 213.87890625 334.849609375 264.859375 404.5 264.859375 c 0
 474.150390625 264.859375 527 213.87890625 527 126.221679688 c 0
 527 38.46875 474.150390625 -9.998046875 404.5 -9.998046875 c 0
 334.849609375 -9.998046875 282 38.46875 282 126.221679688 c 0
35.9736328125 412.353515625 m 0
 35.9736328125 328.630859375 86.169921875 282.390625 152.5 282.390625 c 0
 218.830078125 282.390625 269.026367188 328.630859375 269.026367188 412.353515625 c 0
 269.026367188 495.982421875 218.830078125 544.619140625 152.5 544.619140625 c 0
 86.169921875 544.619140625 35.9736328125 495.982421875 35.9736328125 412.353515625 c 0
30 412.295898438 m 0
 30 499.953125 82.849609375 550.93359375 152.5 550.93359375 c 0
 222.150390625 550.93359375 275 499.953125 275 412.295898438 c 0
 275 324.54296875 222.150390625 276.076171875 152.5 276.076171875 c 0
 82.849609375 276.076171875 30 324.54296875 30 412.295898438 c 0
100.5 -44 m 1
 443.5 567.725585938 l 1
 448.5 564.733398438 l 1
 109.5 -44 l 1
 100.5 -44 l 1
EndSplineSet
Validated: 524289
EndChar

StartChar: .notdef
Encoding: 65536 -1 106
Width: 710
Flags: W
HStem: 27.4502 143.259<321.654 445.949> 207.886 60.3623<322.017 347.752> 562.744 138.806<270.966 427.876>
VStem: 30 291.467<272.32 463.987> 461.99 218.01<253.8 491.975>
LayerCount: 2
Fore
SplineSet
321.466796875 189.126953125 m 0
 321.466796875 177.499023438 329.954101562 170.708984375 339.635742187 170.708984375 c 0
 349.317382812 170.708984375 357.8046875 177.499023438 357.8046875 189.126953125 c 0
 357.8046875 200.754882812 349.317382812 207.885742188 339.635742187 207.885742188 c 0
 329.954101562 207.885742188 321.466796875 200.754882812 321.466796875 189.126953125 c 0
325.49609375 311.807176183 m 0
 325.49609375 331.748046875 340 341 376.610351562 363.372070312 c 0
 419.521484375 389.596679688 461.990234375 412.287109375 461.990234375 468.794921875 c 0
 461.990234375 521.283203125 425.349609375 562.744140625 353.573910549 562.744140625 c 0
 305.11328125 562.744140625 267.99609375 542.4765625 267.99609375 542.4765625 c 1
 270.76171875 535.74609375 l 1
 270.76171875 535.74609375 307.833984375 555.017578125 353.108161479 555.017578125 c 0
 423.26171875 555.017578125 453.76171875 511.74609375 453.76171875 467.961914062 c 0
 453.76171875 418.74609375 415.223632812 395.951171875 374.780210319 372.019471743 c 0
 335.252929688 348.629882812 317.49609375 335.248046875 317.49609375 311.945423319 c 0
 317.49609375 283.748046875 336 268.248046875 343.49609375 268.248046875 c 0
 346.200802378 268.248046875 348 269.8671875 348 272 c 0
 348 277.251953125 325.49609375 287.248046875 325.49609375 311.807176183 c 0
30 361.350097656 m 0
 30 576.450195312 175.900390625 701.549804688 355 701.549804688 c 0
 534.099609375 701.549804688 680 576.450195312 680 361.350097656 c 0
 680 146.25 534.099609375 27.4501953125 355 27.4501953125 c 0
 175.900390625 27.4501953125 30 146.25 30 361.350097656 c 0
EndSplineSet
Validated: 524289
EndChar

StartChar: NameMe.65537
Encoding: 65537 -1 107
Width: 600
Flags: W
HStem: -10 7.45312<258.42 341.58> 731.547 7.45312<261.855 338.145>
VStem: 30 7.36328<297.298 424.942> 562.637 7.36328<297.298 424.942>
LayerCount: 2
Fore
SplineSet
37.36328125 361.069335938 m 0
 37.36328125 126.825195312 150.49858033 -2.546875 300 -2.546875 c 4
 449.50141967 -2.546875 562.63671875 126.825195312 562.63671875 361.069335938 c 0
 562.63671875 595.313476562 449.50141967 731.546875 300 731.546875 c 4
 150.49858033 731.546875 37.36328125 595.313476562 37.36328125 361.069335938 c 0
30 361 m 0
 30 600 146.485714286 739 300 739 c 4
 453.514285714 739 570 600 570 361 c 0
 570 122 453.514285714 -10 300 -10 c 4
 146.485714286 -10 30 122 30 361 c 0
EndSplineSet
Validated: 524289
EndChar

StartChar: NameMe.65538
Encoding: 65538 -1 108
Width: 249
Flags: W
HStem: 0.00292969 21G<191 199> 649.981 9.01074<10.2231 26.319> 715.992 20G<168.182 199>
VStem: 191 8<0.00292969 726.992>
LayerCount: 2
Fore
SplineSet
199 733.9921875 m 5
 199 0.0029296875 l 5
 191 0.0029296875 l 5
 191 726.9921875 l 5
 148.184570312 696.428710938 69 662.981445312 11 649.981445312 c 5
 10 658.9921875 l 5
 66 668.915039062 145.36328125 706.142578125 191 735.9921875 c 5
 199 733.9921875 l 5
EndSplineSet
Validated: 524289
EndChar

StartChar: NameMe.65539
Encoding: 65539 -1 109
Width: 503
Flags: W
HStem: 0 8.45312<42.9863 473.986> 731.547 7.44531<158.323 265.034>
VStem: 30 7.98633<4.24781 127.404> 458.113 7<510.45 584.405>
LayerCount: 2
Fore
SplineSet
37.986328125 686 m 1
 33.6630859375 692.908203125 l 1
 33.6630859375 692.908203125 99.5185546875 738.9921875 205.986328125 738.9921875 c 0
 400.154296875 738.9921875 465.11328125 648.548828125 465.11328125 549.068359375 c 0
 465.11328125 442.708984375 411.499681657 367.599835368 205.094726562 285.58203125 c 0
 70.8987131536 232.257427991 37.986328125 158.431640625 37.986328125 90 c 0
 37.986328125 37.0017771008 42.986328125 8.453125 42.986328125 8.453125 c 1
 473.986328125 8.453125 l 1
 473.986328125 0 l 1
 35.986328125 0 l 1
 35.986328125 0 30 29.4734933036 30 90 c 0
 30 167.708007812 67.7160060107 239.046978153 201.749023438 293.138671875 c 0
 400.620106074 373.397058194 458.11328125 440.966796875 458.11328125 549.068359375 c 4
 458.11328125 640.009765625 400.1953125 731.546875 205.986328125 731.546875 c 0
 106.134765625 731.546875 37.986328125 686 37.986328125 686 c 1
EndSplineSet
Validated: 524289
EndChar

StartChar: NameMe.65540
Encoding: 65540 -1 110
Width: 483
Flags: W
HStem: 0 7.45312<118.95 242.306> 731.547 7.44531<146.08 251.864>
VStem: 400.082 7<570.473 625.693> 447.223 7.45606<165.129 238.71>
LayerCount: 2
Fore
SplineSet
226.157666016 416.05859375 m 1
 388.623174688 396.501953125 454.679335625 303.058903863 454.679335625 198.708007812 c 0
 454.679335625 91 362.593096563 0 188.24 0 c 0
 81.6630859375 0 26 23 26 23 c 1
 28 30 l 1
 28 30 76.6630859375 7.453125 188.24 7.453125 c 0
 362.173077031 7.453125 447.223272344 100 447.223272344 198.05859375 c 0
 447.223272344 300.058910988 388 390 216.059365234 410.501953125 c 1
 226.157666016 416.05859375 l 1
98 359 m 1
 95.9912109375 365.615234375 l 1
 276.952148438 434.286132812 400.082159063 492.166015625 400.082159063 599.05859375 c 0
 400.082159063 662 353.048955938 731.546875 198.311123047 731.546875 c 0
 87.4716796875 731.546875 19.3232421875 686 19.3232421875 686 c 1
 15 692.908203125 l 1
 15 692.908203125 80.85546875 738.9921875 198.311123047 738.9921875 c 0
 355.177862188 738.9921875 407.082159063 670.5390625 407.082159063 599.05859375 c 0
 407.082159063 494.307617188 297.545898438 433.43359375 98 359 c 1
EndSplineSet
Validated: 524293
EndChar

StartChar: NameMe.65541
Encoding: 65541 -1 111
Width: 590
Flags: W
HStem: 0 21G<405 413> 179.994 8<32.8965 565.008> 711.008 20G<223 231>
VStem: 223 8<657.084 731.008> 405 8<0 500.221> 409 4<414.385 502.005>
LayerCount: 2
Fore
SplineSet
405 0 m 5xf8
 405 385.994140625 l 5xf8
 408.29296875 422.993164062 409 463.994140625 409 502.004882812 c 5
 413 502.004882812 l 5xf4
 413 0 l 5
 405 0 l 5xf8
223 731.0078125 m 1
 231 731.0078125 l 1
 231 504.997070312 144 345.994140625 32.896484375 187.994140625 c 1
 565.0078125 187.994140625 l 1
 565.0078125 179.994140625 l 1
 29 179.994140625 l 1
 25 187.994140625 l 1
 134 345.994140625 223 496.997070312 223 731.0078125 c 1
EndSplineSet
Validated: 524293
EndChar

StartChar: NameMe.65542
Encoding: 65542 -1 112
Width: 477
Flags: W
HStem: 0 7.45312<112.95 236.306> 430.997 8<79.0703 205.715> 723.008 8<86.665 375.424>
VStem: 441.224 7.45605<173.83 243.772>
LayerCount: 2
Fore
SplineSet
147 430.997070312 m 0
 75.2310320728 430.997070312 43 420.997070312 43 420.997070312 c 1
 37 422.997070312 l 1
 79 731.0078125 l 1
 311 731.0078125 l 6
 382 731.0078125 416 743.0078125 416 743.0078125 c 5
 418 735.0078125 l 5
 418 735.0078125 385 723.0078125 312 723.0078125 c 6
 86.6650390625 723.0078125 l 1
 45.3115234375 430.458007812 l 1
 45.3115234375 430.458007812 93.0966796875 438.997070312 147 438.997070312 c 0
 337 438.997070312 448.6796875 342.05859375 448.6796875 207.708007812 c 0
 448.6796875 100 356.592773438 0 182.240234375 0 c 0
 75.6630859375 0 20 23 20 23 c 1
 22 30 l 1
 22 30 70.6630859375 7.453125 182.240234375 7.453125 c 0
 356.172851562 7.453125 441.223632812 109 441.223632812 207.05859375 c 0
 441.223632812 339.05859375 332 430.997070312 147 430.997070312 c 0
EndSplineSet
Validated: 524289
EndChar

StartChar: NameMe.65543
Encoding: 65543 -1 113
Width: 525
Flags: W
HStem: -10 7.45312<224.323 320.872> 411.547 7.45312<182.866 296.695> 713.992 20G<306 312>
VStem: 30 8<182.23 286.046> 487.637 7.36328<162.172 243.856>
LayerCount: 2
Fore
SplineSet
52 373.859375 m 1
 52 373.859375 112 419 244 419 c 0
 416.415039062 419 495 320.16015625 495 205 c 0
 495 105.903320312 442.275390625 -10 275 -10 c 0
 113.200195312 -10 30 84 30 229 c 0
 30 542 306 733.9921875 306 733.9921875 c 5
 312 727.9921875 l 5
 312 727.9921875 38 539.904296875 38 229 c 0
 38 97 109 -2.546875 275 -2.546875 c 0
 430.961914063 -2.546875 487.63671875 102.233398438 487.63671875 204.930664062 c 0
 487.63671875 315.727539062 413.276367188 411.546875 244 411.546875 c 0
 115 411.546875 54 367 54 367 c 1
 52 373.859375 l 1
EndSplineSet
Validated: 524293
EndChar

StartChar: NameMe.65544
Encoding: 65544 -1 114
Width: 509
Flags: W
HStem: -0.00292969 21G<163 171> 723.008 8<52.4111 475>
VStem: 163 8<0 56.9199> 475 7.33496<685.654 723.008>
LayerCount: 2
Fore
SplineSet
477 731.0078125 m 1
 482.334960938 724.997070312 l 1
 482.334960938 514.997070312 171 309.991210938 171 0 c 1
 163 -0.0029296875 l 1
 163 318.991210938 475 520.997070312 475 723.0078125 c 5
 52.4111328125 723.0078125 l 1
 23 580 l 1
 15 580 l 1
 45 731.0078125 l 1
 477 731.0078125 l 1
EndSplineSet
Validated: 524289
EndChar

StartChar: NameMe.65545
Encoding: 65545 -1 115
Width: 510
Flags: W
HStem: -9.99805 7.45312<210.498 307.863> 731.008 7.44531<205.797 309.094>
VStem: 17 8<140.959 205.793> 42.4033 7<551.532 612.399> 474.999 6<536.643 594.276> 480.529 7.45605<133.366 198.814>
LayerCount: 2
Fore
SplineSet
296.5 360 m 1xf8
 296.5 360 474.998632812 431 474.998632812 562 c 0xf8
 474.998632812 666 396.468359375 731.0078125 259.1 731.0078125 c 0
 96.40625 731.0078125 49.4033203125 653 49.4033203125 581 c 0
 49.4033203125 503 110.233398438 445.641601562 247.364160156 387.465820312 c 0
 398.850195312 323.146484375 487.984960937 287.916015625 487.984960937 159.651367188 c 0
 487.984960937 76.923828125 406.7046875 -9.998046875 261.883300782 -9.998046875 c 0
 94.8207187387 -9.998046875 17 75.2939453125 17 173 c 0
 17 319 206.932714844 400.719726562 206.932714844 400.719726562 c 1
 212.9 396 l 1
 212.9 396 25 317 25 173 c 0
 25 85.8564453125 95.6744441659 -2.544921875 261.883300782 -2.544921875 c 0
 413.52890625 -2.544921875 480.52890625 90 480.52890625 162 c 0xf4
 480.52890625 284 387.051367187 319.397460938 242.555957031 380.056640625 c 0
 92.6787109375 443.9921875 42.4033203125 509 42.4033203125 580 c 0
 42.4033203125 659.5390625 91.2978515625 738.453125 259.1 738.453125 c 0
 404.468359375 738.453125 480.998632812 670 480.998632812 559 c 0
 480.998632812 428 304.2 357 304.2 357 c 1
 296.5 360 l 1xf8
EndSplineSet
Validated: 524293
EndChar

StartChar: NameMe.65546
Encoding: 65546 -1 116
Width: 525
Flags: W
HStem: 309.992 7.45312<228.305 342.134> 731.539 7.45312<204.128 300.677>
VStem: 30 7.36328<485.136 566.82> 487 8<442.946 546.762>
LayerCount: 2
Fore
SplineSet
473 355.1328125 m 1
 473 355.1328125 413 309.9921875 281 309.9921875 c 0
 108.584960938 309.9921875 30 408.83203125 30 523.9921875 c 0
 30 623.088867188 82.724609375 738.9921875 250 738.9921875 c 0
 411.799804688 738.9921875 495 644.9921875 495 499.9921875 c 0
 495 186.9921875 219 -5 219 -5 c 5
 213 1 l 5
 213 1 487 189.087890625 487 499.9921875 c 0
 487 631.9921875 416 731.5390625 250 731.5390625 c 0
 94.0380859375 731.5390625 37.36328125 626.758789062 37.36328125 524.061523438 c 0
 37.36328125 413.264648438 111.723632812 317.4453125 281 317.4453125 c 0
 410 317.4453125 471 361.9921875 471 361.9921875 c 1
 473 355.1328125 l 1
EndSplineSet
Validated: 524293
EndChar

StartChar: NameMe.65547
Encoding: 65547 -1 117
Width: 300
Flags: W
HStem: 353.008 8<25 275.008> 462.012 20G<146.004 154.004>
VStem: 146.004 8<232.004 482.012>
LayerCount: 2
Fore
SplineSet
154.00390625 482.01171875 m 1
 154.00390625 232.00390625 l 1
 146.00390625 232.00390625 l 1
 146.00390625 482.01171875 l 1
 154.00390625 482.01171875 l 1
275.0078125 353.0078125 m 5
 25 353.0078125 l 5
 25 361.0078125 l 5
 275.0078125 361.0078125 l 5
 275.0078125 353.0078125 l 5
EndSplineSet
Validated: 524293
EndChar

StartChar: NameMe.65548
Encoding: 65548 -1 118
Width: 300
Flags: W
HStem: 245.008 8<25 275.008> 252.004 1.00391<146.004 154.004> 373.008 8<25 275.008>
VStem: 146.004 8<252.004 502.012>
LayerCount: 2
Fore
SplineSet
275.0078125 245.0078125 m 5xb0
 25 245.0078125 l 5
 25 253.0078125 l 5
 275.0078125 253.0078125 l 5
 275.0078125 245.0078125 l 5xb0
154.00390625 502.01171875 m 5
 154.00390625 252.00390625 l 5
 146.00390625 252.00390625 l 5x70
 146.00390625 502.01171875 l 5
 154.00390625 502.01171875 l 5
275.0078125 373.0078125 m 5
 25 373.0078125 l 5
 25 381.0078125 l 5
 275.0078125 381.0078125 l 5
 275.0078125 373.0078125 l 5
EndSplineSet
Validated: 524293
EndChar

StartChar: NameMe.65549
Encoding: 65549 -1 119
Width: 300
Flags: W
HStem: 273.008 8<25 275.008> 433.008 8<25 275.008>
VStem: 25 250.008<273.008 281.008 433.008 441.008>
LayerCount: 2
Fore
SplineSet
275.0078125 273.0078125 m 5
 25 273.0078125 l 5
 25 281.0078125 l 5
 275.0078125 281.0078125 l 5
 275.0078125 273.0078125 l 5
275.0078125 433.0078125 m 5
 25 433.0078125 l 5
 25 441.0078125 l 5
 275.0078125 441.0078125 l 5
 275.0078125 433.0078125 l 5
EndSplineSet
Validated: 524289
EndChar

StartChar: NameMe.65550
Encoding: 65550 -1 120
Width: 300
Flags: W
HStem: 267.296 179.424
VStem: 57.3047 185.398
LayerCount: 2
Fore
SplineSet
62.8623046875 446.719726562 m 5
 242.703125 273.049804688 l 5
 237.145507812 267.295898438 l 5
 57.3046875 440.965820312 l 5
 62.8623046875 446.719726562 l 5
239.715820312 444.149414062 m 5
 66.0458984375 264.30859375 l 5
 60.2919921875 269.866210938 l 5
 233.961914062 449.70703125 l 5
 239.715820312 444.149414062 l 5
EndSplineSet
Validated: 524293
EndChar

StartChar: NameMe.65551
Encoding: 65551 -1 121
Width: 300
Flags: W
HStem: 240.81 72.1904<117.59 182.411> 353.008 8<25 275.008> 400.81 72.1904<117.59 182.411>
VStem: 114.721 70.5586<243.223 310.484 403.223 470.484>
LayerCount: 2
Fore
SplineSet
114.720703125 436.57421875 m 4
 114.720703125 459.15234375 131.201171875 473 150.000976562 473 c 4
 168.798828125 473 185.279296875 459.15234375 185.279296875 436.57421875 c 4
 185.279296875 413.99609375 168.798828125 400.809570312 150.000976562 400.809570312 c 4
 131.201171875 400.809570312 114.720703125 413.99609375 114.720703125 436.57421875 c 4
275.0078125 353.0078125 m 5
 25 353.0078125 l 5
 25 361.0078125 l 5
 275.0078125 361.0078125 l 5
 275.0078125 353.0078125 l 5
114.720703125 276.57421875 m 4
 114.720703125 299.15234375 131.201171875 313 150.000976562 313 c 4
 168.798828125 313 185.279296875 299.15234375 185.279296875 276.57421875 c 4
 185.279296875 253.99609375 168.798828125 240.809570312 150.000976562 240.809570312 c 4
 131.201171875 240.809570312 114.720703125 253.99609375 114.720703125 276.57421875 c 4
EndSplineSet
Validated: 524289
EndChar

StartChar: NameMe.65555
Encoding: 65552 -1 122
Width: 260
Flags: W
HStem: 203 8<8 258.008>
VStem: 8 250.008
LayerCount: 2
Fore
SplineSet
258.0078125 203 m 5
 8 203 l 5
 8 211 l 5
 258.0078125 211 l 5
 258.0078125 203 l 5
17.5 367.0078125 m 5
 255.0078125 271.0078125 l 5
 252.0078125 263.0078125 l 5
 5 363.0078125 l 5
 5 371.0078125 l 5
 252.0078125 471.0078125 l 5
 255.0078125 463.0078125 l 5
 17.5 367.0078125 l 5
EndSplineSet
Validated: 524289
EndChar

StartChar: NameMe.65552
Encoding: 65553 -1 123
Width: 300
Flags: W
HStem: 353.008 8<25 275.008>
VStem: 25 250.008<353.008 361.008>
LayerCount: 2
Fore
SplineSet
275.0078125 353.0078125 m 1
 25 353.0078125 l 1
 25 361.0078125 l 1
 275.0078125 361.0078125 l 1
 275.0078125 353.0078125 l 1
EndSplineSet
Validated: 524289
EndChar

StartChar: lessequal
Encoding: 8804 8804 124
Width: 260
Flags: W
HStem: 123 8<8 258.008>
VStem: 8 250.008
LayerCount: 2
Fore
SplineSet
258.0078125 123 m 5
 8 123 l 5
 8 131 l 5
 258.0078125 131 l 5
 258.0078125 123 l 5
17.5 287.0078125 m 5
 255.0078125 191.0078125 l 5
 252.0078125 183.0078125 l 5
 5 283.0078125 l 5
 5 291.0078125 l 5
 252.0078125 391.0078125 l 5
 255.0078125 383.0078125 l 5
 17.5 287.0078125 l 5
EndSplineSet
Validated: 524289
EndChar

StartChar: greaterequal
Encoding: 8805 8805 125
Width: 260
Flags: W
HStem: 123 8<5 255.008>
VStem: 5 250.008
LayerCount: 2
Fore
SplineSet
5 123 m 5
 5 131 l 5
 255.0078125 131 l 5
 255.0078125 123 l 5
 5 123 l 5
245.5078125 287.0078125 m 5
 8 383.0078125 l 5
 11 391.0078125 l 5
 258.0078125 291.0078125 l 5
 258.0078125 283.0078125 l 5
 11 183.0078125 l 5
 8 191.0078125 l 5
 245.5078125 287.0078125 l 5
EndSplineSet
Validated: 524289
EndChar

StartChar: NameMe.65553
Encoding: 65554 -1 126
Width: 260
Flags: W
HStem: 253.008 208
VStem: 5 250.008
LayerCount: 2
Fore
SplineSet
17.5 357.0078125 m 5
 255.0078125 261.0078125 l 5
 252.0078125 253.0078125 l 5
 5 353.0078125 l 5
 5 361.0078125 l 5
 252.0078125 461.0078125 l 5
 255.0078125 453.0078125 l 5
 17.5 357.0078125 l 5
EndSplineSet
Validated: 524289
EndChar

StartChar: NameMe.65554
Encoding: 65555 -1 127
Width: 260
Flags: W
HStem: 253.008 208
VStem: 5 250.008
LayerCount: 2
Fore
SplineSet
242.5078125 357.0078125 m 5
 5 453.0078125 l 5
 8 461.0078125 l 5
 255.0078125 361.0078125 l 5
 255.0078125 353.0078125 l 5
 8 253.0078125 l 5
 5 261.0078125 l 5
 242.5078125 357.0078125 l 5
EndSplineSet
Validated: 524289
EndChar

StartChar: perthousand
Encoding: 8240 8240 128
Width: 797
Flags: W
HStem: -9.99805 6.31445<376.891 432.109 616.891 672.109> 258.545 6.31445<376.891 432.109 616.891 672.109> 276.076 6.31445<124.891 180.109> 544.619 6.31445<124.891 180.109>
VStem: 30 5.97363<380.265 444.47> 269.026 5.97363<380.265 444.47> 282 5.97363<94.1903 158.396> 522 5<38.4688 213.879> 761.026 5.97363<94.1903 158.396>
LayerCount: 2
Fore
SplineSet
527.973632812 126.279296875 m 0
 527.973632812 42.556640625 578.169921875 -3.68359375 644.5 -3.68359375 c 0
 710.830078125 -3.68359375 761.026367188 42.556640625 761.026367188 126.279296875 c 0
 761.026367188 209.908203125 710.830078125 258.544921875 644.5 258.544921875 c 0
 578.169921875 258.544921875 527.973632812 209.908203125 527.973632812 126.279296875 c 0
522 126.221679688 m 0
 522 213.87890625 574.849609375 264.859375 644.5 264.859375 c 0
 714.150390625 264.859375 767 213.87890625 767 126.221679688 c 0
 767 38.46875 714.150390625 -9.998046875 644.5 -9.998046875 c 0
 574.849609375 -9.998046875 522 38.46875 522 126.221679688 c 0
287.973632812 126.279296875 m 0
 287.973632812 42.556640625 338.169921875 -3.68359375 404.5 -3.68359375 c 0
 470.830078125 -3.68359375 521.026367188 42.556640625 521.026367188 126.279296875 c 0
 521.026367188 209.908203125 470.830078125 258.544921875 404.5 258.544921875 c 0
 338.169921875 258.544921875 287.973632812 209.908203125 287.973632812 126.279296875 c 0
282 126.221679688 m 0
 282 213.87890625 334.849609375 264.859375 404.5 264.859375 c 0
 474.150390625 264.859375 527 213.87890625 527 126.221679688 c 0
 527 38.46875 474.150390625 -9.998046875 404.5 -9.998046875 c 0
 334.849609375 -9.998046875 282 38.46875 282 126.221679688 c 0
35.9736328125 412.353515625 m 0
 35.9736328125 328.630859375 86.169921875 282.390625 152.5 282.390625 c 0
 218.830078125 282.390625 269.026367188 328.630859375 269.026367188 412.353515625 c 0
 269.026367188 495.982421875 218.830078125 544.619140625 152.5 544.619140625 c 0
 86.169921875 544.619140625 35.9736328125 495.982421875 35.9736328125 412.353515625 c 0
30 412.295898438 m 0
 30 499.953125 82.849609375 550.93359375 152.5 550.93359375 c 0
 222.150390625 550.93359375 275 499.953125 275 412.295898438 c 0
 275 324.54296875 222.150390625 276.076171875 152.5 276.076171875 c 0
 82.849609375 276.076171875 30 324.54296875 30 412.295898438 c 0
100.5 -44 m 1
 443.5 567.725585938 l 1
 448.5 564.733398438 l 1
 109.5 -44 l 1
 100.5 -44 l 1
EndSplineSet
Validated: 524293
EndChar

StartChar: NameMe.65556
Encoding: 65556 -1 129
Width: 260
Flags: W
HStem: 203 8<5 255.008>
VStem: 5 250.008
LayerCount: 2
Fore
SplineSet
5 203 m 5
 5 211 l 5
 255.0078125 211 l 5
 255.0078125 203 l 5
 5 203 l 5
245.5078125 367.0078125 m 5
 8 463.0078125 l 5
 11 471.0078125 l 5
 258.0078125 371.0078125 l 5
 258.0078125 363.0078125 l 5
 11 263.0078125 l 5
 8 271.0078125 l 5
 245.5078125 367.0078125 l 5
EndSplineSet
Validated: 524289
EndChar

StartChar: asciicircum
Encoding: 94 94 130
Width: 178
Flags: W
HStem: 594 141.008
VStem: 5 168
LayerCount: 2
Fore
SplineSet
5 594 m 1
 85 735.0078125 l 1
 93 735.0078125 l 1
 173 594 l 5
 168 591 l 5
 89 724.260448042 l 1
 10 591 l 1
 5 594 l 1
EndSplineSet
Validated: 524289
EndChar

StartChar: circumflex
Encoding: 710 710 131
Width: 178
Flags: W
HStem: 594 141.008
VStem: 5 168
LayerCount: 2
Fore
SplineSet
5 594 m 1
 85 735.0078125 l 1
 93 735.0078125 l 1
 173 594 l 5
 168 591 l 5
 89 724.260448042 l 1
 10 591 l 1
 5 594 l 1
EndSplineSet
Validated: 524289
EndChar

StartChar: caron
Encoding: 711 711 132
Width: 178
Flags: W
HStem: 591 141.008
VStem: 5 168
LayerCount: 2
Fore
SplineSet
173 732.0078125 m 1
 93 591 l 1
 85 591 l 1
 5 732.0078125 l 5
 10 735.0078125 l 5
 89 601.747070312 l 1
 168 735.0078125 l 1
 173 732.0078125 l 1
EndSplineSet
Validated: 524289
EndChar

StartChar: hungarumlaut
Encoding: 733 733 133
Width: 209
Flags: W
HStem: 594 141.008
VStem: 5 199
LayerCount: 2
Fore
SplineSet
5 594 m 5
 85 735.0078125 l 5
 93 731.0078125 l 5
 10 591 l 5
 5 594 l 5
116 594 m 1
 196 735.0078125 l 1
 204 731.0078125 l 1
 121 591 l 1
 116 594 l 1
EndSplineSet
Validated: 524289
EndChar

StartChar: bracketleft
Encoding: 91 91 134
Width: 308
Flags: W
HStem: -184 8<58 283> 807.008 8<58 283>
VStem: 50 8<-176 807.008>
LayerCount: 2
Fore
SplineSet
58 815.0078125 m 1
 283 815.0078125 l 1
 283 807.0078125 l 1
 58 807.0078125 l 1
 58 -176 l 1
 283 -176 l 1
 283 -184 l 1
 58 -184 l 1
 50 -184 l 1
 50 -176 l 1
 50 807.0078125 l 1
 50 815.0078125 l 1
 58 815.0078125 l 1
EndSplineSet
Validated: 524289
EndChar

StartChar: bracketright
Encoding: 93 93 135
Width: 308
Flags: W
HStem: -184 8<25 250> 807.008 8<25 250>
VStem: 250 8<-176 807.008>
LayerCount: 2
Fore
SplineSet
250 815.0078125 m 1
 258 815.0078125 l 1
 258 807.0078125 l 1
 258 -176 l 1
 258 -184 l 1
 250 -184 l 1
 25 -184 l 1
 25 -176 l 1
 250 -176 l 1
 250 807.0078125 l 1
 25 807.0078125 l 1
 25 815.0078125 l 1
 250 815.0078125 l 1
EndSplineSet
Validated: 524289
EndChar

StartChar: dollar
Encoding: 36 36 136
Width: 424
Flags: W
HStem: -9.99805 7.45312<174.685 274.496> 543.488 7.44531<159.259 264.882>
VStem: 35.873 7<395.201 455.029> 183 7<-127 -84.65> 253 7<624.65 667> 387.53 7.45605<87.9155 148.984>
LayerCount: 2
Fore
SplineSet
183 -127 m 1
 203 -6 l 1
 210 -6 l 1
 190 -127 l 1
 183 -127 l 1
233 546 m 1
 253 667 l 1
 260 665 l 1
 240 546 l 1
 233 546 l 1
363 506.94140625 m 1
 363 506.94140625 314.851874169 543.48828125 213.802735866 543.48828125 c 0
 85.9060325856 543.48828125 42.873046875 494.94140625 42.873046875 424.624023438 c 4
 42.873046875 361.546875 77.5 326.909179688 181.975331616 293.961015871 c 0
 354 239.709960938 394.986328125 187.95973346 394.986328125 118.039833129 c 0
 394.986328125 29.923828125 329.89142136 -9.998046875 225.270243612 -9.998046875 c 0
 113.534477263 -9.998046875 35 35.5380859375 35 35.5380859375 c 1
 38.5302734375 43 l 1
 38.5302734375 43 118.494813163 -2.544921875 227.052326154 -2.544921875 c 0
 334.411461556 -2.544921875 387.530273438 42 387.530273438 119.184559065 c 0
 387.530273438 183.396484375 350.766601562 234.990234375 183.463413107 286.099656254 c 0
 62.2890625 323.1171875 35.873046875 362.360351562 35.873046875 422.748046875 c 4
 35.873046875 501.48046875 80.7773281813 550.93359375 215.258014731 550.93359375 c 0
 321.468102747 550.93359375 366.323242188 513.849609375 366.323242188 513.849609375 c 1
 363 506.94140625 l 1
EndSplineSet
Validated: 524293
EndChar

StartChar: numbersign
Encoding: 35 35 137
Width: 559
Flags: W
HStem: 0 21G<71.0078 88.0012 260.008 277.001> 183 8<50 448.008> 352 8<111 509.008> 520.934 20G<279.022 295.008 468.022 484.008>
LayerCount: 2
Fore
SplineSet
448.0078125 183 m 5
 50 183 l 5
 50 191 l 5
 448.0078125 191 l 5
 448.0078125 183 l 5
509.0078125 352 m 5
 111 352 l 5
 111 360 l 5
 509.0078125 360 l 5
 509.0078125 352 l 5
260.0078125 0 m 1
 476.0078125 540.93359375 l 1
 484.0078125 537.94140625 l 1
 269.0078125 0 l 1
 260.0078125 0 l 1
71.0078125 0 m 1
 287.0078125 540.93359375 l 1
 295.0078125 537.94140625 l 1
 80.0078125 0 l 1
 71.0078125 0 l 1
EndSplineSet
Validated: 524293
EndChar

StartChar: NameMe.65557
Encoding: 65557 -1 138
Width: 796
Flags: W
HStem: -9.99805 7.12891<555.604 626.396> 351.556 7.12891<169.604 240.396> 375.527 7.12891<555.604 626.396> 737.081 7.12891<169.604 240.396> 741.002 20G<571.981 589>
VStem: 30 6.85254<505.265 587.204> 373.147 6.85254<505.265 587.204> 416 6.85254<143.711 225.65> 759.147 6.85254<143.711 225.65>
LayerCount: 2
Fore
SplineSet
422.852539062 184.66796875 m 0xe780
 422.852539062 63.85546875 495.28515625 -2.869140625 591 -2.869140625 c 0
 686.71484375 -2.869140625 759.147460938 63.85546875 759.147460938 184.66796875 c 0
 759.147460938 305.34375 686.71484375 375.52734375 591 375.52734375 c 0
 495.28515625 375.52734375 422.852539062 305.34375 422.852539062 184.66796875 c 0xe780
416 184.602539062 m 0
 416 309.826171875 491.5 382.65625 591 382.65625 c 0
 690.5 382.65625 766 309.826171875 766 184.602539062 c 0
 766 59.240234375 690.5 -9.998046875 591 -9.998046875 c 0
 491.5 -9.998046875 416 59.240234375 416 184.602539062 c 0
36.8525390625 546.221679688 m 0
 36.8525390625 425.409179688 109.28515625 358.684570312 205 358.684570312 c 0
 300.71484375 358.684570312 373.147460938 425.409179688 373.147460938 546.221679688 c 0
 373.147460938 666.897460938 300.71484375 737.081054688 205 737.081054688 c 0xf780
 109.28515625 737.081054688 36.8525390625 666.897460938 36.8525390625 546.221679688 c 0
30 546.15625 m 0
 30 671.379882812 105.5 744.209960938 205 744.209960938 c 0
 304.5 744.209960938 380 671.379882812 380 546.15625 c 0
 380 420.793945312 304.5 351.555664062 205 351.555664062 c 0
 105.5 351.555664062 30 420.793945312 30 546.15625 c 0
218 -44 m 1
 581 761.001953125 l 1xef80
 589 758.009765625 l 1
 227 -44 l 1
 218 -44 l 1
EndSplineSet
Validated: 524289
EndChar

StartChar: paragraph
Encoding: 182 182 139
Width: 844
Flags: W
HStem: -10 21G<288.792 516.858> -6 3.45312<160.459 582.615> 731.547 5.45312<167.519 576.568>
VStem: 34 3.36328<137.136 587.383> 717 8<12 719.008>
LayerCount: 2
Fore
SplineSet
717 12 m 1x38
 717 719.0078125 l 1
 725 719.0078125 l 1
 725 12 l 1
 717 12 l 1x38
553 731 m 1
 553 -2 l 1
 553 -2 513 -6 420 -6 c 0x78
 158.975900878 -6 34 134 34 361 c 0
 34 591 171 737 420 737 c 0
 487.955868032 737 553 731 553 731 c 1
836 711.0078125 m 1
 835 703.333984375 l 1
 835 703.333984375 600.183974848 731.546875 420 731.546875 c 0
 164.038085938 731.546875 37.36328125 583.766601562 37.36328125 361.069335938 c 0
 37.36328125 140.272460938 161.942382812 -2.546875 420 -2.546875 c 0x78
 612.259646532 -2.546875 835 27.3447265625 835 27.3447265625 c 1
 836 20 l 1
 836 20 613.716725419 -10 420 -10 c 0xb8
 157.584960938 -10 30 135.83984375 30 361 c 0
 30 588.096679688 159.724609375 739 420 739 c 0
 595.91184737 739 836 711.0078125 836 711.0078125 c 1
EndSplineSet
Validated: 524293
EndChar

StartChar: mu
Encoding: 181 181 140
Width: 470
Flags: W
HStem: -10 7.45312<145.635 203.167> 460.934 20G<50 58 398 406>
VStem: 50 8<-179.994 480.934> 398 8<56.6062 480.934>
LayerCount: 2
Fore
SplineSet
50 -179.994140625 m 1
 50 480.93359375 l 1
 58 480.93359375 l 1
 58 -179.994140625 l 1
 50 -179.994140625 l 1
56 145 m 1
 64 48.06640625 106.8828125 -2.546875 175 -2.546875 c 0
 296.1171875 -2.546875 401 162.93359375 401 162.93359375 c 1
 403 151.93359375 l 1
 403 151.93359375 297.142578125 -10 175 -10 c 0
 102.857421875 -10 60 39.06640625 51 139 c 1
 56 145 l 1
406 480.93359375 m 1
 406 93.93359375 l 2
 406 29.93359375 435 -2.07421875 435 -2.07421875 c 1
 428 -7.07421875 l 1
 428 -7.07421875 398 29.328125 398 90.93359375 c 2
 398 480.93359375 l 1
 406 480.93359375 l 1
EndSplineSet
Validated: 524293
EndChar

StartChar: guillemotleft
Encoding: 171 171 141
Width: 420
Flags: W
HStem: 124.008 306
LayerCount: 2
Fore
SplineSet
174.5 277.0078125 m 5
 415.0078125 131.0078125 l 5
 412.0078125 124.0078125 l 5
 165 273.0078125 l 5
 165 281.0078125 l 5
 412.0078125 430.0078125 l 5
 415.0078125 423.0078125 l 5
 174.5 277.0078125 l 5
14.5 277.0078125 m 1
 255.0078125 131.0078125 l 1
 252.0078125 124.0078125 l 1
 5 273.0078125 l 1
 5 281.0078125 l 1
 252.0078125 430.0078125 l 1
 255.0078125 423.0078125 l 1
 14.5 277.0078125 l 1
EndSplineSet
Validated: 524289
EndChar

StartChar: guillemotright
Encoding: 187 187 142
Width: 420
Flags: W
HStem: 124.008 306
LayerCount: 2
Fore
SplineSet
245.5078125 277.0078125 m 5
 5 423.0078125 l 5
 8 430.0078125 l 5
 255.0078125 281.0078125 l 5
 255.0078125 273.0078125 l 5
 8 124.0078125 l 5
 5 131.0078125 l 5
 245.5078125 277.0078125 l 5
405.5078125 277.0078125 m 1
 165 423.0078125 l 1
 168 430.0078125 l 1
 415.0078125 281.0078125 l 1
 415.0078125 273.0078125 l 1
 168 124.0078125 l 1
 165 131.0078125 l 1
 405.5078125 277.0078125 l 1
EndSplineSet
Validated: 524289
EndChar

StartChar: cent
Encoding: 162 162 143
Width: 533
Flags: W
HStem: -10 7.45312<243.519 360.923> 543.48 7.45312<249.982 331.838>
VStem: 30 7.36328<213.673 306.982> 253 7<-127 -84.65> 323 7<624.65 667>
LayerCount: 2
Fore
SplineSet
253 -127 m 1
 273 -6 l 1
 280 -6 l 1
 260 -127 l 1
 253 -127 l 1
303 546 m 1
 323 667 l 1
 330 665 l 1
 310 546 l 1
 303 546 l 1
37.36328125 261.069335938 m 4
 37.36328125 87.0146484375 146.190907754 -2.546875 290 -2.546875 c 4
 428.91125229 -2.546875 499 37.1279296875 499 37.1279296875 c 5
 502 28.7158203125 l 5
 502 28.7158203125 428.44653765 -10 290 -10 c 4
 142.171428572 -10 30 82.1884765625 30 261 c 4
 30 431.671875 142.171549479 550.93359375 290 550.93359375 c 4
 451.96659429 550.93359375 507 432.451171875 507 432.451171875 c 5
 501 428.955078125 l 5
 501 428.955078125 444.47987852 543.48046875 290 543.48046875 c 4
 146.190508888 543.48046875 37.36328125 426.985351562 37.36328125 261.069335938 c 4
EndSplineSet
Validated: 524293
EndChar

StartChar: brokenbar
Encoding: 166 166 144
Width: 108
Flags: W
VStem: 50 8<-184 255.008 376 815.008>
LayerCount: 2
Fore
SplineSet
50 -184 m 1
 50 255.0078125 l 5
 58 255.0078125 l 5
 58 -184 l 1
 50 -184 l 1
50 376 m 1
 50 815.0078125 l 1
 58 815.0078125 l 1
 58 376 l 1
 50 376 l 1
EndSplineSet
Validated: 524289
EndChar

StartChar: copyright
Encoding: 169 169 145
Width: 710
Flags: W
HStem: 27.4502 6.70801<306.09 403.91> 177.25 7.54199<324.299 414.584> 544.208 7.54199<326.384 396.009> 694.842 6.70801<306.09 403.91>
VStem: 30 6.62695<313.225 409.645> 187 7.15039<321.166 404.534> 673.373 6.62695<313.225 409.645>
LayerCount: 2
Fore
SplineSet
194.150390625 362.802734375 m 0
 194.150390625 246.850585938 265.231445312 184.791992188 361.776367188 184.791992188 c 0
 443.697265625 184.791992188 485.03125 208.391601562 485.03125 208.391601562 c 1
 489 201.607421875 l 1
 489 201.607421875 444.284179688 177.25 362 177.25 c 0
 262.5 177.25 187 243.25 187 362.75 c 0
 187 482.25 262.5 551.75 362 551.75 c 0
 458.284179688 551.75 491 482.508789062 491 482.508789062 c 1
 484.536132812 479.59765625 l 1
 484.536132812 479.59765625 453.102539062 544.208007812 361.776367188 544.208007812 c 0
 265.231445312 544.208007812 194.150390625 478.751953125 194.150390625 362.802734375 c 0
36.626953125 361.412109375 m 4
 36.626953125 150.592773438 179.463867188 34.158203125 355 34.158203125 c 4
 530.536132812 34.158203125 673.373046875 150.592773438 673.373046875 361.412109375 c 4
 673.373046875 572.232421875 530.536132812 694.841796875 355 694.841796875 c 4
 179.463867188 694.841796875 36.626953125 572.232421875 36.626953125 361.412109375 c 4
30 361.349609375 m 4
 30 576.450195312 175.900390625 701.549804688 355 701.549804688 c 4
 534.099609375 701.549804688 680 576.450195312 680 361.349609375 c 4
 680 146.25 534.099609375 27.4501953125 355 27.4501953125 c 4
 175.900390625 27.4501953125 30 146.25 30 361.349609375 c 4
EndSplineSet
Validated: 524289
EndChar

StartChar: registered
Encoding: 174 174 146
Width: 710
Flags: W
HStem: 27.4502 6.70801<306.09 403.91> 177.25 14.4033<486.162 507.491> 177.25 7<461.401 496.711> 355.75 6<283.008 370.962> 545.023 6.72656<257.637 383.124> 694.842 6.70801<306.09 403.91>
VStem: 30 6.62695<313.225 409.645> 250 7<182.25 541.208> 457.818 6.68164<431.251 484.111> 673.373 6.62695<313.225 409.645>
LayerCount: 2
Fore
SplineSet
481 177.25 m 0xbfc0
 452.354492188 177.25 429.936523438 195.26171875 400.46875 245.90625 c 0
 341.5 347.25 278 353.75 278 353.75 c 5
 278.5 364.25 l 1
 278.5 364.25 293 361.75 334.5 361.75 c 0
 422.423828125 361.75 457.818359375 402.38671875 457.818359375 457.78515625 c 0
 457.818359375 507.1328125 430.48046875 545.0234375 344.5 545.0234375 c 0
 293.900390625 545.0234375 257 540.916992188 257 540.862304688 c 2
 257 182.25 l 1
 250 182.25 l 1
 250 547.75390625 l 1
 250 547.75390625 295.099609375 551.75 344.5 551.75 c 0
 434.637695312 551.75 464.5 511.298828125 464.5 457.75 c 0
 464.5 400.169921875 425.982421875 355.75 334.5 355.75 c 0
 294.5 355.75 287.5 357.75 287.5 357.75 c 1
 287.5 357.75 349.958007812 345.196289062 406.657226562 247.634765625 c 0
 436.705078125 195.931640625 456.017578125 184.25 481.5 184.25 c 0xbfc0
 497 184.25 500.145507812 191.653320312 506.096679688 191.653320312 c 0xdfc0
 508.080078125 191.653320312 509.403320312 190.330078125 509.403320312 188.346679688 c 0
 509.403320312 181.734375 495 177.25 481 177.25 c 0xbfc0
36.626953125 361.412109375 m 0
 36.626953125 150.592773438 179.463867188 34.158203125 355 34.158203125 c 0
 530.536132812 34.158203125 673.373046875 150.592773438 673.373046875 361.412109375 c 0
 673.373046875 572.232421875 530.536132812 694.841796875 355 694.841796875 c 0
 179.463867188 694.841796875 36.626953125 572.232421875 36.626953125 361.412109375 c 0
30 361.349609375 m 0
 30 576.450195312 175.900390625 701.549804688 355 701.549804688 c 0
 534.099609375 701.549804688 680 576.450195312 680 361.349609375 c 0
 680 146.25 534.099609375 27.4501953125 355 27.4501953125 c 0
 175.900390625 27.4501953125 30 146.25 30 361.349609375 c 0
EndSplineSet
Validated: 524293
EndChar

StartChar: NameMe.65558
Encoding: 65558 -1 147
Width: 1142
Flags: W
HStem: -9.99805 7.12891<555.604 626.396 901.604 972.396> 351.556 7.12891<169.604 240.396> 375.527 7.12891<555.604 626.396 901.604 972.396> 737.081 7.12891<169.604 240.396> 741.002 20G<571.981 589>
VStem: 30 6.85254<505.265 587.204> 373.147 6.85254<505.265 587.204> 416 6.85254<143.711 225.65> 762 4<59.2402 309.826> 1105.15 6.85254<143.711 225.65>
LayerCount: 2
Fore
SplineSet
768.852539062 184.66796875 m 4xe7c0
 768.852539062 63.85546875 841.28515625 -2.869140625 937 -2.869140625 c 4
 1032.71484375 -2.869140625 1105.14746094 63.85546875 1105.14746094 184.66796875 c 4
 1105.14746094 305.34375 1032.71484375 375.52734375 937 375.52734375 c 4
 841.28515625 375.52734375 768.852539062 305.34375 768.852539062 184.66796875 c 4xe7c0
762 184.602539062 m 4
 762 309.826171875 837.5 382.65625 937 382.65625 c 4
 1036.5 382.65625 1112 309.826171875 1112 184.602539062 c 4
 1112 59.240234375 1036.5 -9.998046875 937 -9.998046875 c 4
 837.5 -9.998046875 762 59.240234375 762 184.602539062 c 4
422.852539062 184.66796875 m 4
 422.852539062 63.85546875 495.28515625 -2.869140625 591 -2.869140625 c 4
 686.71484375 -2.869140625 759.147460938 63.85546875 759.147460938 184.66796875 c 4
 759.147460938 305.34375 686.71484375 375.52734375 591 375.52734375 c 4
 495.28515625 375.52734375 422.852539062 305.34375 422.852539062 184.66796875 c 4
416 184.602539062 m 4
 416 309.826171875 491.5 382.65625 591 382.65625 c 4
 690.5 382.65625 766 309.826171875 766 184.602539062 c 4
 766 59.240234375 690.5 -9.998046875 591 -9.998046875 c 4
 491.5 -9.998046875 416 59.240234375 416 184.602539062 c 4
36.8525390625 546.221679688 m 4
 36.8525390625 425.409179688 109.28515625 358.684570312 205 358.684570312 c 4
 300.71484375 358.684570312 373.147460938 425.409179688 373.147460938 546.221679688 c 4
 373.147460938 666.897460938 300.71484375 737.081054688 205 737.081054688 c 4xf7c0
 109.28515625 737.081054688 36.8525390625 666.897460938 36.8525390625 546.221679688 c 4
30 546.15625 m 4
 30 671.379882812 105.5 744.209960938 205 744.209960938 c 4
 304.5 744.209960938 380 671.379882812 380 546.15625 c 4
 380 420.793945312 304.5 351.555664062 205 351.555664062 c 4
 105.5 351.555664062 30 420.793945312 30 546.15625 c 4
218 -44 m 5
 581 761.001953125 l 5xefc0
 589 758.009765625 l 5
 227 -44 l 5
 218 -44 l 5
EndSplineSet
Validated: 524293
EndChar

StartChar: yen
Encoding: 165 165 148
Width: 434
Flags: W
HStem: 0 21G<213 221> 103.008 8<81.9961 213 221 352.004> 103.008 0.925781<213 221> 173.008 8<81.9961 352.004> 179 2.00781<213 221> 266.597 6.33691<214.882 219.118>
VStem: 213 8<0 103.934 179 272.934>
LayerCount: 2
Fore
SplineSet
213 179 m 1x8e
 213 272.93359375 l 5
 221 272.93359375 l 5
 221 179 l 1
 213 179 l 1x8e
352.00390625 103.0078125 m 1xc6
 81.99609375 103.0078125 l 1
 81.99609375 111.0078125 l 1
 352.00390625 111.0078125 l 1
 352.00390625 103.0078125 l 1xc6
352.00390625 173.0078125 m 1x96
 81.99609375 173.0078125 l 1
 81.99609375 181.0078125 l 1
 352.00390625 181.0078125 l 1
 352.00390625 173.0078125 l 1x96
213 0 m 1
 213 103.93359375 l 1
 221 103.93359375 l 1xa6
 221 0 l 1
 213 0 l 1
219.118164062 266.596679688 m 5
 214.881835938 266.596679688 l 5
 5 545.93359375 l 1
 12 550.93359375 l 1
 217 277.239257812 l 5
 422 550.93359375 l 1
 429 545.93359375 l 1
 219.118164062 266.596679688 l 5
EndSplineSet
Validated: 524293
EndChar

StartChar: degree
Encoding: 176 176 149
Width: 270
Flags: W
HStem: 514.291 6.2002<108.932 161.068> 732.792 6.2002<110.215 159.785>
VStem: 30 5.9082<598.078 653.271> 234.092 5.9082<598.078 653.271>
LayerCount: 2
Fore
SplineSet
35.908203125 625.647460938 m 4
 35.908203125 557.907226562 78.595703125 520.491210938 135 520.491210938 c 4
 191.40625 520.491210938 234.091796875 557.907226562 234.091796875 625.647460938 c 4
 234.091796875 693.392578125 191.40625 732.791992188 135 732.791992188 c 4
 78.595703125 732.791992188 35.908203125 693.392578125 35.908203125 625.647460938 c 4
30 625.590820312 m 0
 30 697.291015625 75.30078125 738.9921875 135 738.9921875 c 0
 194.69921875 738.9921875 240 697.291015625 240 625.590820312 c 0
 240 553.891601562 194.69921875 514.291015625 135 514.291015625 c 0
 75.30078125 514.291015625 30 553.891601562 30 625.590820312 c 0
EndSplineSet
Validated: 524289
EndChar

StartChar: ring
Encoding: 730 730 150
Width: 200
Flags: W
HStem: 611.201 5.52832<80.3845 119.616> 755.474 5.52832<80.3845 119.616>
VStem: 30 5.24121<664.493 706.458> 164.759 5.24121<664.493 706.458>
LayerCount: 2
Fore
SplineSet
35.2412109375 685.452148438 m 4
 35.2412109375 641.181640625 63.1376953125 616.729492188 100 616.729492188 c 0
 136.86328125 616.729492188 164.758789062 641.181640625 164.758789062 685.452148438 c 0
 164.758789062 729.725585938 136.86328125 755.473632812 100 755.473632812 c 0
 63.1376953125 755.473632812 35.2412109375 729.725585938 35.2412109375 685.452148438 c 4
30 685.401367188 m 4
 30 733.201171875 60.2001953125 761.001953125 100 761.001953125 c 0
 139.799804688 761.001953125 170 733.201171875 170 685.401367188 c 0
 170 637.6015625 139.799804688 611.201171875 100 611.201171875 c 0
 60.2001953125 611.201171875 30 637.6015625 30 685.401367188 c 4
EndSplineSet
Validated: 524289
EndChar

StartChar: thorn
Encoding: 254 254 151
Width: 545
Flags: W
HStem: -9.99805 7.45312<243.52 326.389> 483.48 7.45312<278.519 347.582> 741.002 20G<64 72>
VStem: 64 8<-179.994 761.002> 507 8<185.023 284.246>
LayerCount: 2
Fore
SplineSet
507 230.935546875 m 0
 507 400 413.1171875 483.48046875 315 483.48046875 c 0
 153.8828125 483.48046875 69 318 69 318 c 1
 67 329 l 1
 67 329 152.857421875 490.93359375 315 490.93359375 c 0
 417.142578125 490.93359375 515 406 515 230.935546875 c 0
 515 84.1591796875 417.142578125 -9.998046875 285 -9.998046875 c 0
 152.857421875 -9.998046875 67 81.935546875 67 81.935546875 c 1
 69 92.935546875 l 1
 69 92.935546875 153.8828125 -2.544921875 285 -2.544921875 c 0
 413.1171875 -2.544921875 507 85.5537109375 507 230.935546875 c 0
64 761.001953125 m 5
 72 761.001953125 l 29
 72 -179.994140625 l 1
 64 -179.994140625 l 1
 64 761.001953125 l 5
EndSplineSet
Validated: 524293
EndChar

StartChar: Thorn
Encoding: 222 222 152
Width: 505
Flags: W
HStem: 0 21G<50 58> 170 7.45312<104.023 255.437> 561.547 7.45312<75.3726 275.093> 711.008 20G<50 58>
VStem: 50 8<0 554 562 731.008> 467.637 7.36328<333.017 411.782>
LayerCount: 2
Fore
SplineSet
50 0 m 1
 50 731.0078125 l 1
 58 731.0078125 l 1
 58 0 l 1
 50 0 l 1
53 554 m 1
 52 562 l 1
 52 562 116.200195313 569 215 569 c 0
 415.275390625 569 475 478.096679688 475 371 c 0
 475 255.83984375 397.162109375 180.108398438 215 170 c 0
 135.023103243 165.561984098 104 165 104 165 c 1
 103 172.859375 l 1
 103 172.859375 134.950406186 172.788632957 215 177.453125 c 0
 396 188 467.63671875 260.272460938 467.63671875 371.069335938 c 0
 467.63671875 473.766601562 410.961914062 561.546875 215 561.546875 c 0
 113.80078125 561.546875 53 554.109375 53 554 c 1
EndSplineSet
Validated: 524325
EndChar

StartChar: uni00AD
Encoding: 173 173 153
Width: 299
Flags: W
HStem: 193 38.0078
VStem: 16 268.008
LayerCount: 2
Fore
SplineSet
284.0078125 223 m 1
 16 193 l 1
 15 201.0078125 l 1
 283.0078125 231.0078125 l 1
 284.0078125 223 l 1
EndSplineSet
Validated: 524289
EndChar

StartChar: logicalnot
Encoding: 172 172 154
Width: 420
Flags: W
HStem: 343.008 8<25 387.008>
VStem: 387.008 8<210 343.008>
LayerCount: 2
Fore
SplineSet
395.0078125 351.0078125 m 1
 395.0078125 210 l 1
 387.0078125 210 l 1
 387.0078125 343.0078125 l 1
 25 343.0078125 l 1
 25 351.0078125 l 1
 395.0078125 351.0078125 l 1
EndSplineSet
Validated: 524289
EndChar

StartChar: plusminus
Encoding: 177 177 155
Width: 300
Flags: W
HStem: 165.008 8<25 275.008> 172.004 1.00391<146.004 154.004> 293.008 8<25 275.008>
VStem: 146.004 8<172.004 422.012>
LayerCount: 2
Fore
SplineSet
275.0078125 165.0078125 m 5xb0
 25 165.0078125 l 5
 25 173.0078125 l 5
 275.0078125 173.0078125 l 5
 275.0078125 165.0078125 l 5xb0
154.00390625 422.01171875 m 5
 154.00390625 172.00390625 l 5
 146.00390625 172.00390625 l 5x70
 146.00390625 422.01171875 l 5
 154.00390625 422.01171875 l 5
275.0078125 293.0078125 m 5
 25 293.0078125 l 5
 25 301.0078125 l 5
 275.0078125 301.0078125 l 5
 275.0078125 293.0078125 l 5
EndSplineSet
Validated: 524293
EndChar

StartChar: NameMe.65559
Encoding: 65559 -1 156
Width: 729
Flags: W
HStem: 0 21G<119.008 136.752 333.008 350.752> 203 8<50 578.008> 482 8<151 679.008> 718.992 20G<397.268 414.008 611.268 628.008>
LayerCount: 2
Fore
SplineSet
578.0078125 203 m 5
 50 203 l 5
 50 211 l 5
 578.0078125 211 l 5
 578.0078125 203 l 5
679.0078125 482 m 1
 151 482 l 1
 151 490 l 1
 679.0078125 490 l 1
 679.0078125 482 l 1
333.0078125 0 m 1
 619.0078125 738.9921875 l 1
 628.0078125 736 l 1
 343.0078125 0 l 1
 333.0078125 0 l 1
119.0078125 0 m 1
 405.0078125 738.9921875 l 1
 414.0078125 736 l 1
 129.0078125 0 l 1
 119.0078125 0 l 1
EndSplineSet
Validated: 524293
EndChar

StartChar: ampersand
Encoding: 38 38 157
Width: 618
Flags: W
HStem: 0 7.45312<261.424 358.074> 303 7<286 300.458> 731.547 7.44531<262.503 347.545>
VStem: 30 7.45605<196.824 280.423> 149.598 7<587.058 645.73> 554 7<173.893 245.521>
LayerCount: 2
Fore
SplineSet
286 310 m 1
 371 326 515 378 602 434 c 1
 606 428 l 1
 517 372 374 319 288 303 c 1
 286 310 l 1
266.116210938 484.506835938 m 1
 193 503 149.59765625 547.1015625 149.59765625 617.05859375 c 4
 149.59765625 688.5390625 197.302734375 738.9921875 306.368164062 738.9921875 c 0
 396.272460938 738.9921875 421.6796875 702.908203125 421.6796875 702.908203125 c 1
 417.356445312 696 l 1
 417.356445312 696 390.580078125 731.546875 306.368164062 731.546875 c 0
 200.005859375 731.546875 156.59765625 680 156.59765625 617.05859375 c 4
 156.59765625 552.08984375 196 505 282.62890625 487.1171875 c 1
 281.62890625 481.1171875 l 1
 103.688476562 450.615234375 37.4560546875 364.05859375 37.4560546875 232.05859375 c 0
 37.4560546875 118.869140625 134.505859375 7.453125 308.439453125 7.453125 c 0
 476.858398438 7.453125 554 109 554 206 c 0
 554 309.552734375 489 371 489 371 c 1
 494 375 l 1
 494 375 561 312.741210938 561 206 c 0
 561 108 486.03125 0 308.439453125 0 c 0
 134.0859375 0 30 109.618164063 30 232.708007812 c 0
 30 369.110351562 101 454 266.116210938 484.506835938 c 1
EndSplineSet
Validated: 524293
EndChar

StartChar: dagger
Encoding: 8224 8224 160
Width: 550
Flags: W
HStem: 473.011 8<25 525.008>
VStem: 271 8<-184 815.008>
LayerCount: 2
Fore
SplineSet
525.0078125 473.010742188 m 1
 275 473.010742188 l 5
 25 473.010742188 l 1
 25 481.010742188 l 1
 275 481.010742188 l 1
 525.0078125 481.010742188 l 1
 525.0078125 473.010742188 l 1
271 -184 m 1
 271 477 l 1
 271 815.0078125 l 1
 279 815.0078125 l 1
 279 477 l 1
 279 -184 l 1
 271 -184 l 1
EndSplineSet
Validated: 524293
EndChar

StartChar: daggerdbl
Encoding: 8225 8225 161
Width: 550
Flags: W
HStem: 193.011 8<25 525.008> 503.011 8<25 525.008>
VStem: 271 8<-184 815.008>
LayerCount: 2
Fore
SplineSet
525.0078125 193.010742188 m 1
 275 193.010742188 l 1
 25 193.010742188 l 1
 25 201.010742188 l 1
 275 201.010742188 l 1
 525.0078125 201.010742188 l 1
 525.0078125 193.010742188 l 1
525.0078125 503.010742188 m 1
 275 503.010742188 l 1
 25 503.010742188 l 1
 25 511.010742188 l 1
 275 511.010742188 l 1
 525.0078125 511.010742188 l 1
 525.0078125 503.010742188 l 1
271 -184 m 1
 271 197 l 1
 271 507 l 1
 271 815.0078125 l 1
 279 815.0078125 l 1
 279 507 l 1
 279 197 l 1
 279 -184 l 1
 271 -184 l 1
EndSplineSet
Validated: 524293
EndChar

StartChar: endash
Encoding: 8211 8211 162
Width: 520
Flags: W
HStem: 223 8.00781<25 495.008>
LayerCount: 2
Fore
SplineSet
25 223 m 5
 25 231.0078125 l 1
 495.0078125 231.0078125 l 1
 495.0078125 223 l 5
 25 223 l 5
EndSplineSet
Validated: 524289
EndChar

StartChar: emdash
Encoding: 8212 8212 163
Width: 920
Flags: W
HStem: 223 8.00781<25 895.008>
LayerCount: 2
Fore
SplineSet
25 223 m 1
 25 231.0078125 l 1
 895.0078125 231.0078125 l 1
 895.0078125 223 l 1
 25 223 l 1
EndSplineSet
Validated: 524289
EndChar

StartChar: guilsinglleft
Encoding: 8249 8249 164
Width: 257
Flags: W
HStem: 124.008 306
VStem: 5 250.008
LayerCount: 2
Fore
SplineSet
14.5 277.0078125 m 1
 255.0078125 131.0078125 l 1
 252.0078125 124.0078125 l 1
 5 273.0078125 l 1
 5 281.0078125 l 1
 252.0078125 430.0078125 l 1
 255.0078125 423.0078125 l 1
 14.5 277.0078125 l 1
EndSplineSet
Validated: 524289
EndChar

StartChar: guilsinglright
Encoding: 8250 8250 165
Width: 257
Flags: W
HStem: 124.008 306
VStem: 5 250.008
LayerCount: 2
Fore
SplineSet
245.5078125 277.0078125 m 1
 5 423.0078125 l 1
 8 430.0078125 l 1
 255.0078125 281.0078125 l 1
 255.0078125 273.0078125 l 1
 8 124.0078125 l 1
 5 131.0078125 l 1
 245.5078125 277.0078125 l 1
EndSplineSet
Validated: 524289
EndChar

StartChar: Euro
Encoding: 8364 8364 166
Width: 550
Flags: W
HStem: -10 7.45312<296.84 398.359> 227 8<6.99219 317> 227 3<98.0896 105.483> 297 8<6.99219 317> 303 2<99.1714 106.581> 543.48 7.45312<298.534 373.778>
LayerCount: 2
Fore
SplineSet
317 227 m 5xc4
 6.9921875 227 l 1
 6.9921875 235 l 1
 317 235 l 5
 317 227 l 5xc4
317 297 m 5x94
 6.9921875 297 l 1
 6.9921875 305 l 1
 317 305 l 5
 317 297 l 5x94
99.1714305548 303 m 1x8c
 114.753435684 450.920044674 212.518432186 550.93359375 338 550.93359375 c 0
 476.828125 550.93359375 524 432.451171875 524 432.451171875 c 1
 518 428.955078125 l 1
 518 428.955078125 469.784179688 543.48046875 338 543.48046875 c 0
 216.517824554 543.48046875 122.028910905 446.280118806 106.581221243 303 c 1
 99.1714305548 303 l 1x8c
105.483160566 230 m 1xa4
 116.829624294 76.366038402 213.162285214 -2.546875 338 -2.546875 c 0
 456.307617188 -2.546875 516 37.1279296875 516 37.1279296875 c 1
 519 28.7158203125 l 1
 519 28.7158203125 456.202148438 -10 338 -10 c 0
 209.128519376 -10 109.491377069 71.5432800918 98.0895872621 230 c 1
 105.483160566 230 l 1xa4
EndSplineSet
Validated: 524293
EndChar

StartChar: section
Encoding: 167 167 167
Width: 470
Flags: W
HStem: -60 7.44531<171.899 281.702> 721.002 7.44531<195.58 305.383>
VStem: 35.873 7.45605<339.053 390.045 558.738 617.95> 434.409 7<53.5424 107.063 280.17 326.887>
LayerCount: 2
Fore
SplineSet
67.859375 -16.0078125 m 5
 67.859375 -16.0078125 116.0078125 -52.5546875 227.653320312 -52.5546875 c 4
 382.76953125 -52.5546875 434.409179688 17.9921875 434.409179688 78.74609375 c 4
 434.409179688 141.38671875 395.640625 183.494140625 220.130859375 228.471679688 c 4
 78.859375 264.67578125 35.873046875 303.014648438 35.873046875 363.645507812 c 4
 35.873046875 451.0078125 125.118164062 477.909179688 125.118164062 477.909179688 c 5
 134.282226562 474.447265625 l 5
 134.282226562 474.447265625 43.3291015625 447.95703125 43.3291015625 364.53515625 c 4
 43.3291015625 306.01171875 88.0927734375 271.545898438 219.967773438 237.130859375 c 4
 412.907226562 186.780273438 441.409179688 140.573242188 441.409179688 80.0341796875 c 4
 441.409179688 11.453125 388.923828125 -60 226.444335938 -60 c 4
 109.391601562 -60 64.5361328125 -22.916015625 64.5361328125 -22.916015625 c 5
 67.859375 -16.0078125 l 5
409.422665625 684.455078125 m 1
 409.422665625 684.455078125 361.274228125 721.001953125 249.628559757 721.001953125 c 0
 94.5129 721.001953125 42.873046875 650.455078125 42.873046875 589.701202774 c 0
 42.873046875 527.060546875 81.6416015625 484.953125 257.151632684 439.975108553 c 0
 398.422851562 403.771484375 441.409179688 365.432617188 441.409179688 304.801485747 c 0
 441.409179688 217.439453125 352.1640625 190.538085938 352.1640625 190.538085938 c 1
 343 194 l 1
 343 194 433.953125 220.490234375 433.953125 303.911780028 c 0
 433.953125 362.435546875 389.189453125 396.901367188 257.31465919 431.31624381 c 0
 64.375 481.666992188 35.873046875 527.874023438 35.873046875 588.412818144 c 0
 35.873046875 656.994140625 88.3582125 728.447265625 250.837771941 728.447265625 c 0
 367.890439062 728.447265625 412.745907812 691.36328125 412.745907812 691.36328125 c 1
 409.422665625 684.455078125 l 1
EndSplineSet
Validated: 524293
EndChar

StartChar: at
Encoding: 64 64 168
Width: 798
Flags: W
HStem: -140 7.45312<336.9 453.823> 52.5215 7.45312<317.252 379.888 604.189 657.672> 414 7.45312<381.106 447.091> 601.547 7.45312<353.31 471.462>
VStem: 30 7.36328<160.441 278.358> 217 8<154.474 239.674> 527.018 7.98242<164.455 175.455> 533 1.91797<164.455 174.64> 760.637 7.36328<211.136 332.988>
LayerCount: 2
Fore
SplineSet
225 189.51953125 m 0xfe80
 225 102.796349105 284.654296875 59.974609375 347 59.974609375 c 0
 468.82067724 59.974609375 533 175.455078125 533 175.455078125 c 1xfd80
 535 164.455078125 l 1
 535 164.455078125 469.914922805 52.521484375 347 52.521484375 c 0
 280.607421875 52.521484375 217 97.274915399 217 189.51953125 c 0
 217 330.813278308 302.093994141 421.453125 417 421.453125 c 0
 503.649414062 421.453125 553 345 553 345 c 1
 551 336 l 1
 551 336 499.555664062 414 417 414 c 0
 306.196134868 414 225 329.297563827 225 189.51953125 c 0xfe80
30 211 m 0
 30 462.645502646 168.073660714 609 407 609 c 0
 649.699573606 609 768 488.24145306 768 276 c 0
 768 103.578727129 714.517646257 53 627 53 c 0
 561.027648793 53 527.017578125 99.7678540415 527.017578125 160 c 0xfe80
 527.017578125 218.820875864 533.210018218 238.005892633 539.932617188 283.62109375 c 2
 559 413 l 1
 567 413 l 1
 547.083007812 278.879882812 l 2
 541.610031184 242.025107762 534.91796875 218.398152753 534.91796875 162 c 0
 534.91796875 102.955416487 566.967290085 61 629 61 c 0
 707.370846955 61 760.63671875 105.590095766 760.63671875 277 c 0
 760.63671875 483.487245941 645.961972886 601.546875 407 601.546875 c 0
 171.888431176 601.546875 37.36328125 457.959001105 37.36328125 211.069335938 c 0
 37.36328125 -10.290662915 190.559776701 -132.546875 393 -132.546875 c 0
 564.841142371 -132.546875 653.979492188 -54.6240234375 653.979492188 -54.6240234375 c 1
 658.243164062 -60.517578125 l 1
 658.243164062 -60.517578125 566.098531189 -140 393 -140 c 0
 186.608118318 -140 30 -15.115902965 30 211 c 0
EndSplineSet
Validated: 524293
EndChar

StartChar: braceleft
Encoding: 123 123 169
Width: 413
Flags: W
HStem: -189.994 6<236.985 328.125> 307 7.00586<24.6504 182.411> 804 6<237.335 328.474>
VStem: 75.25 7<-47.5068 31.2126 595.199 662.902> 204.153 6.98633<257.936 286.245 332.848 365.217>
LayerCount: 2
Fore
SplineSet
25 307 m 1
 24.650390625 307.005859375 l 1
 24.650390625 314.005859375 l 1
 164.998046875 314.009765625 l 2
 190.277352727 314.010469216 204.153320312 329.199597165 204.153320312 347 c 0
 204.153320312 411 75.599609375 477 75.599609375 629 c 4
 75.599609375 736 144.60546875 810 277.69921875 810 c 0
 360.299804688 810 398.69921875 790 398.69921875 790 c 1
 396.69921875 785 l 1
 396.69921875 785 360.899414062 804 277.349609375 804 c 0
 152.349609375 804 82.599609375 737 82.599609375 629 c 4
 82.599609375 479.555664062 211.139648438 415.198242188 211.139648438 345.869140625 c 0
 211.139648438 319.542656492 182.5390625 310.345703125 182.5390625 310.345703125 c 1
 182.5390625 310.345703125 210.790039062 300.34320388 210.790039062 274.13671875 c 0
 210.790039063 204.807617188 82.25 140.450195312 82.25 -8.994140625 c 4
 82.25 -116.994140625 152 -183.994140625 277 -183.994140625 c 0
 360.549804688 -183.994140625 396.349609375 -164.994140625 396.349609375 -164.994140625 c 1
 398.349609375 -169.994140625 l 1
 398.349609375 -169.994140625 359.950195312 -189.994140625 277.349609375 -189.994140625 c 0
 144.255859375 -189.994140625 75.25 -115.994140625 75.25 -8.994140625 c 4
 75.25 143.005859375 203.803710938 209.005859375 203.803710938 273.005859375 c 0
 203.803710938 290.806663861 189.927527984 306.651489085 164.846204734 307 c 2
 25 307 l 1
EndSplineSet
Validated: 524289
EndChar

StartChar: braceright
Encoding: 125 125 170
Width: 413
Flags: W
HStem: -189.994 6<85.2248 176.364> 307 7.00977<230.938 388.699> 804 6<84.8752 176.015>
VStem: 202.56 6.98633<254.789 287.235 332.023 365.217> 331.1 7<-47.5068 31.2126 595.199 662.902>
LayerCount: 2
Fore
SplineSet
388.349609375 307 m 5
 248.502929688 307 l 6
 223.421875 306.651367188 209.545898438 290.806640625 209.545898438 273.005859375 c 4
 209.545898438 209.005859375 338.099609375 143.005859375 338.099609375 -8.994140625 c 4
 338.099609375 -115.994140625 269.09375 -189.994140625 136 -189.994140625 c 4
 53.3994140625 -189.994140625 15 -169.994140625 15 -169.994140625 c 5
 17 -164.994140625 l 5
 17 -164.994140625 52.7998046875 -183.994140625 136.349609375 -183.994140625 c 4
 261.349609375 -183.994140625 331.099609375 -116.994140625 331.099609375 -8.994140625 c 4
 331.099609375 140.450195312 202.559570312 204.807617188 202.559570312 274.13671875 c 4
 202.559570312 300.342773438 230.810546875 310.345703125 230.810546875 310.345703125 c 5
 230.810546875 310.345703125 202.209960938 319.54296875 202.209960938 345.869140625 c 4
 202.209960938 415.198242188 330.75 479.555664062 330.75 629 c 4
 330.75 737 261 804 136 804 c 4
 52.4501953125 804 16.650390625 785 16.650390625 785 c 5
 14.650390625 790 l 5
 14.650390625 790 53.0498046875 810 135.650390625 810 c 4
 268.744140625 810 337.75 736 337.75 629 c 4
 337.75 477 209.196289062 411 209.196289062 347 c 4
 209.196289062 329.19921875 223.072265625 314.010742188 248.3515625 314.009765625 c 6
 388.69921875 314.005859375 l 5
 388.69921875 307.005859375 l 5
 388.349609375 307 l 5
EndSplineSet
Validated: 524289
EndChar

StartChar: sterling
Encoding: 163 163 171
Width: 481
Flags: W
HStem: 0 8<25 436> 261.504 8<73.4961 391.504> 553.934 7<299.995 349.494>
LayerCount: 2
Fore
SplineSet
391.50390625 261.50390625 m 1
 73.49609375 261.50390625 l 1
 73.49609375 269.50390625 l 1
 391.50390625 269.50390625 l 1
 391.50390625 261.50390625 l 1
322 553.93359375 m 0
 267 553.93359375 245.728515625 509.633789062 208.219726562 326.899414062 c 0
 169.266601562 137.125976562 25 8 25 8 c 1
 436 8 l 1
 436 0 l 1
 17 0 l 1
 16 10 l 1
 16 10 164.7109375 140.952148438 201.895507812 330.361328125 c 0
 238.576171875 517.204101562 266 560.93359375 321 560.93359375 c 0
 358 560.93359375 379.16015625 551.779296875 379.16015625 545.299804688 c 4
 379.16015625 542.990234375 377.720703125 541.700195312 374.83984375 541.700195312 c 4
 365.479492188 541.700195312 356 553.93359375 322 553.93359375 c 0
EndSplineSet
Validated: 524293
EndChar

StartChar: asciitilde
Encoding: 126 126 172
Width: 372
Flags: W
HStem: 299 8<247.512 294.579> 386 8<66.1211 113.002>
LayerCount: 2
Fore
SplineSet
8 361 m 1
 8 361 47 394 93 394 c 0
 154 394 210 307 269 307 c 0
 317 307 358 350 358 350 c 1
 364 345 l 25
 364 345 322 299 271 299 c 0
 198 299 154 386 90 386 c 0
 54 386 13 355 13 355 c 1
 8 361 l 1
EndSplineSet
Validated: 1
EndChar

StartChar: tilde
Encoding: 732 732 173
Width: 342
Flags: W
HStem: 643.992 8<228.283 273.79> 730.992 8<57.2692 102.683>
VStem: 8 326
LayerCount: 2
Fore
SplineSet
8 705.9921875 m 1
 8 705.9921875 37 738.9921875 83 738.9921875 c 0
 144 738.9921875 190 651.9921875 249 651.9921875 c 4
 297 651.9921875 328 694.9921875 328 694.9921875 c 5
 334 689.9921875 l 29
 334 689.9921875 302 643.9921875 251 643.9921875 c 4
 181 643.9921875 144 730.9921875 80 730.9921875 c 0
 44 730.9921875 13 699.9921875 13 699.9921875 c 1
 8 705.9921875 l 1
EndSplineSet
Validated: 524289
EndChar

StartChar: cedilla
Encoding: 184 184 174
Width: 278
Flags: W
HStem: -139.011 8<70.9825 163.242>
VStem: 240.672 7.45605<-255.412 -204.295>
LayerCount: 2
Back
SplineSet
-272.63671875 361.069335938 m 4
 -272.63671875 126.825195312 -125.040039062 -2.546875 70 -2.546875 c 4
 235.497070312 -2.546875 319 47.1279296875 319 47.1279296875 c 5
 322 38.7158203125 l 5
 322 38.7158203125 234.568359375 -10 70 -10 c 4
 -129 -10 -280 122 -280 361 c 4
 -280 600 -129 739 70 739 c 4
 262.568359375 739 328 600.517578125 328 600.517578125 c 5
 322 597.021484375 l 5
 322 597.021484375 254.497070312 731.546875 70 731.546875 c 4
 -125.040039062 731.546875 -272.63671875 595.313476562 -272.63671875 361.069335938 c 4
EndSplineSet
Fore
SplineSet
70 -6 m 25
 49.646484375 -139.549804688 l 1
 49.646484375 -139.549804688 67.3349609375 -131.010742188 121.334960938 -131.010742188 c 0
 212.09375 -131.010742188 248.127929688 -177.02734375 248.127929688 -230.361328125 c 4
 248.127929688 -286.400390625 202.706054688 -324.375976562 144.671875 -344.010742188 c 0
 65.462890625 -370.809570312 20.671875 -374.010742188 20.671875 -374.010742188 c 1
 19.671875 -365.010742188 l 1
 19.671875 -365.010742188 63.423828125 -363.458007812 144.671875 -335.557617188 c 0
 200.508789062 -316.3828125 240.671875 -281.096679688 240.671875 -231.010742188 c 4
 240.671875 -177.541015625 204.168945312 -139.010742188 121.334960938 -139.010742188 c 0
 69.439453125 -139.010742188 47.3349609375 -149.010742188 47.3349609375 -149.010742188 c 1
 41.3349609375 -146.010742188 l 1
 61 -5 l 1
 70 -6 l 25
EndSplineSet
Validated: 524289
EndChar

StartChar: ogonek
Encoding: 731 731 175
Width: 278
Flags: W
HStem: -20 20G<215 226>
VStem: 28.6719 8.45605<-236.468 -173.795>
LayerCount: 2
Fore
SplineSet
215 0 m 1
 226 0 l 1
 226 0 37.1279296875 -81 37.1279296875 -201 c 4
 37.1279296875 -271.096679688 77.291015625 -313.3828125 133.127929688 -333.557617188 c 0
 213.920898438 -362.749023438 258.127929688 -363.010742188 258.127929688 -363.010742188 c 1
 258.127929688 -370.010742188 l 1
 258.127929688 -370.010742188 212.336914062 -368.809570312 133.127929688 -342.010742188 c 0
 75.09375 -322.375976562 28.671875 -276.400390625 28.671875 -203 c 4
 28.671875 -75 215 0 215 0 c 1
EndSplineSet
Validated: 524289
EndChar

StartChar: breve
Encoding: 728 728 176
Width: 270
Flags: W
HStem: 663.008 8<106.347 162.05> 716.008 20G<25 32 238.008 245.008>
VStem: 25 220.008
LayerCount: 2
Fore
SplineSet
245.0078125 734.0078125 m 1
 245.0078125 734.0078125 213 663.0078125 134 663.0078125 c 4
 56 663.0078125 25 734.0078125 25 734.0078125 c 1
 32 736.0078125 l 1
 32 736.0078125 61 671.0078125 134 671.0078125 c 4
 208 671.0078125 238.0078125 736.0078125 238.0078125 736.0078125 c 1
 245.0078125 734.0078125 l 1
EndSplineSet
Validated: 524289
EndChar

StartChar: gravecomb
Encoding: 768 768 177
Width: 0
Flags: W
HStem: 594 141.008
VStem: 0 88
LayerCount: 2
Fore
SplineSet
88 594 m 5
 83 591 l 5
 0 731.0078125 l 5
 8 735.0078125 l 5
 88 594 l 5
EndSplineSet
Validated: 524289
EndChar

StartChar: acutecomb
Encoding: 769 769 178
Width: 0
Flags: W
HStem: 594 141.008
VStem: 0 88
LayerCount: 2
Fore
SplineSet
0 594 m 1
 80 735.0078125 l 1
 88 731.0078125 l 1
 5 591 l 5
 0 594 l 1
EndSplineSet
Validated: 524289
EndChar

StartChar: uni0302
Encoding: 770 770 179
Width: 0
Flags: W
HStem: 594 141.008
VStem: 0 168
LayerCount: 2
Fore
SplineSet
0 594 m 1
 80 735.0078125 l 1
 88 735.0078125 l 1
 168 594 l 5
 163 591 l 5
 84 724.260742188 l 1
 5 591 l 1
 0 594 l 1
EndSplineSet
Validated: 524289
EndChar

StartChar: tildecomb
Encoding: 771 771 180
Width: 0
Flags: W
HStem: 643.992 8<220.283 265.79> 730.992 8<49.2692 94.6827>
VStem: 0 326
LayerCount: 2
Fore
SplineSet
0 705.9921875 m 1
 0 705.9921875 29 738.9921875 75 738.9921875 c 0
 136 738.9921875 182 651.9921875 241 651.9921875 c 4
 289 651.9921875 320 694.9921875 320 694.9921875 c 5
 326 689.9921875 l 29
 326 689.9921875 294 643.9921875 243 643.9921875 c 4
 173 643.9921875 136 730.9921875 72 730.9921875 c 0
 36 730.9921875 5 699.9921875 5 699.9921875 c 1
 0 705.9921875 l 1
EndSplineSet
Validated: 524289
EndChar

StartChar: uni0304
Encoding: 772 772 181
Width: 0
Flags: W
HStem: 723.008 8<0 220.008>
VStem: 0 220.008<723.008 731.008>
LayerCount: 2
Fore
SplineSet
220.0078125 723.0078125 m 5
 0 723.0078125 l 5
 0 731.0078125 l 5
 220.0078125 731.0078125 l 5
 220.0078125 723.0078125 l 5
EndSplineSet
Validated: 524289
EndChar

StartChar: uni0306
Encoding: 774 774 182
Width: 0
Flags: W
HStem: 663.008 8<81.3468 137.05> 716.008 20G<0 7 213.008 220.008>
VStem: 0 220.008
LayerCount: 2
Fore
SplineSet
220.0078125 734.0078125 m 1
 220.0078125 734.0078125 188 663.0078125 109 663.0078125 c 4
 31 663.0078125 0 734.0078125 0 734.0078125 c 1
 7 736.0078125 l 1
 7 736.0078125 36 671.0078125 109 671.0078125 c 4
 183 671.0078125 213.0078125 736.0078125 213.0078125 736.0078125 c 1
 220.0078125 734.0078125 l 1
EndSplineSet
Validated: 524289
EndChar

StartChar: uni0307
Encoding: 775 775 183
Width: 0
Flags: W
HStem: 673.81 72.1904<2.86882 67.6898>
VStem: 0 70.5586<676.223 743.484>
LayerCount: 2
Fore
SplineSet
0 709.57421875 m 0
 0 732.15234375 16.48046875 746 35.2802734375 746 c 0
 54.078125 746 70.55859375 732.15234375 70.55859375 709.57421875 c 0
 70.55859375 686.99609375 54.078125 673.809570312 35.2802734375 673.809570312 c 0
 16.48046875 673.809570312 0 686.99609375 0 709.57421875 c 0
EndSplineSet
Validated: 524289
EndChar

StartChar: uni0308
Encoding: 776 776 184
Width: 0
Flags: W
HStem: 673.81 72.1904<2.86882 67.6898 172.869 237.69>
VStem: 0 70.5586<676.223 743.484> 170 70.5586<676.223 743.484>
LayerCount: 2
Fore
SplineSet
170 709.57421875 m 4
 170 732.15234375 186.48046875 746 205.280273438 746 c 4
 224.078125 746 240.55859375 732.15234375 240.55859375 709.57421875 c 4
 240.55859375 686.99609375 224.078125 673.809570312 205.280273438 673.809570312 c 4
 186.48046875 673.809570312 170 686.99609375 170 709.57421875 c 4
0 709.57421875 m 0
 0 732.15234375 16.48046875 746 35.2802734375 746 c 0
 54.078125 746 70.55859375 732.15234375 70.55859375 709.57421875 c 0
 70.55859375 686.99609375 54.078125 673.809570312 35.2802734375 673.809570312 c 0
 16.48046875 673.809570312 0 686.99609375 0 709.57421875 c 0
EndSplineSet
Validated: 524289
EndChar

StartChar: uni030A
Encoding: 778 778 185
Width: 0
Flags: W
HStem: 611.201 5.52832<50.3845 89.6157> 755.474 5.52832<50.3845 89.6157>
VStem: 0 5.24121<664.493 706.458> 134.759 5.24121<664.493 706.458>
LayerCount: 2
Fore
SplineSet
5.2412109375 685.452148438 m 4
 5.2412109375 641.181640625 33.1376953125 616.729492188 70 616.729492188 c 0
 106.86328125 616.729492188 134.758789062 641.181640625 134.758789062 685.452148438 c 0
 134.758789062 729.725585938 106.86328125 755.473632812 70 755.473632812 c 0
 33.1376953125 755.473632812 5.2412109375 729.725585938 5.2412109375 685.452148438 c 4
0 685.401367188 m 4
 0 733.201171875 30.2001953125 761.001953125 70 761.001953125 c 0
 109.799804688 761.001953125 140 733.201171875 140 685.401367188 c 0
 140 637.6015625 109.799804688 611.201171875 70 611.201171875 c 0
 30.2001953125 611.201171875 0 637.6015625 0 685.401367188 c 4
EndSplineSet
Validated: 524289
EndChar

StartChar: uni030B
Encoding: 779 779 186
Width: 0
Flags: W
HStem: 594 141.008
VStem: 0 199
LayerCount: 2
Fore
SplineSet
0 594 m 5
 80 735.0078125 l 5
 88 731.0078125 l 5
 5 591 l 5
 0 594 l 5
111 594 m 1
 191 735.0078125 l 1
 199 731.0078125 l 1
 116 591 l 1
 111 594 l 1
EndSplineSet
Validated: 524289
EndChar

StartChar: uni030C
Encoding: 780 780 187
Width: 0
Flags: W
HStem: 591 141.008
VStem: 0 168
LayerCount: 2
Fore
SplineSet
168 732.0078125 m 1
 88 591 l 1
 80 591 l 1
 0 732.0078125 l 5
 5 735.0078125 l 5
 84 601.747070312 l 1
 163 735.0078125 l 1
 168 732.0078125 l 1
EndSplineSet
Validated: 524289
EndChar

StartChar: uni030F
Encoding: 783 783 188
Width: 0
Flags: W
HStem: 594 141.008
VStem: 0 199
LayerCount: 2
Fore
SplineSet
199 594 m 5
 194 591 l 5
 111 731.0078125 l 5
 119 735.0078125 l 5
 199 594 l 5
88 594 m 1
 83 591 l 1
 0 731.0078125 l 1
 8 735.0078125 l 1
 88 594 l 1
EndSplineSet
Validated: 524289
EndChar

StartChar: uni0311
Encoding: 785 785 189
Width: 0
Flags: W
HStem: 730.992 8<82.9582 138.661>
VStem: 0 220.008
LayerCount: 2
Fore
SplineSet
0 667.9921875 m 5
 0 667.9921875 32.0078125 738.9921875 111.0078125 738.9921875 c 4
 189.0078125 738.9921875 220.0078125 667.9921875 220.0078125 667.9921875 c 5
 213.0078125 665.9921875 l 5
 213.0078125 665.9921875 184.0078125 730.9921875 111.0078125 730.9921875 c 4
 37.0078125 730.9921875 7 665.9921875 7 665.9921875 c 5
 0 667.9921875 l 5
EndSplineSet
Validated: 524289
EndChar

StartChar: germandbls
Encoding: 223 223 190
Width: 501
Flags: W
HStem: 0 21G<50 58> 473.011 8<51 410> 739.002 21G<222 227> 763.002 8<116.451 178.626>
VStem: 50 8<0 473.011 481.011 698.962> 464 7.45605<-15.932 47.1457>
LayerCount: 2
Fore
SplineSet
146 771.001953125 m 0
 197 771.001953125 227 746.001953125 227 746.001953125 c 1
 222 739.001953125 l 1
 222 739.001953125 196 763.001953125 146 763.001953125 c 0
 89 763.001953125 58 731.001953125 58 662.001953125 c 2
 58 0 l 1
 50 0 l 1
 50 663.001953125 l 2
 50 733.001953125 83 771.001953125 146 771.001953125 c 0
410 473.010742188 m 1
 51 473.010742188 l 1
 51 481.010742188 l 1
 417 481.010742188 l 1
 419 473.010742188 l 1
 212 222.005859375 l 1
 376.654296875 194.44921875 471.456054688 119.005859375 471.456054688 14.6552734375 c 0
 471.456054688 -84.994140625 382.411132812 -148.56640625 268 -169.994140625 c 0
 170.4921875 -188.255859375 94 -189.994140625 94 -189.994140625 c 1
 93 -181.994140625 l 1
 93 -181.994140625 167.740234375 -181.491210938 268 -162.541015625 c 0
 382 -140.994140625 464 -77.994140625 464 14.005859375 c 0
 464 116.005859375 371.654296875 190.44921875 204.654296875 216.44921875 c 1
 203 222.005859375 l 1
 410 473.010742188 l 1
EndSplineSet
Validated: 524293
EndChar

StartChar: AE
Encoding: 198 198 191
Width: 904
Flags: W
HStem: 0 8<498 879> 331.504 8<233.496 854.504> 723.008 8<498 879>
VStem: 490 8<8 723.008>
LayerCount: 2
Fore
SplineSet
854.50390625 331.50390625 m 1
 229.49609375 331.50390625 l 5
 233.49609375 339.50390625 l 1
 854.50390625 339.50390625 l 1
 854.50390625 331.50390625 l 1
498 723.0078125 m 1
 498 8 l 1
 879 8 l 1
 879 0 l 1
 490 0 l 1
 490 731.0078125 l 1
 879 731.0078125 l 1
 879 723.0078125 l 1
 498 723.0078125 l 1
495 731.0078125 m 1
 15 0 l 1
 5 0 l 1
 486 731.0078125 l 1
 495 731.0078125 l 1
EndSplineSet
Validated: 524293
EndChar

StartChar: ae
Encoding: 230 230 192
Width: 900
Flags: W
HStem: -10 7.45312<622.146 726.737> -9.99805 7.45312<162.045 243.49> 227 8<428 539.948> 283.48 7.45312<176.362 276.257> 483.48 7.45312<616.346 694.303> 483.488 7.44531<199.182 294.537>
VStem: 30 8<113.989 181.423> 438 7<328 342.106>
LayerCount: 2
Fore
SplineSet
38 149 m 0x73
 38 59.935546875 101.8828125 -2.544921875 200 -2.544921875 c 0
 361.1171875 -2.544921875 448 135 448 135 c 1
 450 124 l 1
 450 124 362.142578125 -9.998046875 200 -9.998046875 c 0
 97.857421875 -9.998046875 30 53.935546875 30 149 c 0
 30 235.776367188 97.857421875 290.93359375 230 290.93359375 c 0
 362.142578125 290.93359375 428 219 428 219 c 1
 426 211 l 1
 426 211 361.1171875 283.48046875 230 283.48046875 c 0
 101.8828125 283.48046875 38 234.381835938 38 149 c 0x73
445 331 m 1
 438 328 l 1
 423 403 380.966796875 483.48828125 251.873046875 483.48828125 c 0
 152.021484375 483.48828125 73.873046875 446.94140625 73.873046875 446.94140625 c 1
 70.5498046875 453.849609375 l 1
 70.5498046875 453.849609375 145.405273438 490.93359375 251.873046875 490.93359375 c 0x37
 386.095703125 490.93359375 430 412 445 331 c 1
EndSplineSet
Refer: 43 101 N 1 0 0 1 395 0 2
Validated: 524293
EndChar

StartChar: kgreenlandic
Encoding: 312 312 193
Width: 395
Flags: W
HStem: 0 21G<50 58 323 390> 467.011 14G<50 58 324.845 358>
VStem: 50 8<0 262.004 269.004 481.011>
LayerCount: 2
Fore
SplineSet
352 487.010742188 m 1
 358 480.010742188 l 1
 65 266 l 1
 175 199 278 130 390 0 c 1
 377 0 l 1
 269 125 171 193 55.99609375 262.00390625 c 1
 55.99609375 269.00390625 l 1
 352 487.010742188 l 1
50 481.010742188 m 1
 58 481.010742188 l 1
 58 0 l 1
 50 0 l 1
 50 481.010742188 l 1
EndSplineSet
Validated: 524293
EndChar

StartChar: Eng
Encoding: 330 330 194
Width: 633
Flags: W
HStem: 0 21G<64 72> 480 21G<64 89.5> 732.008 9<330.316 421.956>
VStem: 64 8<0 670.93> 575 8<-11.3377 570.302>
LayerCount: 2
Fore
SplineSet
64 0 m 1
 64 635 l 2
 64 695.3125 35 731.0078125 35 731.0078125 c 1
 42 736.0078125 l 1
 42 736.0078125 72 696.09765625 72 638 c 2
 72 0 l 1
 64 0 l 1
575 29 m 2
 575 523.0078125 l 2
 575 678 475 732.0078125 375 732.0078125 c 0
 214 732.0078125 107 575.0078125 72 480 c 1
 64 480 l 1
 97 576.0078125 211 741.0078125 374 741.0078125 c 0
 478 741.0078125 583 683 583 525.0078125 c 2
 583 28 l 2
 583 -165 407 -179.994140625 407 -179.994140625 c 1
 406 -171.994140625 l 1
 406 -171.994140625 575 -156 575 29 c 2
EndSplineSet
Validated: 524293
EndChar

StartChar: eng
Encoding: 331 331 195
Width: 470
Flags: W
HStem: 0 21G<64 72> 483.48 7.45312<266.833 328.029>
VStem: 64 8<0 424.327> 412 8<-24.4702 374.931>
LayerCount: 2
Fore
SplineSet
420 14 m 2
 420 -134.997070312 294 -149.991210938 294 -149.991210938 c 1
 293 -141.991210938 l 1
 293 -141.991210938 412 -125.997070312 412 16 c 2
 412 322 l 2
 412 437 373.1171875 483.48046875 295 483.48046875 c 0
 173.8828125 483.48046875 69 318 69 318 c 1
 67 329 l 1
 67 329 172.857421875 490.93359375 295 490.93359375 c 0
 377.142578125 490.93359375 420 442 420 325 c 2
 420 14 l 2
64 0 m 1
 64 387 l 2
 64 451 35 483.0078125 35 483.0078125 c 1
 42 488.0078125 l 1
 42 488.0078125 72 451.60546875 72 390 c 2
 72 0 l 1
 64 0 l 1
EndSplineSet
Validated: 524293
EndChar

StartChar: Oslash
Encoding: 216 216 196
Width: 760
Flags: W
HStem: -10 7.45312<325.93 434.07> 731.547 7.45312<325.93 434.07>
VStem: 30 7.36328<307.528 414.662> 722.637 7.36328<307.528 414.662>
LayerCount: 2
Fore
SplineSet
56 -154 m 1
 678 830 l 1
 684 825.0078125 l 1
 65 -154 l 1
 56 -154 l 1
EndSplineSet
Refer: 1 79 N 1 0 0 1 0 0 2
Validated: 524293
EndChar

StartChar: oslash
Encoding: 248 248 197
Width: 560
Flags: W
HStem: -10 7.45312<235.333 324.667> 483.48 7.45312<235.333 324.667>
VStem: 30 7.36328<192.343 283.907> 522.637 7.36328<192.343 283.907>
LayerCount: 2
Fore
SplineSet
37 -154 m 5
 509 610 l 5
 515 605.0078125 l 5
 46 -154 l 5
 37 -154 l 5
EndSplineSet
Refer: 34 111 N 1 0 0 1 0 0 2
Validated: 524293
EndChar

StartChar: eth
Encoding: 240 240 198
Width: 549
Flags: W
HStem: -10 7.45312<230.728 317.816> 483.48 7.45312<240.712 324.519> 698 8<463.45 488.75> 741.002 20G<253 259>
VStem: 30 7.36328<188.542 265.836> 511 8<198.267 297.885>
LayerCount: 2
Fore
SplineSet
487 706 m 5
 489 698 l 5
 343 658 l 1
 341 666 l 1
 487 706 l 5
480 426.859375 m 1
 479 420 l 1
 479 420 389 483.48046875 279 483.48046875 c 0
 109.723632812 483.48046875 37.36328125 335.727539062 37.36328125 224.930664062 c 0
 37.36328125 122.233398438 118.038085938 -2.546875 274 -2.546875 c 0
 440 -2.546875 511 117 511 249 c 0
 511 509.904296875 253 755.001953125 253 755.001953125 c 1
 259 761.001953125 l 1
 259 761.001953125 519 512 519 249 c 0
 519 104 435.799804688 -10 274 -10 c 0
 106.724609375 -10 30 125.903320312 30 225 c 0
 30 340.16015625 106.584960938 490.93359375 279 490.93359375 c 0
 392 490.93359375 480 426.859375 480 426.859375 c 1
EndSplineSet
Validated: 524293
EndChar

StartChar: Eth
Encoding: 208 208 199
Width: 745
Flags: W
HStem: -10 7.45312<207.867 389.052> 349 8<7.99219 308> 731.547 7.45312<196.131 383.118>
VStem: 120 8<7.34512 723.334> 707.637 7.36328<300.45 422.234>
LayerCount: 2
Fore
SplineSet
308 349 m 1
 7.9921875 349 l 1
 7.9921875 357 l 1
 308 357 l 1
 308 349 l 1
EndSplineSet
Refer: 16 68 N 1 0 0 1 70 0 2
Validated: 524293
EndChar

StartChar: female
Encoding: 9792 9792 200
Width: 560
Flags: W
HStem: 0 21G<275.996 283.996> 172.008 8<125.996 434.004> 286.9 4.36621<275.996 283.996> 730.073 8.91895<234.364 325.636>
VStem: 54.375 8.83496<463.775 557.955> 275.996 8<0 291.267> 496.79 8.83496<463.775 557.955>
LayerCount: 2
Fore
SplineSet
275.99609375 0 m 1
 275.99609375 291.266601562 l 5
 283.99609375 291.266601562 l 5
 283.99609375 0 l 1
 275.99609375 0 l 1
434.00390625 172.0078125 m 1
 125.99609375 172.0078125 l 1
 125.99609375 180.0078125 l 1
 434.00390625 180.0078125 l 1
 434.00390625 172.0078125 l 1
63.2099609375 510.8046875 m 4
 63.2099609375 372.309570312 156.595703125 295.819335938 280 295.819335938 c 4
 403.404296875 295.819335938 496.790039062 372.309570312 496.790039062 510.8046875 c 4
 496.790039062 649.442382812 403.404296875 730.073242188 280 730.073242188 c 4
 156.595703125 730.073242188 63.2099609375 649.442382812 63.2099609375 510.8046875 c 4
54.375 510.719726562 m 4
 54.375 655.05078125 151.716796875 738.9921875 280 738.9921875 c 4
 408.283203125 738.9921875 505.625 655.05078125 505.625 510.719726562 c 4
 505.625 366.534179688 408.283203125 286.900390625 280 286.900390625 c 4
 151.716796875 286.900390625 54.375 366.534179688 54.375 510.719726562 c 4
EndSplineSet
Validated: 524293
EndChar

StartChar: male
Encoding: 9794 9794 201
Width: 667
Flags: W
HStem: -10 8.91895<234.364 325.636> 433.173 8.91895<234.364 346.23> 684.886 6<402.728 611.728>
VStem: 54.375 8.83496<166.874 261.055> 496.79 8.83496<166.874 261.055> 611.728 5.65723<495.23 684.886>
LayerCount: 2
Fore
SplineSet
611.727539062 684.885742188 m 1
 402.727539062 684.885742188 l 1
 402.727539062 690.885742188 l 1
 611.727539062 690.885742188 l 1
 617.384765625 685.229492188 l 1
 617.384765625 495.23 l 1
 611.727539062 495.23 l 5
 611.727539062 684.885742188 l 1
351.342773438 430.506835938 m 1
 609.409179688 688.573242188 l 1
 615.06640625 682.916992188 l 1
 357 424.850585938 l 1
 351.342773438 430.506835938 l 1
63.2099609375 213.904296875 m 0
 63.2099609375 75.4091796875 156.595703125 -1.0810546875 280 -1.0810546875 c 0
 403.404296875 -1.0810546875 496.790039062 75.4091796875 496.790039062 213.904296875 c 0
 496.790039062 352.541992188 403.404296875 433.172851562 280 433.172851562 c 0
 156.595703125 433.172851562 63.2099609375 352.541992188 63.2099609375 213.904296875 c 0
54.375 213.819335938 m 0
 54.375 358.150390625 151.716796875 442.091796875 280 442.091796875 c 0
 408.283203125 442.091796875 505.625 358.150390625 505.625 213.819335938 c 0
 505.625 69.6337890625 408.283203125 -10 280 -10 c 0
 151.716796875 -10 54.375 69.6337890625 54.375 213.819335938 c 0
EndSplineSet
Validated: 524293
EndChar

StartChar: uni2713
Encoding: 10003 10003 202
Width: 504
Flags: W
HStem: 0 21G<181 261.134> 468.008 20G<5 57> 717.992 20G<425.412 503>
LayerCount: 2
Fore
SplineSet
5 484.0078125 m 1
 11 488.0078125 l 1
 103 335 160.381383268 212.938295383 209.509765625 13.4248046875 c 5
 304.809572757 344.650742477 353.823242188 466.400390625 497 737.9921875 c 1
 503 733.9921875 l 1
 358.057617188 456.212890625 309.268637892 334.906108833 213 0 c 1
 206 0 l 5
 156 204 99.3642857408 332.372681141 5 484.0078125 c 1
EndSplineSet
Validated: 524289
EndChar

StartChar: OE
Encoding: 338 338 203
Width: 1034
Flags: W
HStem: -10 7.45312<361.882 485.191> 0 8<628 1009> 371.504 8<626.496 984.504> 723.008 8<628 1009> 731.547 7.45312<355.948 488.552>
VStem: 30 7.36328<306.766 428.55> 620 8<8 371.504 379.504 723.008>
LayerCount: 2
Fore
SplineSet
625 17.9921875 m 1
 625 17.9921875 518.799804688 -10 420 -10 c 0
 159.724609375 -10 30 140.903320312 30 368 c 0
 30 593.16015625 157.584960938 739 420 739 c 0
 528.799804688 739 625 709 625 709 c 1
 625 701.655273438 l 1
 625 701.655273438 527.981445312 731.546875 420 731.546875 c 0
 161.942382812 731.546875 37.36328125 588.727539062 37.36328125 367.930664062 c 0
 37.36328125 145.233398438 164.038085938 -2.546875 420 -2.546875 c 0
 521.19921875 -2.546875 625 25.666015625 625 25.666015625 c 1
 625 17.9921875 l 1
EndSplineSet
Refer: 11 69 N 1 0 0 1 570 0 2
Validated: 524293
EndChar

StartChar: oe
Encoding: 339 339 204
Width: 866
Flags: W
HStem: -10 7.45312<588.146 692.737> -10 7.45312<227.146 323.98> 227 8<394 505.948> 483.48 7.45312<582.346 660.303> 483.48 7.45312<227.146 321.5>
VStem: 30 7.36328<188.236 279.75>
LayerCount: 2
Fore
SplineSet
37.36328125 231.069335938 m 0x6c
 37.36328125 87.0146484375 137.575562602 -2.546875 270 -2.546875 c 0
 408.971838086 -2.546875 466 54.1279296875 466 54.1279296875 c 1
 472 48.7158203125 l 1
 472 48.7158203125 408.855046473 -10 270 -10 c 0
 133.542857143 -10 30 82.1884765625 30 231 c 0
 30 401.671875 133.542857143 490.93359375 270 490.93359375 c 0
 403.32125142 490.93359375 458 424.451171875 458 424.451171875 c 1
 453 418.955078125 l 1
 453 418.955078125 403.247932925 483.48046875 270 483.48046875 c 0
 137.575562602 483.48046875 37.36328125 396.985351562 37.36328125 231.069335938 c 0x6c
EndSplineSet
Refer: 43 101 N 1 0 0 1 361 0 2
Validated: 524293
EndChar

StartChar: longs
Encoding: 383 383 205
Width: 242
Flags: W
HStem: 0 21G<50 58> 739.002 21G<222 227> 763.002 8<116.451 178.626>
VStem: 50 8<0 698.962>
LayerCount: 2
Fore
SplineSet
146 771.001953125 m 0
 197 771.001953125 227 746.001953125 227 746.001953125 c 1
 222 739.001953125 l 1
 222 739.001953125 196 763.001953125 146 763.001953125 c 0
 89 763.001953125 58 731.001953125 58 662.001953125 c 2
 58 0 l 1
 50 0 l 1
 50 663.001953125 l 2
 50 733.001953125 83 771.001953125 146 771.001953125 c 0
EndSplineSet
Validated: 524289
EndChar

StartChar: uni018F
Encoding: 399 399 206
Width: 733
Flags: W
HStem: -10 7.45312<306.652 403.213> 373.992 8<529.389 700> 731.539 7.45312<266.904 396.944>
LayerCount: 2
Back
SplineSet
37.36328125 351.069335938 m 4
 37.36328125 133.01908781 190.129168029 -2.546875 392 -2.546875 c 4
 561.330288069 -2.546875 661 48.1279296875 661 48.1279296875 c 5
 664 39.7158203125 l 5
 664 39.7158203125 560.377982503 -10 392 -10 c 4
 186.177142857 -10 30 128.091452444 30 351 c 4
 30 605.754890165 178.398704594 738.9921875 386 738.9921875 c 4
 689.099329065 738.9921875 708 387.451171875 708 387.451171875 c 5
 707 378.451171875 l 5
 707 378.451171875 371.511210762 351 33 347 c 5
 32 355 l 5
 369.303022348 359 698.982421875 386.081054688 698.982421875 386.081054688 c 5
 698.982421875 386.081054688 682.827537726 731.5390625 386 731.5390625 c 4
 182.290073197 731.5390625 37.36328125 601.161399602 37.36328125 351.069335938 c 4
EndSplineSet
Fore
SplineSet
695.63671875 377.922851562 m 4
 695.63671875 595.97265625 542.87109375 731.5390625 341 731.5390625 c 4
 171.669921875 731.5390625 72 680.864257812 72 680.864257812 c 5
 69 689.276367188 l 5
 69 689.276367188 172.622070312 738.9921875 341 738.9921875 c 4
 546.823242188 738.9921875 703 600.900390625 703 377.9921875 c 4
 703 123.237304688 554.6015625 -10 347 -10 c 4
 43.900390625 -10 25 341.541015625 25 341.541015625 c 5
 26 350.541015625 l 5
 26 350.541015625 361.489257812 377.9921875 700 381.9921875 c 5
 701 373.9921875 l 5
 363.697265625 369.9921875 34.017578125 342.911132812 34.017578125 342.911132812 c 5
 34.017578125 342.911132812 50.1728515625 -2.546875 347 -2.546875 c 4
 550.709960938 -2.546875 695.63671875 127.831054688 695.63671875 377.922851562 c 4
EndSplineSet
Validated: 524293
EndChar

StartChar: uni0190
Encoding: 400 400 207
Width: 464
Flags: W
HStem: 0 7.45312<207.399 324.119> 369 6.61523<299.674 307.68> 731.547 7.44531<209.987 309.6>
VStem: 30 7.45605<132.558 203.755> 48.5977 7<543.212 607.612>
LayerCount: 2
Back
SplineSet
158 369 m 1
 157.991210938 375.615234375 l 1
 343 420 410.08203125 473.166015625 410.08203125 580.05859375 c 0
 410.08203125 643 363.048828125 731.546875 208.311523438 731.546875 c 0
 97.4716796875 731.546875 29.3232421875 686 29.3232421875 686 c 1
 25 692.908203125 l 1
 25 692.908203125 90.85546875 738.9921875 208.311523438 738.9921875 c 0
 365.177734375 738.9921875 417.08203125 651.5390625 417.08203125 580.05859375 c 0
 417.08203125 478.867709815 361.523949837 419.555216322 177.863446976 373.782118307 c 1
 346.265944083 347.138174383 435.6796875 273.115234375 435.6796875 171.708007812 c 4
 435.6796875 64 372.592773438 0 198.240234375 0 c 0
 101.663085938 0 26 30 26 30 c 1
 28 37 l 1
 28 37 106.663085938 7.453125 198.240234375 7.453125 c 0
 372.172851562 7.453125 428.223632812 73 428.223632812 171.05859375 c 4
 428.223632812 273.05859375 329.940429688 348.498046875 158 369 c 1
EndSplineSet
Fore
SplineSet
307.6796875 369 m 1
 307.688476562 375.615234375 l 1
 122.6796875 420 55.59765625 473.166015625 55.59765625 580.05859375 c 0
 55.59765625 643 102.630859375 731.546875 257.368164062 731.546875 c 0
 368.208007812 731.546875 436.356445312 686 436.356445312 686 c 1
 440.6796875 692.908203125 l 1
 440.6796875 692.908203125 374.82421875 738.9921875 257.368164062 738.9921875 c 0
 100.501953125 738.9921875 48.59765625 651.5390625 48.59765625 580.05859375 c 0
 48.59765625 478.868164062 104.155273438 419.555664062 287.81640625 373.782226562 c 1
 119.4140625 347.137695312 30 273.115234375 30 171.708007812 c 0
 30 64 93.0869140625 0 267.439453125 0 c 0
 364.016601562 0 439.6796875 30 439.6796875 30 c 1
 437.6796875 37 l 1
 437.6796875 37 359.016601562 7.453125 267.439453125 7.453125 c 0
 93.5068359375 7.453125 37.4560546875 73 37.4560546875 171.05859375 c 0
 37.4560546875 273.05859375 135.739257812 348.498046875 307.6796875 369 c 1
EndSplineSet
Validated: 524297
EndChar

StartChar: uni031B
Encoding: 795 795 210
Width: 0
Flags: W
HStem: 419 205.37
VStem: 61 7<512.68 567.42>
LayerCount: 2
Fore
SplineSet
29 617.267578125 m 1
 35 624.370117188 l 1
 35 624.370117188 68 593.463867188 68 539 c 0
 68 468 5 419 5 419 c 1
 0 422.809570312 l 1
 0 422.809570312 61 468 61 541 c 0
 61 589.000976562 29 617.267578125 29 617.267578125 c 1
EndSplineSet
Validated: 524289
EndChar

StartChar: uni01A9
Encoding: 425 425 211
Width: 509
Flags: W
HStem: 0 8<25 484> 723.008 8<25 484>
LayerCount: 2
Fore
SplineSet
25 723.0078125 m 5
 356 358 l 5
 356 350 l 5
 25 8 l 5
 484 8 l 5
 484 0 l 5
 17 0 l 5
 15 8 l 5
 349.923828125 354.126953125 l 5
 15 723.0078125 l 5
 17 731.0078125 l 5
 484 731.0078125 l 5
 484 723.0078125 l 5
 25 723.0078125 l 5
EndSplineSet
Validated: 524289
EndChar

StartChar: uni0186
Encoding: 390 390 212
Width: 674
Flags: W
HStem: -10 7.45312<222.491 348.07> 731.547 7.45312<244.148 348.07>
VStem: 636.637 7.36328<307.528 414.662>
LayerCount: 2
Fore
SplineSet
636.63671875 361.069335938 m 0
 636.63671875 595.313476562 489.040039062 731.546875 294 731.546875 c 0
 109.502929688 731.546875 42 597.021484375 42 597.021484375 c 1
 36 600.517578125 l 1
 36 600.517578125 101.431640625 739 294 739 c 0
 493 739 644 600 644 361 c 0
 644 122 493 -10 294 -10 c 0
 129.431640625 -10 42 38.7158203125 42 38.7158203125 c 1
 45 47.1279296875 l 1
 45 47.1279296875 128.502929688 -2.546875 294 -2.546875 c 0
 489.040039062 -2.546875 636.63671875 126.825195312 636.63671875 361.069335938 c 0
EndSplineSet
Validated: 524289
EndChar

StartChar: uni018B
Encoding: 395 395 213
Width: 525
Flags: W
HStem: -10 7.45312<229.907 413.405> 386.141 7.85938<233.294 424.104>
VStem: 30 7.36328<147.218 231.887> 467 4<376.141 384>
LayerCount: 2
Fore
SplineSet
475 731.0078125 m 5
 67 731.0078125 l 5
 67 723.0078125 l 5
 467 723.0078125 l 29
 467 5.0078125 l 5
 467 5.0078125 392 -2.546875 290 -2.546875 c 4
 94.0380859375 -2.546875 37.36328125 85.2333984375 37.36328125 187.930664062 c 4
 37.36328125 354 157 386.140625 311 386.140625 c 4
 435 386.140625 471 376.140625 471 376.140625 c 5
 471 384 l 5
 471 384 440 394 307 394 c 4
 155 394 30 358.97265625 30 188 c 4
 30 80.9033203125 89.724609375 -10 290 -10 c 4
 388.799804688 -10 475 -2.0078125 475 -2.0078125 c 5
 475 731.0078125 l 5
EndSplineSet
Validated: 524293
EndChar

StartChar: uni0182
Encoding: 386 386 214
Width: 525
Flags: W
HStem: -10 7.45312<111.595 295.093> 386.141 7.85938<100.896 291.706> 723.008 8<58 458>
VStem: 50 8<5.00781 376.141 384 723.008> 487.637 7.36328<148.744 231.19>
LayerCount: 2
Fore
SplineSet
50 731.0078125 m 1
 458 731.0078125 l 5
 458 723.0078125 l 5
 58 723.0078125 l 25
 58 5.0078125 l 1
 58 5.0078125 133 -2.546875 235 -2.546875 c 0
 430.961914062 -2.546875 487.63671875 85.2333984375 487.63671875 187.930664062 c 0
 487.63671875 354 368 386.140625 214 386.140625 c 0
 90 386.140625 54 376.140625 54 376.140625 c 1
 54 384 l 1
 54 384 85 394 218 394 c 0
 370 394 494.999999995 358.972368946 495 188 c 0
 495.000000003 80.9033203125 435.275390625 -10 235 -10 c 0
 136.200195312 -10 50 -2.0078125 50 -2.0078125 c 1
 50 731.0078125 l 1
EndSplineSet
Validated: 524293
EndChar

StartChar: uni0183
Encoding: 387 387 215
Width: 532
Flags: W
HStem: -9.99805 7.45312<211.788 313.389> 483.48 7.45312<265.519 334.582> 753.002 8<58 450.008>
VStem: 50 8<50.0642 753.002> 494 8<185.023 284.246>
LayerCount: 2
Fore
SplineSet
494 230.935546875 m 0
 494 400 400.1171875 483.48046875 302 483.48046875 c 0
 140.8828125 483.48046875 56 318 56 318 c 1
 54 329 l 1
 54 329 139.857421875 490.93359375 302 490.93359375 c 0
 404.142578125 490.93359375 502 406 502 230.935546875 c 0
 502 84.1591796875 404.142578125 -9.998046875 272 -9.998046875 c 0
 121.857421875 -9.998046875 50 46 50 46 c 1
 50 761.001953125 l 1
 450.0078125 761.001953125 l 1
 450.0078125 753.001953125 l 1
 58 753.001953125 l 1
 58 50.06415465 l 1
 58 50.06415465 129.156175356 -2.544921875 272 -2.544921875 c 0
 400.1171875 -2.544921875 494 85.5537109375 494 230.935546875 c 0
EndSplineSet
Validated: 524293
EndChar

StartChar: uni018C
Encoding: 396 396 216
Width: 545
Flags: W
HStem: -9.99805 7.45312<197.418 266.481> 483.48 7.45312<218.611 301.48> 753.008 8<82.9922 473>
VStem: 30 8<196.69 295.913> 473 8<60.0776 753.008>
LayerCount: 2
Fore
SplineSet
38 250 m 4
 38 80.935546875 131.8828125 -2.544921875 230 -2.544921875 c 4
 391.1171875 -2.544921875 476 162.935546875 476 162.935546875 c 5
 478 151.935546875 l 5
 478 151.935546875 392.142578125 -9.998046875 230 -9.998046875 c 4
 127.857421875 -9.998046875 30 74.935546875 30 250 c 4
 30 396.776367188 127.857421875 490.93359375 260 490.93359375 c 4
 392.142578125 490.93359375 478 399 478 399 c 5
 476 388 l 5
 476 388 391.1171875 483.48046875 260 483.48046875 c 4
 131.8828125 483.48046875 38 395.381835938 38 250 c 4
481 761.0078125 m 1
 481 96.0078125 l 2
 481 35.6953125 510 0 510 0 c 1
 503 -5 l 1
 503 -5 473 34.91015625 473 93.0078125 c 2
 473 753.0078125 l 1
 82.9921875 753.0078125 l 1
 80.9921875 761.0078125 l 1
 481 761.0078125 l 1
EndSplineSet
Validated: 524293
EndChar

StartChar: uni018E
Encoding: 398 398 217
Width: 464
Flags: W
HStem: 0 8<25 406> 371.504 8<49.4961 407.504> 723.008 8<25 406>
VStem: 406 8<8 723.008> 406 1.50391<371.504 379.504>
LayerCount: 2
Fore
SplineSet
49.49609375 371.50390625 m 1xe8
 49.49609375 379.50390625 l 1
 407.50390625 379.50390625 l 1
 407.50390625 371.50390625 l 1
 49.49609375 371.50390625 l 1xe8
406 723.0078125 m 1xf0
 25 723.0078125 l 1
 25 731.0078125 l 1
 414 731.0078125 l 1
 414 0 l 1
 25 0 l 1
 25 8 l 1
 406 8 l 1
 406 723.0078125 l 1xf0
EndSplineSet
Validated: 524293
EndChar

StartChar: uni019C
Encoding: 412 412 218
Width: 1074
Flags: W
HStem: -10 9<211.044 301.942 692.044 782.695> 711.008 20G<50 58 531 539 1002 1010>
VStem: 50 8<160.774 731.008> 531 8<160.774 208 251.008 731.008> 1002 8<60.0776 731.008>
LayerCount: 2
Fore
SplineSet
1010 731.0078125 m 5
 1010 96.0078125 l 6
 1010 35.6953125 1039 0 1039 0 c 5
 1032 -5 l 5
 1032 -5 1002 34.91015625 1002 93.0078125 c 6
 1002 731.0078125 l 5
 1010 731.0078125 l 5
1002 251.0078125 m 5
 1010 251.0078125 l 5
 977 155 903 -10 740 -10 c 4
 636 -10 531 47.7275390625 531 206 c 6
 531 731.0078125 l 5
 539 731.0078125 l 5
 539 208 l 6
 539 53.2685546875 639 -1 739 -1 c 4
 900 -1 967 156 1002 251.0078125 c 5
531 251.0078125 m 5
 539 251.0078125 l 5
 506 155 422 -10 259 -10 c 0
 155 -10 50 47.7275390625 50 206 c 2
 50 731.0078125 l 1
 58 731.0078125 l 1
 58 208 l 2
 58 53.2685546875 158 -1 258 -1 c 0
 419 -1 496 156 531 251.0078125 c 5
EndSplineSet
Validated: 524293
EndChar

StartChar: uni019E
Encoding: 414 414 219
Width: 470
Flags: W
HStem: 0 21G<64 72> 483.48 7.45312<266.833 328.029>
VStem: 64 8<0 424.327> 412 8<-180 374.931>
LayerCount: 2
Fore
SplineSet
420 325 m 2
 420 -180 l 5
 412 -180 l 5
 412 322 l 2
 412 437 373.1171875 483.48046875 295 483.48046875 c 0
 173.8828125 483.48046875 69 318 69 318 c 1
 67 329 l 1
 67 329 172.857421875 490.93359375 295 490.93359375 c 0
 377.142578125 490.93359375 420 442 420 325 c 2
64 0 m 1
 64 387 l 2
 64 451 35 483.0078125 35 483.0078125 c 1
 42 488.0078125 l 1
 42 488.0078125 72 451.60546875 72 390 c 2
 72 0 l 1
 64 0 l 1
EndSplineSet
Validated: 524293
EndChar

StartChar: uni019F
Encoding: 415 415 220
Width: 760
Flags: W
HStem: -10 7.45312<325.93 434.07> 358 8<34 726.008> 731.547 7.45312<325.93 434.07>
VStem: 30 7.36328<307.528 414.662> 722.637 7.36328<307.528 414.662>
LayerCount: 2
Fore
SplineSet
726.0078125 358 m 5
 34 358 l 1
 34 366 l 1
 726.0078125 366 l 5
 726.0078125 358 l 5
EndSplineSet
Refer: 1 79 N 1 0 0 1 0 0 2
Validated: 524293
EndChar

StartChar: ordfeminine
Encoding: 170 170 221
Width: 331
Flags: W
HStem: 435 6<105.787 165.047> 631 6<114.527 188.67> 740 21G<48 50> 764 6<128.074 204.336>
VStem: 20 6<517.247 564.861> 283 6<479.703 699.311>
LayerCount: 2
Fore
SplineSet
289 677 m 26
 289 507 l 2
 289 466 308 443 308 443 c 1
 303 439 l 1
 303 439 283 463 283 504 c 2
 283 675 l 26
 283 724 255 764 169 764 c 0
 102 764 50 740 50 740 c 1
 48 744 l 1
 48 744 98 770 169 770 c 0
 259 770 289 728 289 677 c 26
26 542 m 0
 26 483 68 441 134 441 c 0
 242 441 285 531 285 531 c 1
 287 524 l 1
 287 524 243 435 134 435 c 0
 66 435 20 478 20 542 c 0
 20 600 65 637 154 637 c 0
 243 637 287 588 287 588 c 1
 285 583 l 1
 285 583 242 631 154 631 c 0
 68 631 26 599 26 542 c 0
EndSplineSet
Validated: 5
EndChar

StartChar: ordmasculine
Encoding: 186 186 222
Width: 376
Flags: W
HStem: 435 6<153.922 222.078> 764 6<156.025 219.975>
VStem: 20 6<568.248 633.852> 350 6<568.248 633.852>
LayerCount: 2
Fore
SplineSet
26 601 m 4
 26 498 96 441 188 441 c 4
 280 441 350 498 350 601 c 0
 350 704 280 764 188 764 c 0
 96 764 26 704 26 601 c 4
20 601 m 0
 20 708 92 770 188 770 c 0
 284 770 356 708 356 601 c 0
 356 494 284 435 188 435 c 0
 92 435 20 494 20 601 c 0
EndSplineSet
Validated: 1
EndChar

StartChar: currency
Encoding: 164 164 223
Width: 330
Flags: W
HStem: 134.291 6.2002<134.496 195.504> 412.792 6.2002<136.164 193.837> 468 20G<14 31.2621 298.738 316>
VStem: 30 5.9082<244.114 307.11> 294.092 5.9082<244.114 307.11>
LayerCount: 2
Fore
SplineSet
252 166.181640625 m 1
 257 169.181640625 l 1
 316 67.181640625 l 1
 310 63.181640625 l 1
 252 166.181640625 l 1
78 166.181640625 m 1
 20 63.181640625 l 1
 14 67.181640625 l 1
 73 169.181640625 l 1
 78 166.181640625 l 1
252 385 m 5
 310 488 l 5
 316 484 l 5
 257 382 l 5
 252 385 l 5
78 385 m 5
 73 382 l 5
 14 484 l 5
 20 488 l 5
 78 385 l 5
35.908203125 275.647460938 m 0
 35.908203125 188.58203125 91.51953125 140.491210938 165 140.491210938 c 0
 238.483398438 140.491210938 294.091796875 188.58203125 294.091796875 275.647460938 c 0
 294.091796875 362.361328125 238.483398438 412.791992188 165 412.791992188 c 0
 91.51953125 412.791992188 35.908203125 362.361328125 35.908203125 275.647460938 c 0
30 275.590820312 m 0
 30 366.258789062 88.244140625 418.9921875 165 418.9921875 c 0
 241.755859375 418.9921875 300 366.258789062 300 275.590820312 c 0
 300 184.565429688 241.755859375 134.291015625 165 134.291015625 c 0
 88.244140625 134.291015625 30 184.565429688 30 275.590820312 c 0
EndSplineSet
Validated: 524293
EndChar

StartChar: uni01B5
Encoding: 437 437 224
Width: 510
Flags: W
HStem: 0 8<24 494> 353.008 8<81 431.008> 723.008 8<26 486>
LayerCount: 2
Fore
SplineSet
431.0078125 353.0078125 m 5
 81 353.0078125 l 5
 81 361.0078125 l 5
 431.0078125 361.0078125 l 5
 431.0078125 353.0078125 l 5
486 723.0078125 m 1
 26 723.0078125 l 1
 26 731.0078125 l 1
 493 731.0078125 l 1
 495 723.0078125 l 1
 24 8 l 1
 494 8 l 1
 494 0 l 1
 17 0 l 1
 15 8 l 1
 486 723.0078125 l 1
EndSplineSet
Validated: 524293
EndChar

StartChar: uni01B6
Encoding: 438 438 225
Width: 400
Flags: W
HStem: 0 8<24 384> 233.008 8<49 359.008> 473.011 8<26 376>
LayerCount: 2
Fore
SplineSet
359.0078125 233.0078125 m 5
 49 233.0078125 l 5
 49 241.0078125 l 5
 359.0078125 241.0078125 l 5
 359.0078125 233.0078125 l 5
376 473.010742188 m 1
 26 473.010742188 l 1
 26 481.010742188 l 1
 383 481.010742188 l 1
 385 473.010742188 l 1
 24 8 l 1
 384 8 l 1
 384 0 l 1
 17 0 l 1
 15 8 l 1
 376 473.010742188 l 1
EndSplineSet
Validated: 524293
EndChar

StartChar: heart
Encoding: 9829 9829 228
Width: 840
Flags: W
HStem: -9.99805 21G<356.5 483.5> 719 20G<178.5 306.5 533.5 661.5>
VStem: 30 780<372.854 605.266>
LayerCount: 2
Fore
SplineSet
420 607.500976562 m 5
 420 607.500976562 463 739 604 739 c 4
 719 739 810 660 810 501 c 4
 810 252 547 -9.998046875 420 -9.998046875 c 4
 293 -9.998046875 30 252 30 501 c 4
 30 660 121 739 236 739 c 4
 377 739 420 607.500976562 420 607.500976562 c 5
EndSplineSet
EndChar

StartChar: diamond
Encoding: 9830 9830 229
Width: 619
Flags: W
HStem: 711.008 20G<282.935 322.612>
LayerCount: 2
Fore
SplineSet
306 731.0078125 m 1
 610 365 l 1
 306 -1.0078125 l 1
 299 -1.0078125 l 1
 5 365 l 1
 299 731.0078125 l 1
 306 731.0078125 l 1
EndSplineSet
EndChar

StartChar: lozenge
Encoding: 9674 9674 230
Width: 589
Flags: W
HStem: 711.008 20G<273.481 311.519>
LayerCount: 2
Fore
SplineSet
296 731.0078125 m 5
 580 365 l 5
 296 -1.0078125 l 5
 289 -1.0078125 l 5
 5 365 l 5
 289 731.0078125 l 5
 296 731.0078125 l 5
292.509765625 717.583007812 m 5
 292.490234375 717.583007812 17 365 17 365 c 5
 17 365 292.490234375 12.4169921875 292.509765625 12.4169921875 c 5
 568 365 l 5
 292.509765625 717.583007812 l 5
EndSplineSet
EndChar

StartChar: spade
Encoding: 9824 9824 231
Width: 759
Flags: W
VStem: 375 8<5.1296 284.992>
LayerCount: 2
Fore
SplineSet
372 4.9921875 m 1
 372 4.9921875 372.6171875 192.985351562 375 284.9921875 c 2
 379.299804688 450.9921875 l 1
 378.299804688 450.9921875 l 1
 383 284.9921875 l 2
 385.573242188 194.107421875 386 4.9921875 386 4.9921875 c 1
 372 4.9921875 l 1
379 256.493164062 m 1
 379 256.493164062 346 124.994140625 205 124.994140625 c 0
 90 124.994140625 30 199.001953125 30 298.001953125 c 0
 30 457.001953125 252 743.9921875 379 743.9921875 c 0
 506 743.9921875 729 461.994140625 729 302.994140625 c 0
 729 203.994140625 668 124.994140625 553 124.994140625 c 4
 412 124.994140625 379 256.493164062 379 256.493164062 c 1
EndSplineSet
EndChar

StartChar: club
Encoding: 9827 9827 232
Width: 710
Flags: W
HStem: 385.398 60.6016<306.047 404.354> 718.992 20G<309.146 401.254>
VStem: 351.2 8<0.137416 385.398>
LayerCount: 2
Fore
SplineSet
305.5 446 m 1
 404.5 446 l 1
 404.5 336 l 1
 305.5 336 l 1
 305.5 446 l 1
348.200195312 0 m 5
 348.200195312 0 348.816985531 187.992838633 351.200195312 280 c 6
 355.5 446 l 5
 354.5 446 l 5
 359.200195312 280 l 6
 361.773557895 189.114800495 362.200195312 0 362.200195312 0 c 5
 348.200195312 0 l 5
193.200195312 575.091796875 m 0
 193.200195312 678.721679688 263.091796875 738.9921875 355.200195312 738.9921875 c 0
 447.30859375 738.9921875 517.200195312 678.721679688 517.200195312 575.091796875 c 0
 517.200195312 471.565429688 447.30859375 385.3984375 355.200195312 385.3984375 c 0
 263.091796875 385.3984375 193.200195312 471.565429688 193.200195312 575.091796875 c 0
356.400390625 338.698242188 m 0
 356.400390625 442.328125 442.291992188 518.598632812 534.400390625 518.598632812 c 0
 618.508789062 518.598632812 680.400390625 450.328125 680.400390625 370.698242188 c 0
 680.400390625 267.170898438 610.508789062 193.994140625 518.400390625 193.994140625 c 0
 426.291992188 193.994140625 356.400390625 235.170898438 356.400390625 338.698242188 c 0
30 370.698242188 m 0
 30 450.328125 91.8916015625 518.598632812 176 518.598632812 c 0
 268.108398438 518.598632812 354 442.328125 354 338.698242188 c 0
 354 235.170898438 284.108398438 193.994140625 192 193.994140625 c 0
 99.8916015625 193.994140625 30 267.170898438 30 370.698242188 c 0
EndSplineSet
EndChar

StartChar: uni26C4
Encoding: 9924 9924 233
Width: 715
Flags: W
HStem: -10 7.45312<329.097 436.817> 76.1602 49.6797<368.521 417.8> 148.16 49.6797<365.521 414.8> 221.16 49.6797<363.521 412.8> 303 78<314.951 481.027> 358.338 6.91895<274.393 469.607> 467.544 56<384.865 506.431> 541.16 49.6797<274.521 323.8> 554 49.6797<391.36 440.64> 702.073 6.91895<274.393 469.607>
VStem: 54 7<380 425> 136 7.36328<163.213 248.27> 197 6.85254<495.526 568.575> 224 85<204.545 321.404> 274.32 49.6797<541.36 590.64> 365.32 49.6797<76.9446 125.055 148.36 197.64 221.666 270.334> 391.16 49.6797<554.2 603.479> 540.147 6.85254<495.526 568.575> 628.637 7.36328<172.923 257.888> 652 7<403 448>
LayerCount: 2
Back
SplineSet
354 711 m 4
 412 711 415.099609375 732.551757812 450.200195312 732.551757812 c 4
 463.200195312 732.551757812 474.900390625 726.029296875 474.900390625 710.44921875 c 4
 474.900390625 687.049804688 422 672 354 672 c 4
 286 672 233.099609375 687.049804688 233.099609375 710.44921875 c 4
 233.099609375 726.029296875 244.799804688 732.551757812 257.799804688 732.551757812 c 4
 292.900390625 732.551757812 296 711 354 711 c 4
293 716 m 4
 293 754 316 777 354 777 c 4
 392 777 415 754 415 716 c 4
 415 698 382 690 354 690 c 4
 326 690 293 698 293 716 c 4
EndSplineSet
Fore
SplineSet
342.247070312 684.708984375 m 0xf27870
 399.814453125 691.77734375 400.264648438 713.545898438 435.103515625 717.82421875 c 0
 448.006835938 719.408203125 460.4140625 714.360351562 462.313476562 698.896484375 c 0
 465.165039062 675.671875 414.493164062 654.287109375 347 646 c 0
 279.506835938 637.712890625 225.166015625 646.203125 222.314453125 669.428710938 c 0
 220.416015625 684.892578125 231.234375 692.791992188 244.13671875 694.375976562 c 0
 278.9765625 698.654296875 284.678710938 677.640625 342.247070312 684.708984375 c 0xf27870
281.091796875 682.237304688 m 0
 276.4609375 719.954101562 296.486328125 745.5859375 334.203125 750.216796875 c 0
 371.919921875 754.84765625 397.551757812 734.822265625 402.182617188 697.10546875 c 0
 404.375976562 679.240234375 372.59765625 667.278320312 344.805664062 663.865234375 c 0
 317.014648438 660.453125 283.286132812 664.372070312 281.091796875 682.237304688 c 0
242 346 m 1
 314 330 l 25
 314 330 309 307 309 279 c 0
 309 251 322 228 322 208 c 0
 322 198 267 194 255 194 c 0
 241 194 224 241 224 278 c 0xf27c70
 224 321 242 346 242 346 c 1
370 381 m 0xfa7870
 479 381 492 432 512 432 c 0
 531 432 566 399 566 388 c 0
 566 358 497 303 378 303 c 0
 259 303 177 354 177 373 c 16
 177 392 222 432 233 432 c 0
 248 432 261 381 370 381 c 0xfa7870
368.3203125 101 m 0
 368.3203125 114.6796875 379.48046875 125.83984375 393.16015625 125.83984375 c 0
 406.83984375 125.83984375 418 114.6796875 418 101 c 0
 418 87.3203125 406.83984375 76.16015625 393.16015625 76.16015625 c 0
 379.48046875 76.16015625 368.3203125 87.3203125 368.3203125 101 c 0
365.3203125 173 m 0xf27970
 365.3203125 186.6796875 376.48046875 197.83984375 390.16015625 197.83984375 c 0
 403.83984375 197.83984375 415 186.6796875 415 173 c 0
 415 159.3203125 403.83984375 148.16015625 390.16015625 148.16015625 c 0
 376.48046875 148.16015625 365.3203125 159.3203125 365.3203125 173 c 0xf27970
363.3203125 246 m 0
 363.3203125 259.6796875 374.48046875 270.83984375 388.16015625 270.83984375 c 0
 401.83984375 270.83984375 413 259.6796875 413 246 c 0
 413 232.3203125 401.83984375 221.16015625 388.16015625 221.16015625 c 0
 374.48046875 221.16015625 363.3203125 232.3203125 363.3203125 246 c 0
391.16015625 578.83984375 m 0xf2f8f0
 391.16015625 592.51953125 402.3203125 603.6796875 416 603.6796875 c 0
 429.6796875 603.6796875 440.83984375 592.51953125 440.83984375 578.83984375 c 0
 440.83984375 565.16015625 429.6796875 554 416 554 c 0
 402.3203125 554 391.16015625 565.16015625 391.16015625 578.83984375 c 0xf2f8f0
593 350 m 1
 591 354 l 25
 652 403 l 25
 650 448 l 25
 658 449 l 25
 659 402 l 25
 706 389 l 25
 703 380 l 25
 656 396 l 25
 593 350 l 1
200.360351562 265.48046875 m 2
 57 373 l 1
 10 357 l 25
 7 366 l 25
 54 379 l 25
 55 426 l 25
 63 425 l 25
 61 380 l 25
 203 269 l 2
 203.817382812 268.361328125 205.134765625 267.6484375 205.134765625 266 c 0
 205.134765625 265 204 264 203 264 c 0
 202 264 201.041015625 264.970703125 200.360351562 265.48046875 c 2
274.3203125 566 m 0xf37a70
 274.3203125 579.6796875 285.48046875 590.83984375 299.16015625 590.83984375 c 0
 312.83984375 590.83984375 324 579.6796875 324 566 c 0
 324 552.3203125 312.83984375 541.16015625 299.16015625 541.16015625 c 0
 285.48046875 541.16015625 274.3203125 552.3203125 274.3203125 566 c 0xf37a70
408 523.543945312 m 4
 422.947265625 523.543945312 472.944335938 522.041992188 496 521.22265625 c 0
 510.640625 520.702148438 517 513.0703125 517 505.543945312 c 0
 517 498.083007812 509.900390625 489.161132812 496 484 c 0
 473.196289062 475.533203125 422.5703125 467.543945312 409 467.543945312 c 4
 394.940429688 467.543945312 384.100585938 479.543945312 384.100585938 496.543945312 c 4
 384.100585938 513.543945312 393.595703125 523.543945312 408 523.543945312 c 4
203.852539062 532.00390625 m 0
 203.852539062 424.583984375 276.28515625 365.256835938 372 365.256835938 c 0xf67870
 467.71484375 365.256835938 540.147460938 424.583984375 540.147460938 532.00390625 c 0
 540.147460938 639.53515625 467.71484375 702.073242188 372 702.073242188 c 0
 276.28515625 702.073242188 203.852539062 639.53515625 203.852539062 532.00390625 c 0
197 531.938476562 m 0
 197 643.884765625 272.5 708.9921875 372 708.9921875 c 0
 471.5 708.9921875 547 643.884765625 547 531.938476562 c 0
 547 420.104492188 471.5 358.337890625 372 358.337890625 c 0
 272.5 358.337890625 197 420.104492188 197 531.938476562 c 0
507.426757812 418 m 1
 511 422.646484375 l 1
 578.779296875 381.658203125 636 319.236328125 636 218 c 0
 636 58.2373046875 528.142578125 -10 386 -10 c 0
 243.857421875 -10 136 48.2373046875 136 208 c 0
 136 308.706054688 192.76953125 377.877929688 242.9375 410 c 1
 246.234375 406 l 1
 196.76171875 375.38671875 143.36328125 306.896484375 143.36328125 208.069335938 c 0
 143.36328125 53.0625 247.8828125 -2.546875 386 -2.546875 c 0
 524.1171875 -2.546875 628.63671875 63.0625 628.63671875 218.069335938 c 0
 628.63671875 316.0703125 572.944335938 378.173828125 507.426757812 418 c 1
EndSplineSet
EndChar
